<svg xmlns="http://www.w3.org/2000/svg" viewBox="0 0 1600 900">
<g fill="none" stroke="#FEFAEA" stroke-opacity="0.07" stroke-width="1.5">
<path d="M 400.4 780.0 L 401.2 784.9 L 400.7 789.7 L 398.8 794.4 L 395.3 798.5 L 390.5 802.0 L 384.8 804.7 L 378.8 806.6 L 372.9 808.1 L 367.7 809.4 L 363.2 810.9 L 359.5 812.8 L 356.2 815.4 L 353.1 818.6 L 349.6 822.1 L 345.6 825.5 L 340.9 828.3 L 335.6 830.2 L 330.0 830.8 L 324.4 830.1 L 319.1 828.3 L 314.3 825.8 L 310.0 822.9 L 306.1 820.1 L 302.2 817.6 L 298.0 815.7 L 293.2 814.2 L 287.9 812.9 L 282.1 811.3 L 276.4 809.3 L 271.2 806.5 L 267.1 802.9 L 264.6 798.6 L 263.9 793.8 L 264.8 789.0 L 267.0 784.3 L 269.8 780.0 L 272.5 776.1 L 274.5 772.4 L 275.4 768.6 L 275.3 764.5 L 274.4 759.8 L 273.3 754.5 L 272.7 748.7 L 273.4 743.0 L 275.8 737.7 L 280.1 733.6 L 286.1 731.1 L 293.3 730.5 L 301.1 731.7 L 308.7 734.4 L 315.6 738.0 L 321.3 741.7 L 326.1 745.0 L 330.0 747.1 L 333.6 747.8 L 337.4 747.2 L 341.9 745.4 L 347.2 743.2 L 353.3 741.0 L 359.9 739.5 L 366.7 739.1 L 373.0 740.0 L 378.5 742.2 L 382.9 745.3 L 386.3 749.2 L 388.9 753.5 L 390.9 757.8 L 392.8 762.2 L 394.7 766.5 L 396.8 770.8 L 398.8 775.3 Z"/><path d="M 470.8 780.0 L 472.4 789.7 L 471.5 799.5 L 467.6 808.8 L 460.6 817.1 L 451.0 824.0 L 439.6 829.4 L 427.6 833.3 L 415.8 836.2 L 405.3 838.8 L 396.4 841.7 L 388.9 845.6 L 382.4 850.8 L 376.1 857.2 L 369.3 864.1 L 361.2 870.9 L 351.8 876.6 L 341.3 880.3 L 330.0 881.6 L 318.8 880.2 L 308.2 876.7 L 298.6 871.5 L 290.0 865.7 L 282.1 860.1 L 274.3 855.2 L 265.9 851.4 L 256.4 848.4 L 245.8 845.7 L 234.3 842.7 L 222.8 838.6 L 212.4 833.0 L 204.3 825.7 L 199.3 817.1 L 197.8 807.6 L 199.6 797.9 L 204.0 788.6 L 209.5 780.0 L 214.9 772.1 L 218.9 764.7 L 220.8 757.2 L 220.6 748.9 L 218.7 739.5 L 216.5 728.9 L 215.4 717.4 L 216.8 705.9 L 221.6 695.4 L 230.2 687.2 L 242.2 682.2 L 256.7 680.9 L 272.2 683.3 L 287.4 688.7 L 301.1 695.9 L 312.7 703.5 L 322.1 709.9 L 330.0 714.2 L 337.2 715.6 L 344.8 714.3 L 353.7 710.9 L 364.4 706.4 L 376.6 702.1 L 389.9 699.1 L 403.4 698.3 L 416.0 700.1 L 427.0 704.4 L 435.9 710.7 L 442.7 718.5 L 447.8 727.0 L 451.9 735.7 L 455.6 744.3 L 459.5 752.9 L 463.6 761.6 L 467.6 770.6 Z"/><path d="M 541.2 780.0 L 543.6 794.6 L 542.2 809.2 L 536.4 823.1 L 525.9 835.6 L 511.5 846.0 L 494.5 854.1 L 476.3 859.9 L 458.8 864.3 L 443.0 868.1 L 429.6 872.6 L 418.4 878.5 L 408.6 886.2 L 399.2 895.7 L 388.9 906.2 L 376.8 916.4 L 362.7 924.9 L 346.9 930.5 L 330.0 932.3 L 313.1 930.3 L 297.2 925.0 L 282.8 917.3 L 270.0 908.6 L 258.2 900.2 L 246.5 892.9 L 233.9 887.1 L 219.6 882.6 L 203.6 878.6 L 186.4 874.0 L 169.2 867.8 L 153.6 859.4 L 141.4 848.6 L 133.9 835.7 L 131.7 821.5 L 134.4 806.9 L 140.9 792.9 L 149.3 780.0 L 157.4 768.2 L 163.4 757.1 L 166.2 745.8 L 165.8 733.4 L 163.1 719.3 L 159.8 703.4 L 158.2 686.1 L 160.2 668.9 L 167.4 653.2 L 180.3 640.8 L 198.3 633.3 L 220.0 631.4 L 243.3 635.0 L 266.1 643.1 L 286.7 653.9 L 304.0 665.2 L 318.2 674.9 L 330.0 681.3 L 340.8 683.4 L 352.3 681.5 L 365.6 676.3 L 381.5 669.6 L 399.9 663.1 L 419.8 658.6 L 440.0 657.4 L 459.0 660.1 L 475.5 666.5 L 488.8 676.0 L 499.0 687.7 L 506.7 700.4 L 512.8 713.5 L 518.4 726.5 L 524.2 739.4 L 530.4 752.4 L 536.4 765.9 Z"/><path d="M 611.6 780.0 L 614.7 799.4 L 612.9 818.9 L 605.2 837.5 L 591.2 854.2 L 572.0 868.0 L 549.3 878.7 L 525.1 886.6 L 501.7 892.4 L 480.7 897.5 L 462.8 903.4 L 447.8 911.3 L 434.8 921.6 L 422.3 934.3 L 408.5 948.2 L 392.5 961.8 L 373.7 973.1 L 352.5 980.6 L 330.0 983.1 L 307.5 980.5 L 286.3 973.3 L 267.1 963.1 L 250.0 951.5 L 234.2 940.2 L 218.6 930.5 L 201.8 922.8 L 182.8 916.8 L 161.5 911.4 L 138.6 905.3 L 115.6 897.1 L 94.8 885.9 L 78.5 871.5 L 68.5 854.2 L 65.6 835.3 L 69.2 815.9 L 77.9 797.2 L 89.0 780.0 L 99.8 764.3 L 107.9 749.4 L 111.7 734.4 L 111.1 717.9 L 107.5 699.1 L 103.1 677.8 L 100.9 654.9 L 103.6 631.8 L 113.2 610.9 L 130.4 594.4 L 154.4 584.4 L 183.3 581.8 L 214.4 586.6 L 244.8 597.4 L 272.2 611.8 L 295.4 626.9 L 314.3 639.9 L 330.0 648.4 L 344.4 651.3 L 359.7 648.6 L 377.5 641.8 L 398.7 632.8 L 423.2 624.1 L 449.8 618.2 L 476.7 616.6 L 502.0 620.1 L 524.0 628.7 L 541.8 641.4 L 555.4 656.9 L 565.6 673.9 L 573.8 691.3 L 581.3 708.7 L 589.0 725.9 L 597.2 743.3 L 605.2 761.2 Z"/><path d="M 682.0 780.0 L 685.9 804.3 L 683.7 828.6 L 673.9 851.9 L 656.5 872.7 L 632.6 890.0 L 604.1 903.4 L 573.9 913.2 L 544.6 920.5 L 518.3 926.9 L 496.0 934.3 L 477.3 944.1 L 461.1 957.1 L 445.3 972.9 L 428.1 990.3 L 408.1 1007.3 L 384.6 1021.4 L 358.1 1030.8 L 330.0 1033.9 L 301.9 1030.6 L 275.4 1021.6 L 251.4 1008.8 L 230.0 994.3 L 210.3 980.3 L 190.8 968.1 L 169.8 958.5 L 146.1 951.0 L 119.4 944.3 L 90.7 936.6 L 62.0 926.4 L 36.0 912.4 L 15.7 894.3 L 3.1 872.8 L -0.5 849.1 L 4.1 824.8 L 14.9 801.5 L 28.8 780.0 L 42.3 760.4 L 52.3 741.8 L 57.1 723.0 L 56.4 702.3 L 51.8 678.8 L 46.4 652.3 L 43.6 623.6 L 47.0 594.8 L 59.0 568.6 L 80.5 548.1 L 110.5 535.5 L 146.7 532.3 L 185.5 538.3 L 223.5 551.8 L 257.8 569.8 L 286.7 588.7 L 310.4 604.8 L 330.0 615.5 L 348.0 619.1 L 367.1 615.8 L 389.4 607.2 L 415.9 596.0 L 446.5 585.2 L 479.7 577.7 L 513.4 575.7 L 545.0 580.2 L 572.5 590.9 L 594.7 606.7 L 611.7 626.1 L 624.5 647.4 L 634.7 669.2 L 644.1 690.8 L 653.7 712.3 L 664.0 734.1 L 674.0 756.5 Z"/><path d="M 752.4 780.0 L 757.1 809.1 L 754.4 838.4 L 742.7 866.3 L 721.8 891.2 L 693.1 912.1 L 658.9 928.1 L 622.7 939.8 L 587.5 948.6 L 556.0 956.3 L 529.2 965.1 L 506.8 976.9 L 487.3 992.5 L 468.4 1011.5 L 447.8 1032.4 L 423.7 1052.7 L 395.5 1069.7 L 363.8 1080.9 L 330.0 1084.7 L 296.3 1080.7 L 264.5 1070.0 L 235.7 1054.6 L 210.0 1037.2 L 186.3 1020.3 L 162.9 1005.7 L 137.7 994.2 L 109.3 985.2 L 77.3 977.1 L 42.8 968.0 L 8.4 955.7 L -22.8 938.9 L -47.2 917.2 L -62.2 891.4 L -66.7 862.9 L -61.1 833.8 L -48.1 805.8 L -31.5 780.0 L -15.3 756.4 L -3.2 734.2 L 2.5 711.6 L 1.7 686.8 L -3.8 658.6 L -10.4 626.7 L -13.7 592.3 L -9.6 557.7 L 4.8 526.3 L 30.6 501.7 L 66.6 486.6 L 110.0 482.8 L 156.6 490.0 L 202.2 506.1 L 243.3 527.7 L 278.1 550.4 L 306.4 569.8 L 330.0 582.5 L 351.7 586.9 L 374.5 583.0 L 401.2 572.6 L 433.1 559.1 L 469.8 546.2 L 509.7 537.2 L 550.1 534.9 L 588.0 540.2 L 621.0 553.1 L 647.6 572.1 L 668.1 595.4 L 683.4 620.9 L 695.7 647.0 L 706.9 673.0 L 718.5 698.8 L 730.8 724.9 L 742.8 751.8 Z"/><path d="M 822.8 780.0 L 828.3 814.0 L 825.1 848.1 L 811.5 880.6 L 787.2 909.8 L 753.6 934.1 L 713.7 952.8 L 671.5 966.5 L 630.5 976.7 L 593.6 985.6 L 562.3 996.0 L 536.2 1009.7 L 513.5 1027.9 L 491.4 1050.0 L 467.4 1074.4 L 439.3 1098.2 L 406.4 1118.0 L 369.4 1131.1 L 330.0 1135.4 L 290.7 1130.8 L 253.5 1118.3 L 220.0 1100.4 L 190.0 1080.1 L 162.4 1060.4 L 135.1 1043.4 L 105.7 1029.9 L 72.5 1019.4 L 35.2 1010.0 L -5.0 999.3 L -45.2 984.9 L -81.6 965.3 L -110.1 940.1 L -127.6 909.9 L -132.8 876.7 L -126.3 842.8 L -111.2 810.1 L -91.7 780.0 L -72.8 752.5 L -58.7 726.5 L -52.1 700.1 L -53.0 671.3 L -59.4 638.4 L -67.1 601.2 L -71.0 561.0 L -66.2 520.7 L -49.4 484.1 L -19.3 455.3 L 22.7 437.7 L 73.3 433.2 L 127.7 441.6 L 180.9 460.5 L 228.9 485.7 L 269.4 512.1 L 302.5 534.7 L 330.0 549.6 L 355.3 554.7 L 382.0 550.1 L 413.1 538.1 L 450.2 522.3 L 493.1 507.2 L 539.6 496.8 L 586.7 494.0 L 631.0 500.2 L 669.4 515.2 L 700.6 537.4 L 724.4 564.6 L 742.3 594.3 L 756.6 624.8 L 769.7 655.2 L 783.2 685.3 L 797.6 715.7 L 811.6 747.1 Z"/><path d="M 893.2 780.0 L 899.5 818.9 L 895.9 857.8 L 880.3 895.0 L 852.5 928.3 L 814.1 956.1 L 768.6 977.5 L 720.2 993.1 L 673.4 1004.8 L 631.3 1015.0 L 595.5 1026.8 L 565.7 1042.5 L 539.7 1063.3 L 514.5 1088.6 L 487.0 1116.5 L 454.9 1143.6 L 417.3 1166.3 L 375.0 1181.2 L 330.0 1186.2 L 285.0 1180.9 L 242.6 1166.6 L 204.2 1146.1 L 170.0 1122.9 L 138.5 1100.4 L 107.2 1081.0 L 73.6 1065.6 L 35.7 1053.6 L -7.0 1042.8 L -52.9 1030.6 L -98.8 1014.2 L -140.4 991.8 L -172.9 962.9 L -193.0 928.5 L -198.9 890.5 L -191.5 851.7 L -174.2 814.4 L -151.9 780.0 L -130.4 748.6 L -114.3 718.9 L -106.7 688.7 L -107.8 655.7 L -115.1 618.1 L -123.8 575.6 L -128.2 529.7 L -122.8 483.6 L -103.6 441.8 L -69.2 408.9 L -21.2 388.8 L 36.7 383.7 L 98.8 393.3 L 159.6 414.8 L 214.5 443.7 L 260.8 473.9 L 298.6 499.7 L 330.0 516.7 L 358.9 522.5 L 389.4 517.3 L 425.0 503.5 L 467.4 485.5 L 516.4 468.3 L 569.6 456.3 L 623.4 453.1 L 674.0 460.3 L 717.9 477.4 L 753.5 502.8 L 780.7 533.8 L 801.2 567.8 L 817.6 602.7 L 832.5 637.3 L 848.0 671.7 L 864.4 706.5 L 880.4 742.4 Z"/><path d="M 963.7 780.0 L 970.7 823.7 L 966.6 867.6 L 949.1 909.4 L 917.8 946.9 L 874.6 978.1 L 823.4 1002.2 L 769.0 1019.8 L 716.3 1032.8 L 669.0 1044.4 L 628.7 1057.7 L 595.1 1075.4 L 565.9 1098.7 L 537.6 1127.2 L 506.6 1158.5 L 470.5 1189.1 L 428.2 1214.6 L 380.6 1231.4 L 330.0 1237.0 L 279.4 1231.0 L 231.7 1214.9 L 188.5 1191.9 L 150.0 1165.8 L 114.5 1140.5 L 79.4 1118.6 L 41.6 1101.3 L -1.1 1087.8 L -49.1 1075.7 L -100.8 1061.9 L -152.4 1043.5 L -199.2 1018.3 L -235.8 985.8 L -258.4 947.0 L -265.0 904.4 L -256.7 860.7 L -237.2 818.7 L -212.2 780.0 L -187.9 744.7 L -169.8 711.3 L -161.3 677.3 L -162.5 640.2 L -170.7 597.9 L -180.5 550.1 L -185.5 498.4 L -179.4 446.6 L -157.8 399.5 L -119.1 362.5 L -65.1 339.9 L -0.0 334.1 L 69.9 344.9 L 138.3 369.2 L 200.0 401.6 L 252.1 435.6 L 294.6 464.7 L 330.0 483.8 L 362.5 490.3 L 396.8 484.4 L 436.8 469.0 L 484.6 448.7 L 539.7 429.3 L 599.5 415.9 L 660.1 412.3 L 717.0 420.3 L 766.4 439.6 L 806.5 468.1 L 837.1 503.1 L 860.1 541.3 L 878.5 580.5 L 895.3 619.5 L 912.7 658.2 L 931.2 697.3 L 949.2 737.7 Z"/><path d="M 1411.7 120.0 L 1415.7 125.8 L 1417.6 132.0 L 1416.8 138.2 L 1413.4 143.7 L 1407.6 148.2 L 1399.9 151.5 L 1391.1 153.4 L 1382.1 154.1 L 1373.6 154.0 L 1366.0 153.5 L 1359.7 153.1 L 1354.6 153.3 L 1350.5 154.3 L 1346.8 156.1 L 1343.3 158.6 L 1339.4 161.4 L 1335.0 164.2 L 1330.0 166.5 L 1324.6 168.1 L 1319.0 168.7 L 1313.4 168.3 L 1308.0 167.2 L 1302.8 165.5 L 1297.9 163.4 L 1293.0 161.2 L 1288.2 158.9 L 1283.2 156.5 L 1278.0 154.0 L 1272.9 151.2 L 1268.0 147.9 L 1263.7 144.1 L 1260.3 139.8 L 1258.0 135.1 L 1256.9 130.1 L 1257.1 125.0 L 1258.3 120.0 L 1260.3 115.2 L 1262.7 110.7 L 1265.2 106.5 L 1267.7 102.3 L 1270.1 98.2 L 1272.6 94.1 L 1275.2 90.1 L 1278.3 86.1 L 1281.9 82.5 L 1286.1 79.2 L 1291.0 76.6 L 1296.4 74.6 L 1302.1 73.4 L 1307.9 72.7 L 1313.7 72.5 L 1319.3 72.5 L 1324.7 72.7 L 1330.0 72.8 L 1335.3 72.9 L 1340.6 73.1 L 1346.0 73.5 L 1351.3 74.5 L 1356.3 76.0 L 1361.0 78.1 L 1365.1 80.9 L 1368.5 84.2 L 1371.4 87.7 L 1373.9 91.2 L 1376.5 94.6 L 1379.5 97.7 L 1383.3 100.6 L 1388.1 103.5 L 1393.7 106.7 L 1399.9 110.4 L 1406.2 114.8 Z"/><path d="M 1493.4 120.0 L 1501.4 131.7 L 1505.2 144.1 L 1503.7 156.3 L 1496.9 167.4 L 1485.2 176.5 L 1469.8 183.0 L 1452.3 186.8 L 1434.2 188.2 L 1417.1 187.9 L 1402.0 186.9 L 1389.4 186.2 L 1379.3 186.5 L 1371.0 188.5 L 1363.7 192.2 L 1356.5 197.2 L 1348.7 202.9 L 1339.9 208.4 L 1330.0 213.1 L 1319.2 216.2 L 1308.0 217.4 L 1296.8 216.7 L 1286.0 214.4 L 1275.6 210.9 L 1265.8 206.8 L 1256.1 202.3 L 1246.3 197.8 L 1236.3 193.1 L 1226.1 188.0 L 1215.8 182.4 L 1206.0 175.8 L 1197.4 168.2 L 1190.5 159.6 L 1185.9 150.1 L 1183.9 140.1 L 1184.2 129.9 L 1186.6 120.0 L 1190.5 110.5 L 1195.3 101.5 L 1200.4 92.9 L 1205.4 84.6 L 1210.3 76.5 L 1215.2 68.3 L 1220.5 60.2 L 1226.5 52.3 L 1233.8 44.9 L 1242.3 38.5 L 1252.1 33.2 L 1262.8 29.3 L 1274.3 26.8 L 1285.9 25.4 L 1297.4 25.0 L 1308.5 25.1 L 1319.4 25.3 L 1330.0 25.6 L 1340.6 25.8 L 1351.2 26.2 L 1361.9 27.1 L 1372.5 28.9 L 1382.6 31.9 L 1392.0 36.3 L 1400.1 41.9 L 1407.0 48.4 L 1412.8 55.4 L 1417.9 62.5 L 1423.0 69.2 L 1429.1 75.4 L 1436.6 81.2 L 1446.1 87.0 L 1457.4 93.4 L 1469.9 100.8 L 1482.4 109.6 Z"/><path d="M 1575.1 120.0 L 1587.2 137.5 L 1592.7 156.1 L 1590.5 174.5 L 1580.3 191.1 L 1562.8 204.7 L 1539.8 214.5 L 1513.4 220.2 L 1486.3 222.3 L 1460.7 221.9 L 1438.0 220.4 L 1419.1 219.3 L 1403.9 219.8 L 1391.4 222.8 L 1380.5 228.2 L 1369.8 235.7 L 1358.1 244.3 L 1344.9 252.7 L 1330.0 259.6 L 1313.8 264.2 L 1297.0 266.0 L 1280.2 265.0 L 1263.9 261.6 L 1248.5 256.4 L 1233.6 250.2 L 1219.1 243.5 L 1204.5 236.6 L 1189.5 229.6 L 1174.1 222.0 L 1158.7 213.6 L 1144.1 203.7 L 1131.1 192.3 L 1120.8 179.4 L 1113.9 165.2 L 1110.8 150.2 L 1111.3 134.9 L 1114.9 120.0 L 1120.8 105.7 L 1128.0 92.2 L 1135.6 79.4 L 1143.1 66.9 L 1150.4 54.7 L 1157.8 42.4 L 1165.7 30.3 L 1174.8 18.4 L 1185.6 7.4 L 1198.4 -2.3 L 1213.1 -10.2 L 1229.3 -16.1 L 1246.4 -19.9 L 1263.8 -21.8 L 1281.1 -22.5 L 1297.8 -22.4 L 1314.1 -22.0 L 1330.0 -21.7 L 1345.9 -21.4 L 1361.8 -20.8 L 1377.9 -19.4 L 1393.8 -16.6 L 1409.0 -12.1 L 1422.9 -5.6 L 1435.2 2.8 L 1445.5 12.6 L 1454.1 23.2 L 1461.8 33.7 L 1469.6 43.8 L 1478.6 53.1 L 1490.0 61.8 L 1504.2 70.5 L 1521.1 80.0 L 1539.8 91.1 L 1558.6 104.4 Z"/><path d="M 1656.8 120.0 L 1672.9 143.4 L 1680.3 168.2 L 1677.4 192.6 L 1663.8 214.8 L 1640.4 232.9 L 1609.7 246.0 L 1574.6 253.6 L 1538.4 256.4 L 1504.2 255.9 L 1474.0 253.9 L 1448.8 252.4 L 1428.5 253.1 L 1411.9 257.0 L 1397.3 264.3 L 1383.0 274.3 L 1367.5 285.7 L 1349.8 296.9 L 1330.0 306.1 L 1308.4 312.3 L 1286.0 314.7 L 1263.6 313.4 L 1241.9 308.8 L 1221.3 301.9 L 1201.5 293.6 L 1182.2 284.7 L 1162.7 275.5 L 1142.7 266.1 L 1122.1 256.0 L 1101.6 244.7 L 1082.1 231.6 L 1064.8 216.5 L 1051.1 199.2 L 1041.9 180.2 L 1037.7 160.2 L 1038.4 139.9 L 1043.3 120.0 L 1051.1 101.0 L 1060.6 83.0 L 1070.8 65.8 L 1080.8 49.3 L 1090.6 32.9 L 1100.4 16.6 L 1110.9 0.4 L 1123.1 -15.4 L 1137.5 -30.1 L 1154.6 -43.1 L 1174.1 -53.7 L 1195.7 -61.5 L 1218.5 -66.5 L 1241.8 -69.1 L 1264.7 -70.0 L 1287.1 -69.8 L 1308.8 -69.4 L 1330.0 -68.9 L 1351.1 -68.5 L 1372.4 -67.7 L 1393.8 -65.8 L 1415.0 -62.2 L 1435.3 -56.1 L 1453.9 -47.4 L 1470.2 -36.2 L 1484.0 -23.2 L 1495.5 -9.1 L 1505.8 5.0 L 1516.1 18.4 L 1528.1 30.8 L 1543.3 42.4 L 1562.3 54.1 L 1584.9 66.7 L 1609.8 81.5 L 1634.8 99.2 Z"/><path d="M 1738.5 120.0 L 1758.6 149.2 L 1767.9 180.2 L 1764.2 210.8 L 1747.2 238.4 L 1718.0 261.1 L 1679.6 277.4 L 1635.7 287.0 L 1590.6 290.5 L 1547.8 289.9 L 1510.0 287.3 L 1478.5 285.5 L 1453.1 286.4 L 1432.4 291.3 L 1414.2 300.4 L 1396.3 312.9 L 1376.8 327.2 L 1354.8 341.1 L 1330.0 352.7 L 1303.0 360.4 L 1275.0 363.4 L 1247.0 361.7 L 1219.9 356.0 L 1194.1 347.3 L 1169.4 337.0 L 1145.2 325.8 L 1120.9 314.4 L 1095.8 302.6 L 1070.2 290.1 L 1044.5 275.9 L 1020.1 259.6 L 998.5 240.6 L 981.3 219.0 L 969.8 195.3 L 964.6 170.3 L 965.5 144.9 L 971.6 120.0 L 981.4 96.2 L 993.3 73.7 L 1006.0 52.3 L 1018.5 31.6 L 1030.7 11.1 L 1043.0 -9.3 L 1056.2 -29.5 L 1071.4 -49.3 L 1089.4 -67.7 L 1110.7 -83.9 L 1135.1 -97.1 L 1162.1 -106.8 L 1190.6 -113.1 L 1219.7 -116.4 L 1248.4 -117.5 L 1276.4 -117.3 L 1303.5 -116.7 L 1330.0 -116.1 L 1356.4 -115.6 L 1383.0 -114.6 L 1409.8 -112.3 L 1436.3 -107.7 L 1461.6 -100.2 L 1484.9 -89.3 L 1505.3 -75.3 L 1522.5 -58.9 L 1536.9 -41.4 L 1549.7 -23.8 L 1562.6 -7.0 L 1577.7 8.5 L 1596.6 23.0 L 1620.3 37.6 L 1648.6 53.4 L 1679.7 71.9 L 1711.0 94.0 Z"/><path d="M 1820.2 120.0 L 1844.3 155.1 L 1855.5 192.3 L 1851.1 228.9 L 1830.6 262.1 L 1795.7 289.4 L 1749.5 308.9 L 1696.9 320.4 L 1642.7 324.6 L 1591.3 323.8 L 1546.0 320.8 L 1508.3 318.6 L 1477.8 319.6 L 1452.9 325.5 L 1431.0 336.5 L 1409.5 351.5 L 1386.2 368.6 L 1359.8 385.3 L 1330.0 399.2 L 1297.6 408.5 L 1264.0 412.1 L 1230.4 410.0 L 1197.9 403.2 L 1166.9 392.8 L 1137.3 380.4 L 1108.3 367.0 L 1079.0 353.3 L 1049.0 339.2 L 1018.2 324.1 L 987.4 307.1 L 958.1 287.5 L 932.2 264.7 L 911.6 238.8 L 897.8 210.3 L 891.6 180.3 L 892.6 149.8 L 899.9 120.0 L 911.6 91.4 L 925.9 64.4 L 941.2 38.7 L 956.2 13.9 L 970.9 -10.6 L 985.6 -35.1 L 1001.4 -59.5 L 1019.6 -83.1 L 1041.3 -105.2 L 1066.8 -124.6 L 1096.2 -140.5 L 1128.5 -152.2 L 1162.8 -159.7 L 1197.6 -163.7 L 1232.1 -165.0 L 1265.6 -164.8 L 1298.1 -164.0 L 1330.0 -163.3 L 1361.7 -162.7 L 1393.6 -161.5 L 1425.8 -158.7 L 1457.5 -153.3 L 1487.9 -144.2 L 1515.9 -131.1 L 1540.4 -114.3 L 1561.0 -94.7 L 1578.3 -73.7 L 1593.6 -52.5 L 1609.1 -32.5 L 1627.2 -13.8 L 1649.9 3.6 L 1678.4 21.1 L 1712.3 40.1 L 1749.7 62.3 L 1787.1 88.8 Z"/><path d="M 1901.9 120.0 L 1930.1 160.9 L 1943.0 204.3 L 1937.9 247.1 L 1914.1 285.8 L 1873.3 317.6 L 1819.5 340.4 L 1758.0 353.8 L 1694.8 358.7 L 1634.9 357.8 L 1582.0 354.3 L 1538.0 351.7 L 1502.4 352.9 L 1473.3 359.8 L 1447.8 372.5 L 1422.8 390.1 L 1395.6 410.0 L 1364.7 429.5 L 1330.0 445.8 L 1292.2 456.6 L 1253.0 460.8 L 1213.8 458.4 L 1175.8 450.4 L 1139.7 438.3 L 1105.2 423.8 L 1071.3 408.2 L 1037.2 392.2 L 1002.2 375.7 L 966.2 358.1 L 930.3 338.3 L 896.1 315.4 L 865.9 288.8 L 841.9 258.6 L 825.8 225.4 L 818.5 190.4 L 819.7 154.8 L 828.2 120.0 L 841.9 86.7 L 858.6 55.2 L 876.4 25.2 L 893.9 -3.8 L 911.0 -32.4 L 928.2 -61.0 L 946.7 -89.4 L 967.9 -117.0 L 993.2 -142.7 L 1023.0 -165.4 L 1057.2 -183.9 L 1094.9 -197.6 L 1134.9 -206.4 L 1175.6 -211.0 L 1215.8 -212.5 L 1254.9 -212.2 L 1292.8 -211.4 L 1330.0 -210.6 L 1367.0 -209.8 L 1404.2 -208.4 L 1441.7 -205.2 L 1478.8 -198.8 L 1514.3 -188.2 L 1546.9 -173.0 L 1575.4 -153.4 L 1599.5 -130.5 L 1619.7 -105.9 L 1637.6 -81.3 L 1655.7 -57.9 L 1676.8 -36.2 L 1703.3 -15.8 L 1736.5 4.6 L 1776.0 26.8 L 1819.6 52.7 L 1863.3 83.6 Z"/><path d="M 1983.6 120.0 L 2015.8 166.8 L 2030.6 216.4 L 2024.8 265.2 L 1997.5 309.5 L 1950.9 345.8 L 1889.4 371.9 L 1819.2 387.2 L 1746.9 392.8 L 1678.4 391.8 L 1618.0 387.7 L 1567.7 384.8 L 1527.0 386.2 L 1493.8 394.0 L 1464.7 408.6 L 1436.0 428.6 L 1404.9 451.4 L 1369.7 473.7 L 1330.0 492.3 L 1286.9 504.6 L 1242.0 509.4 L 1197.2 506.7 L 1153.8 497.5 L 1112.6 483.7 L 1073.0 467.1 L 1034.4 449.3 L 995.4 431.1 L 955.3 412.2 L 914.3 392.1 L 873.2 369.5 L 834.2 343.3 L 799.6 312.9 L 772.1 278.4 L 753.8 240.4 L 745.4 200.4 L 746.8 159.8 L 756.5 120.0 L 772.2 81.9 L 791.3 45.9 L 811.6 11.6 L 831.6 -21.5 L 851.1 -54.2 L 870.8 -86.8 L 891.9 -119.3 L 916.2 -150.8 L 945.0 -180.3 L 979.1 -206.2 L 1018.2 -227.3 L 1061.4 -242.9 L 1107.0 -253.0 L 1153.5 -258.2 L 1199.5 -260.0 L 1244.2 -259.7 L 1287.5 -258.7 L 1330.0 -257.8 L 1372.3 -256.9 L 1414.8 -255.3 L 1457.7 -251.6 L 1500.0 -244.3 L 1540.6 -232.2 L 1577.8 -214.8 L 1610.5 -192.4 L 1638.0 -166.3 L 1661.1 -138.2 L 1681.5 -110.1 L 1702.2 -83.3 L 1726.3 -58.5 L 1756.6 -35.2 L 1794.5 -11.9 L 1839.7 13.5 L 1889.6 43.0 L 1939.5 78.4 Z"/><path d="M 1611.4 820.0 L 1614.2 823.7 L 1617.7 827.9 L 1621.0 832.7 L 1623.6 838.1 L 1625.0 843.6 L 1624.9 849.2 L 1623.4 854.6 L 1620.6 859.6 L 1616.6 864.2 L 1611.8 868.2 L 1606.4 871.7 L 1600.4 874.6 L 1594.1 877.0 L 1587.4 878.7 L 1580.5 879.7 L 1573.5 879.9 L 1566.6 879.3 L 1560.0 878.0 L 1553.7 876.2 L 1547.8 874.1 L 1542.1 872.1 L 1536.5 870.3 L 1530.8 868.9 L 1524.6 867.9 L 1517.8 867.0 L 1510.5 866.0 L 1502.9 864.6 L 1495.5 862.2 L 1488.8 858.9 L 1483.7 854.4 L 1480.5 848.9 L 1479.5 842.8 L 1480.8 836.5 L 1484.0 830.5 L 1488.3 824.9 L 1493.1 820.0 L 1497.5 815.7 L 1500.9 811.9 L 1503.0 808.1 L 1503.8 804.0 L 1503.7 799.5 L 1503.4 794.5 L 1503.5 789.1 L 1504.6 783.8 L 1507.3 778.9 L 1511.5 774.9 L 1517.1 772.2 L 1523.5 770.7 L 1530.4 770.4 L 1537.0 770.8 L 1543.3 771.3 L 1549.0 771.3 L 1554.4 770.2 L 1560.0 768.0 L 1566.2 764.6 L 1573.4 760.5 L 1581.8 756.4 L 1591.2 753.1 L 1601.0 751.4 L 1610.5 751.8 L 1618.8 754.5 L 1625.0 759.5 L 1628.7 766.4 L 1629.6 774.5 L 1628.0 782.9 L 1624.5 791.0 L 1620.0 798.2 L 1615.6 804.2 L 1612.0 809.1 L 1610.1 813.1 L 1609.9 816.6 Z"/><path d="M 1662.9 820.0 L 1668.5 827.4 L 1675.3 835.9 L 1682.0 845.5 L 1687.2 856.1 L 1690.0 867.3 L 1689.9 878.5 L 1686.8 889.3 L 1681.2 899.3 L 1673.3 908.3 L 1663.7 916.4 L 1652.7 923.3 L 1640.8 929.2 L 1628.1 933.9 L 1614.8 937.4 L 1601.0 939.3 L 1587.1 939.7 L 1573.3 938.6 L 1560.0 936.0 L 1547.4 932.4 L 1535.5 928.2 L 1524.2 924.2 L 1513.1 920.6 L 1501.5 917.8 L 1489.1 915.8 L 1475.6 914.1 L 1460.9 912.1 L 1445.7 909.1 L 1430.9 904.5 L 1417.7 897.7 L 1407.4 888.7 L 1401.0 877.8 L 1399.1 865.7 L 1401.6 853.1 L 1407.9 840.9 L 1416.6 829.8 L 1426.2 820.0 L 1435.0 811.5 L 1441.8 803.7 L 1445.9 796.2 L 1447.6 788.1 L 1447.4 779.0 L 1446.7 769.0 L 1446.9 758.2 L 1449.3 747.5 L 1454.5 737.7 L 1463.0 729.8 L 1474.1 724.3 L 1487.1 721.5 L 1500.7 720.9 L 1514.1 721.6 L 1526.5 722.6 L 1538.0 722.5 L 1548.8 720.5 L 1560.0 716.0 L 1572.4 709.2 L 1586.9 701.1 L 1603.7 692.9 L 1622.4 686.3 L 1642.0 682.8 L 1661.0 683.5 L 1677.6 689.0 L 1690.1 699.1 L 1697.4 712.8 L 1699.2 728.9 L 1695.9 745.8 L 1688.9 761.9 L 1680.0 776.3 L 1671.1 788.4 L 1664.1 798.2 L 1660.1 806.2 L 1659.8 813.2 Z"/><path d="M 1714.3 820.0 L 1722.7 831.1 L 1733.0 843.8 L 1743.0 858.2 L 1750.8 874.2 L 1754.9 890.9 L 1754.8 907.7 L 1750.3 923.9 L 1741.7 938.9 L 1729.9 952.5 L 1715.5 964.5 L 1699.1 975.0 L 1681.2 983.8 L 1662.2 990.9 L 1642.1 996.0 L 1621.5 999.0 L 1600.6 999.6 L 1579.9 997.8 L 1560.0 994.0 L 1541.1 988.5 L 1523.3 982.3 L 1506.3 976.2 L 1489.6 970.9 L 1472.3 966.7 L 1453.7 963.6 L 1433.3 961.1 L 1411.4 958.1 L 1388.6 953.7 L 1366.4 946.7 L 1346.5 936.6 L 1331.0 923.1 L 1321.4 906.8 L 1318.6 888.5 L 1322.5 869.6 L 1331.9 851.4 L 1345.0 834.7 L 1359.3 820.0 L 1372.5 807.2 L 1382.7 795.6 L 1388.9 784.2 L 1391.3 772.1 L 1391.1 758.6 L 1390.1 743.5 L 1390.4 727.4 L 1393.9 711.3 L 1401.8 696.6 L 1414.5 684.7 L 1431.2 676.5 L 1450.6 672.2 L 1471.1 671.3 L 1491.1 672.4 L 1509.8 673.9 L 1526.9 673.8 L 1543.3 670.7 L 1560.0 663.9 L 1578.6 653.8 L 1600.3 641.6 L 1625.5 629.3 L 1653.6 619.4 L 1683.1 614.1 L 1711.5 615.3 L 1736.4 623.5 L 1755.1 638.6 L 1766.1 659.3 L 1768.8 683.4 L 1763.9 708.6 L 1753.4 732.9 L 1740.0 754.5 L 1726.7 772.7 L 1716.1 787.4 L 1710.2 799.3 L 1709.7 809.8 Z"/><path d="M 1765.8 820.0 L 1777.0 834.8 L 1790.7 851.7 L 1804.0 871.0 L 1814.4 892.2 L 1819.9 914.5 L 1819.7 937.0 L 1813.7 958.6 L 1802.3 978.6 L 1786.5 996.7 L 1767.3 1012.7 L 1745.5 1026.6 L 1721.6 1038.4 L 1696.2 1047.8 L 1669.5 1054.7 L 1642.0 1058.7 L 1614.1 1059.5 L 1586.6 1057.1 L 1560.0 1052.0 L 1534.8 1044.7 L 1511.1 1036.5 L 1488.4 1028.3 L 1466.1 1021.2 L 1443.1 1015.6 L 1418.2 1011.5 L 1391.1 1008.1 L 1361.8 1004.2 L 1331.4 998.3 L 1301.8 989.0 L 1275.4 975.4 L 1254.7 957.5 L 1241.9 935.7 L 1238.1 911.4 L 1243.3 886.2 L 1255.9 861.8 L 1273.3 839.6 L 1292.4 820.0 L 1309.9 802.9 L 1323.5 787.5 L 1331.9 772.3 L 1335.1 756.2 L 1334.8 738.1 L 1333.4 718.0 L 1333.8 696.5 L 1338.5 675.0 L 1349.1 655.5 L 1365.9 639.6 L 1388.2 628.7 L 1414.1 622.9 L 1441.5 621.7 L 1468.2 623.2 L 1493.1 625.1 L 1515.9 625.0 L 1537.7 620.9 L 1560.0 611.9 L 1584.9 598.4 L 1613.8 582.1 L 1647.3 565.7 L 1684.8 552.5 L 1724.1 545.5 L 1762.1 547.0 L 1795.2 558.0 L 1820.1 578.2 L 1834.8 605.7 L 1838.4 637.8 L 1831.9 671.5 L 1817.9 703.9 L 1800.0 732.7 L 1782.3 756.9 L 1768.2 776.5 L 1760.3 792.5 L 1759.6 806.4 Z"/><path d="M 1817.2 820.0 L 1831.2 838.5 L 1848.3 859.7 L 1865.0 883.7 L 1877.9 910.3 L 1884.9 938.2 L 1884.7 966.2 L 1877.1 993.2 L 1862.9 1018.2 L 1843.2 1040.9 L 1819.1 1060.9 L 1791.8 1078.3 L 1762.0 1093.0 L 1730.3 1104.8 L 1696.9 1113.4 L 1662.5 1118.4 L 1627.7 1119.4 L 1593.2 1116.4 L 1560.0 1109.9 L 1528.5 1100.9 L 1498.8 1090.6 L 1470.6 1080.4 L 1442.7 1071.5 L 1413.8 1064.5 L 1382.8 1059.4 L 1348.9 1055.1 L 1312.3 1050.2 L 1274.3 1042.8 L 1237.3 1031.2 L 1204.2 1014.3 L 1178.4 991.9 L 1162.4 964.6 L 1157.7 934.2 L 1164.1 902.7 L 1179.8 872.3 L 1201.6 844.5 L 1225.5 820.0 L 1247.4 798.7 L 1264.4 779.3 L 1274.8 760.4 L 1278.9 740.2 L 1278.5 717.6 L 1276.8 692.5 L 1277.3 665.6 L 1283.1 638.8 L 1296.4 614.4 L 1317.4 594.5 L 1345.3 580.8 L 1377.7 573.7 L 1411.8 572.1 L 1445.2 574.0 L 1476.3 576.4 L 1504.9 576.3 L 1532.1 571.1 L 1560.0 559.9 L 1591.1 543.0 L 1627.2 522.6 L 1669.2 502.2 L 1716.0 485.7 L 1765.1 476.9 L 1812.6 478.8 L 1853.9 492.6 L 1885.2 517.7 L 1903.5 552.1 L 1907.9 592.3 L 1899.8 634.4 L 1882.4 674.8 L 1860.0 710.9 L 1837.8 741.1 L 1820.2 765.6 L 1810.3 785.6 L 1809.5 803.0 Z"/><path d="M 1868.7 820.0 L 1885.5 842.2 L 1906.0 867.6 L 1926.0 896.5 L 1941.5 928.3 L 1949.9 961.8 L 1949.6 995.5 L 1940.5 1027.8 L 1923.5 1057.9 L 1899.8 1085.0 L 1871.0 1109.1 L 1838.2 1129.9 L 1802.4 1147.5 L 1764.3 1161.7 L 1724.3 1172.1 L 1683.0 1178.0 L 1641.2 1179.2 L 1599.9 1175.7 L 1560.0 1167.9 L 1522.2 1157.1 L 1486.6 1144.7 L 1452.7 1132.5 L 1419.2 1121.8 L 1384.6 1113.4 L 1347.4 1107.3 L 1306.7 1102.2 L 1262.8 1096.3 L 1217.2 1087.4 L 1172.7 1073.5 L 1133.1 1053.2 L 1102.1 1026.2 L 1082.9 993.5 L 1077.2 957.1 L 1084.9 919.3 L 1103.8 882.7 L 1129.9 849.3 L 1158.6 820.0 L 1184.9 794.4 L 1205.3 771.2 L 1217.8 748.5 L 1222.7 724.2 L 1222.2 697.1 L 1220.2 667.0 L 1220.8 634.7 L 1227.8 602.6 L 1243.6 573.2 L 1268.9 549.4 L 1302.3 533.0 L 1341.2 524.4 L 1382.2 522.6 L 1422.3 524.8 L 1459.6 527.7 L 1493.9 527.5 L 1526.5 521.4 L 1560.0 507.9 L 1597.3 487.6 L 1640.7 463.2 L 1691.0 438.6 L 1747.2 418.8 L 1806.1 408.3 L 1863.1 410.5 L 1912.7 427.1 L 1950.2 457.3 L 1972.2 498.5 L 1977.5 546.7 L 1967.8 597.3 L 1946.8 645.8 L 1920.1 689.0 L 1893.4 725.3 L 1872.3 754.7 L 1860.4 778.7 L 1859.4 799.6 Z"/>
</g>
</svg>