<?xml version="1.0" encoding="UTF-8" standalone="no"?>
<!DOCTYPE svg PUBLIC "-//W3C//DTD SVG 1.1//EN" "http://www.w3.org/Graphics/SVG/1.1/DTD/svg11.dtd">
<svg xmlns="http://www.w3.org/2000/svg" version="1.1" viewBox="0.00 0.00 2000.00 539.00">
<path fill="#ffffff" d="
  M 5.25 9.46
  C 6.07 9.53 7.41 9.79 8.25 9.79
  Q 67.43 9.57 76.74 9.83
  Q 77.98 9.86 80.61 10.53
  A 2.34 2.32 -15.0 0 1 81.71 11.16
  C 88.80 18.21 94.66 27.08 100.21 36.13
  Q 105.28 44.40 108.86 52.96
  Q 114.07 65.40 115.92 70.56
  Q 119.92 81.77 120.95 84.20
  A 28.17 16.08 61.2 0 0 122.89 87.68
  L 125.23 91.51
  A 1.10 1.10 0.0 0 1 123.72 93.02
  Q 118.94 90.06 114.45 88.58
  C 110.02 87.13 102.57 85.92 97.26 83.80
  Q 85.19 78.97 82.58 77.67
  Q 54.16 63.50 31.32 41.12
  C 23.80 33.75 14.97 24.50 7.76 15.29
  Q 5.61 12.55 4.75 10.10
  A 0.48 0.48 0.0 0 1 5.25 9.46
  Z"
/>
<path fill="#ffffff" d="
  M 266.44 110.46
  A 0.35 0.34 4.1 0 1 266.02 109.98
  C 267.11 107.77 268.56 105.70 269.58 103.31
  Q 278.96 81.28 281.71 75.21
  Q 290.19 56.47 303.32 40.23
  C 310.17 31.76 318.78 24.28 327.03 17.29
  C 331.31 13.65 335.84 9.72 341.05 9.69
  Q 361.00 9.57 397.23 9.79
  A 0.59 0.58 2.7 0 1 397.81 10.42
  Q 397.21 18.02 396.80 19.30
  Q 392.76 32.06 388.23 42.74
  C 386.81 46.07 384.40 49.91 381.84 53.15
  Q 371.13 66.69 360.91 76.16
  C 354.71 81.91 348.83 85.42 340.55 90.34
  Q 335.39 93.41 330.48 95.47
  Q 315.13 101.92 305.09 104.53
  Q 290.82 108.24 270.86 109.11
  A 2.62 2.51 -54.3 0 0 270.27 109.22
  L 266.44 110.46
  Z"
/>
<path fill="#ffffff" d="
  M 524.40 9.95
  A 0.41 0.40 -45.6 0 1 524.40 10.48
  Q 521.89 13.36 514.36 22.11
  C 508.20 29.27 500.97 37.22 493.36 43.20
  C 485.55 49.33 481.62 52.41 473.93 56.53
  Q 467.07 60.21 462.63 61.79
  C 456.36 64.02 449.94 66.97 442.91 68.47
  Q 435.48 70.04 424.74 71.97
  C 421.63 72.52 419.55 73.46 417.28 74.23
  A 0.52 0.52 0.0 0 1 416.67 73.46
  C 418.69 70.21 420.25 67.08 421.25 63.27
  C 424.85 49.59 429.26 36.44 437.60 25.60
  Q 443.14 18.40 449.47 11.48
  C 451.40 9.37 453.86 9.62 457.02 9.63
  Q 507.53 9.75 523.98 9.77
  Q 524.24 9.77 524.40 9.95
  Z"
/>
<path fill="#ffffff" d="
  M 171.44 143.97
  Q 178.86 149.86 181.77 155.16
  Q 188.83 168.05 192.91 178.31
  Q 196.12 186.38 198.56 190.91
  C 203.05 199.21 210.96 205.54 219.78 208.83
  A 2.06 2.06 0.0 0 0 222.56 206.92
  C 222.68 196.08 222.97 187.50 221.37 179.39
  Q 220.98 177.42 220.19 173.05
  Q 217.84 160.09 212.46 149.22
  Q 209.19 142.63 201.96 133.08
  Q 189.94 117.20 183.11 106.96
  Q 182.72 106.37 179.61 103.16
  Q 177.32 100.81 172.01 97.58
  C 166.62 94.31 160.53 89.83 155.70 85.93
  C 152.86 83.64 150.19 78.51 147.47 73.61
  C 140.22 60.63 139.77 47.60 141.55 33.51
  Q 143.02 21.90 147.27 12.74
  C 148.35 10.40 150.74 9.69 153.35 9.69
  Q 164.52 9.67 178.22 9.78
  A 2.74 2.73 -6.3 0 1 180.86 11.89
  Q 183.64 23.84 185.49 31.49
  Q 189.48 47.94 187.76 64.76
  C 186.81 74.05 183.81 83.36 180.79 92.11
  Q 179.56 95.68 180.59 97.35
  Q 181.07 98.11 184.24 101.29
  Q 191.73 108.81 199.80 116.63
  Q 209.72 126.26 214.58 132.45
  Q 224.27 144.80 230.76 153.95
  A 1.78 1.78 0.0 0 0 233.70 153.91
  C 241.26 142.59 242.36 127.99 243.69 114.57
  Q 244.94 101.87 248.94 88.80
  C 250.42 83.98 253.49 78.64 256.02 75.29
  A 1.22 1.22 0.0 0 1 258.18 75.72
  Q 258.31 76.24 258.07 77.28
  C 257.32 80.52 256.41 83.01 256.04 86.46
  Q 255.20 94.30 255.09 95.16
  C 253.88 104.61 253.70 113.98 253.19 124.25
  C 252.73 133.34 252.11 142.44 250.02 151.06
  Q 249.36 153.75 247.44 162.17
  C 246.01 168.48 245.62 176.09 245.41 181.74
  C 245.07 191.07 245.75 201.48 248.54 210.88
  Q 248.83 211.87 250.26 217.02
  Q 251.18 220.35 255.18 228.35
  Q 262.66 243.29 271.20 256.57
  A 12.16 11.84 18.8 0 1 272.27 258.67
  Q 274.45 264.38 277.99 268.78
  A 5.76 5.61 -77.9 0 1 278.67 269.86
  L 279.82 272.31
  A 1.50 1.50 0.0 0 0 281.60 273.11
  C 284.08 272.40 286.02 268.41 287.03 266.54
  Q 291.32 258.61 296.84 246.49
  C 303.84 231.10 307.74 216.72 310.47 200.25
  C 312.82 186.08 299.80 189.86 291.71 188.19
  Q 283.27 186.44 277.22 182.67
  C 271.43 179.06 268.89 172.47 266.96 165.68
  Q 265.00 158.80 264.98 154.19
  A 1.38 1.25 -58.9 0 0 264.88 153.68
  L 262.98 149.08
  A 0.57 0.57 0.0 0 1 263.81 148.37
  Q 270.81 152.67 277.49 156.26
  Q 278.57 156.84 282.65 157.91
  A 9.38 9.10 67.4 0 1 285.16 158.99
  Q 294.45 164.73 298.90 171.43
  C 303.70 178.66 305.85 183.36 310.94 186.90
  A 1.39 1.39 0.0 0 0 312.74 186.72
  Q 313.30 186.13 313.77 184.55
  Q 315.19 179.79 317.80 168.04
  C 320.54 155.70 323.54 147.89 330.14 138.30
  C 334.10 132.56 336.18 129.53 342.79 129.19
  A 0.29 0.28 -63.3 0 1 342.96 129.71
  Q 341.39 130.77 340.33 132.06
  C 332.62 141.50 329.44 155.58 327.74 167.57
  C 326.90 173.57 327.82 179.26 325.71 185.38
  Q 324.53 188.80 325.69 191.74
  A 1.34 1.34 0.0 0 0 327.98 192.08
  C 331.37 187.80 333.42 184.66 337.29 180.89
  Q 343.16 175.17 355.67 160.91
  Q 366.35 148.74 374.35 135.36
  C 379.59 126.60 383.06 115.82 387.47 106.18
  Q 393.19 93.68 399.21 78.96
  C 400.37 76.11 402.32 70.98 404.96 68.98
  A 0.37 0.37 0.0 0 1 405.55 69.30
  L 405.13 77.14
  A 3.16 2.96 -36.8 0 1 405.00 77.87
  C 401.51 89.12 399.57 94.55 397.40 103.87
  Q 394.38 116.81 389.06 130.38
  C 388.15 132.69 387.12 136.41 387.03 138.55
  A 0.90 0.90 0.0 0 0 388.19 139.46
  Q 389.20 139.15 390.19 138.44
  Q 398.51 132.47 404.30 124.85
  C 405.10 123.80 406.16 122.90 407.37 121.91
  A 0.65 0.65 0.0 0 1 408.43 122.34
  C 408.93 127.52 405.49 134.97 402.47 139.19
  Q 394.55 150.28 384.19 157.08
  Q 380.33 159.62 374.43 165.93
  Q 360.84 180.50 351.51 197.75
  Q 349.48 201.52 348.60 205.58
  A 1.09 1.08 18.8 0 0 349.21 206.80
  Q 350.00 207.16 351.32 206.82
  C 359.20 204.80 364.98 201.17 372.02 196.44
  C 382.75 189.23 391.87 180.59 400.13 170.75
  Q 403.35 166.92 406.55 160.68
  Q 411.51 151.01 414.51 141.48
  Q 418.26 129.56 419.64 126.42
  Q 426.53 110.74 439.14 99.39
  Q 454.15 85.88 460.48 80.98
  Q 463.20 78.88 472.77 72.96
  A 1.14 1.14 0.0 0 1 474.43 73.53
  L 474.44 73.58
  A 1.95 1.95 0.0 0 1 473.88 75.76
  C 464.02 84.09 455.44 93.43 446.62 102.93
  Q 439.35 110.76 436.14 116.16
  C 431.93 123.22 428.76 130.12 427.37 137.68
  C 426.83 140.61 425.85 142.88 425.68 146.04
  Q 425.42 151.11 423.63 156.28
  A 1.60 1.48 56.9 0 0 423.57 156.63
  L 423.48 159.97
  A 1.51 1.51 0.0 0 0 425.76 161.32
  Q 432.44 157.34 438.64 157.25
  A 6.27 6.26 34.1 0 0 440.73 156.85
  Q 448.29 153.96 450.05 153.60
  Q 470.74 149.35 492.25 148.77
  Q 494.11 148.72 495.42 149.49
  A 0.72 0.71 -36.9 0 1 495.23 150.80
  Q 485.34 153.28 481.58 154.57
  Q 470.11 158.53 455.43 162.17
  Q 452.69 162.85 450.96 163.71
  Q 442.56 167.92 436.37 170.33
  C 433.55 171.42 430.95 173.16 429.00 174.50
  Q 425.38 176.98 404.79 192.28
  Q 400.90 195.17 398.81 198.61
  A 2.38 2.36 -49.2 0 0 399.00 201.34
  C 400.11 202.69 401.22 203.45 403.06 204.00
  C 417.17 208.24 422.41 210.44 432.28 211.50
  C 434.69 211.76 435.70 211.50 437.51 209.72
  Q 445.34 202.01 448.67 197.92
  Q 452.61 193.08 455.58 190.58
  C 468.80 179.46 483.67 172.63 500.30 168.72
  Q 510.51 166.32 521.13 163.62
  Q 522.59 163.25 524.12 163.33
  A 1.09 1.09 0.0 0 1 525.13 164.17
  Q 525.84 167.21 525.84 171.00
  Q 525.82 215.33 525.90 227.32
  A 2.43 2.42 79.7 0 1 524.32 229.61
  Q 520.20 231.15 512.04 233.53
  C 503.93 235.89 498.02 235.75 488.26 235.70
  Q 470.44 235.59 453.97 229.06
  C 446.71 226.18 439.68 221.80 432.02 218.83
  Q 429.39 217.81 425.59 217.44
  Q 417.35 216.63 406.20 214.55
  Q 400.40 213.47 395.50 211.66
  A 5.32 5.21 56.4 0 0 394.04 211.35
  C 389.51 211.03 387.26 210.51 384.18 211.61
  A 3.53 3.49 16.0 0 0 383.19 212.15
  Q 376.54 217.24 368.61 223.85
  Q 365.38 226.54 352.04 237.05
  Q 349.56 239.00 343.60 244.92
  Q 336.01 252.47 335.45 253.11
  Q 328.81 260.57 324.60 270.12
  C 322.07 275.87 320.46 278.99 318.99 283.34
  Q 315.33 294.13 313.55 304.01
  Q 312.63 309.14 312.40 310.35
  Q 311.70 313.99 311.38 316.70
  Q 309.34 334.20 308.28 338.77
  Q 304.93 353.32 296.64 379.94
  C 295.03 385.10 292.09 389.59 290.62 394.23
  Q 289.05 399.17 285.69 404.91
  C 282.15 410.96 280.55 416.78 276.62 422.52
  C 273.39 427.24 271.31 431.46 268.08 436.16
  C 262.61 444.10 256.82 451.68 250.57 459.47
  Q 242.57 469.44 236.12 475.82
  C 227.73 484.12 218.36 492.02 208.14 498.11
  C 201.57 502.03 194.13 507.97 187.23 511.01
  C 172.86 517.34 161.44 521.71 148.05 524.60
  C 142.03 525.89 136.41 528.08 130.35 528.75
  Q 127.10 529.11 121.94 529.76
  Q 113.36 530.84 111.00 530.84
  Q 71.24 530.91 60.74 530.94
  C 55.26 530.96 46.84 530.60 42.55 530.23
  A 5.94 5.80 -33.6 0 1 41.28 529.99
  L 38.54 529.11
  A 0.44 0.44 0.0 0 1 38.67 528.25
  C 48.94 528.11 56.28 526.55 70.68 524.13
  C 78.16 522.88 83.93 521.10 91.41 519.29
  Q 108.41 515.18 123.35 507.40
  Q 126.23 505.90 128.48 505.04
  C 131.24 504.00 133.36 501.91 136.20 500.35
  C 145.50 495.23 153.25 490.57 160.63 484.37
  Q 168.07 478.10 170.83 475.81
  Q 188.11 461.49 202.74 440.49
  Q 208.70 431.95 212.36 426.38
  Q 224.57 407.83 232.32 389.10
  Q 236.99 377.79 244.75 355.10
  A 3.49 3.47 57.4 0 0 244.92 354.32
  Q 245.47 348.53 246.97 344.01
  Q 247.25 343.19 247.00 338.47
  A 3.96 3.81 -58.0 0 0 246.74 337.24
  C 245.52 334.09 245.07 331.12 243.95 328.32
  Q 239.67 317.62 232.51 308.22
  C 224.11 297.21 214.95 287.50 203.21 280.09
  C 200.55 278.42 198.26 278.99 195.72 280.19
  A 3.99 3.98 -58.7 0 1 194.14 280.58
  C 188.62 280.83 185.20 280.58 180.48 282.16
  A 10.65 10.48 33.5 0 1 177.87 282.67
  C 173.20 282.99 170.67 283.05 166.27 283.93
  Q 159.29 285.33 151.39 285.11
  A 3.01 3.01 0.0 0 0 148.82 286.44
  C 146.37 290.08 145.10 292.21 142.58 294.76
  Q 141.15 296.22 132.87 304.66
  Q 127.62 310.02 123.98 312.11
  C 112.64 318.63 99.72 323.15 86.75 323.84
  Q 84.04 323.98 64.85 323.81
  C 55.73 323.72 48.53 321.97 38.93 320.42
  Q 33.94 319.61 28.74 318.07
  Q 10.53 312.65 4.19 310.92
  A 0.88 0.87 7.9 0 1 3.55 310.08
  Q 3.60 290.98 3.62 289.43
  Q 3.77 275.37 4.67 271.87
  A 0.46 0.46 0.0 0 1 5.29 271.55
  Q 19.44 277.26 34.73 279.55
  Q 39.02 280.19 41.76 280.25
  C 47.22 280.37 50.98 281.01 56.16 280.44
  C 59.20 280.11 62.29 280.88 65.94 280.75
  Q 75.89 280.38 82.87 280.15
  C 84.14 280.11 85.93 279.48 87.39 279.36
  Q 104.72 277.94 107.76 278.04
  Q 115.57 278.31 128.50 278.90
  C 136.60 279.27 143.72 279.19 152.10 277.83
  Q 170.42 274.85 188.19 269.01
  A 1.93 1.93 0.0 0 0 188.89 265.75
  L 177.23 255.10
  A 8.80 8.53 -7.7 0 0 175.82 254.06
  C 169.87 250.52 163.88 247.33 157.58 243.44
  C 152.62 240.38 148.26 237.30 143.33 237.81
  A 3.35 3.14 -59.6 0 0 142.18 238.15
  Q 134.37 242.15 133.53 242.77
  Q 127.96 246.92 121.45 249.26
  C 114.67 251.70 108.60 254.44 101.89 256.64
  Q 97.12 258.21 93.36 258.66
  C 89.54 259.11 86.34 260.13 81.78 260.24
  Q 63.71 260.69 50.76 260.30
  A 18.33 18.19 51.9 0 1 47.26 259.86
  Q 41.00 258.47 33.46 258.07
  A 3.45 3.42 -34.9 0 1 32.60 257.92
  L 4.95 249.36
  A 2.21 2.21 0.0 0 1 3.40 247.24
  L 3.81 185.92
  A 1.91 1.91 0.0 0 1 5.73 184.02
  Q 6.02 184.03 7.69 184.54
  Q 16.40 187.24 19.64 188.12
  C 24.80 189.51 31.41 192.43 36.48 193.53
  Q 42.95 194.93 46.40 195.86
  A 9.56 9.50 -35.7 0 0 48.52 196.20
  C 54.17 196.51 59.34 197.98 64.84 198.45
  Q 66.54 198.59 80.11 200.23
  Q 90.01 201.42 96.53 203.13
  Q 108.64 206.29 112.57 207.68
  Q 113.91 208.16 125.99 213.27
  A 1.50 1.50 0.0 0 0 127.74 210.94
  L 126.71 209.68
  A 0.43 0.43 0.0 0 1 126.97 208.99
  Q 130.15 208.41 131.50 210.00
  Q 135.84 215.13 138.76 216.65
  C 141.80 218.22 144.72 221.17 147.53 222.49
  Q 156.14 226.56 157.37 227.37
  C 165.02 232.40 174.00 237.65 182.88 242.09
  Q 186.70 244.00 194.08 248.58
  C 207.65 256.99 221.46 266.86 234.64 278.20
  Q 241.58 284.18 245.31 286.63
  Q 246.38 287.33 248.34 286.51
  A 0.89 0.88 84.5 0 0 248.88 285.85
  Q 249.31 283.41 247.88 281.63
  A 2.07 2.03 -63.9 0 1 247.44 280.30
  Q 247.51 277.61 246.72 274.27
  C 244.03 262.76 238.14 250.19 229.52 241.66
  C 220.23 232.46 213.84 225.61 204.64 218.10
  C 193.13 208.73 182.80 200.33 170.02 194.09
  Q 146.47 182.60 126.39 170.13
  C 125.54 169.60 122.14 168.14 122.02 167.95
  A 0.34 0.34 0.0 0 1 122.32 167.43
  Q 126.88 167.59 127.80 167.89
  Q 135.67 170.48 142.16 172.34
  C 155.07 176.02 164.66 179.75 176.94 185.07
  Q 179.59 186.22 181.81 185.81
  A 1.17 1.16 81.7 0 0 182.76 184.52
  C 181.50 174.03 178.55 163.88 174.39 154.09
  Q 171.67 147.65 170.95 144.28
  A 0.31 0.31 0.0 0 1 171.44 143.97
  Z
  M 472.29 208.86
  L 471.60 206.84
  A 0.65 0.65 0.0 0 0 470.78 206.43
  L 470.48 206.53
  A 11.45 0.97 -18.6 0 0 459.94 211.10
  L 460.41 212.52
  A 11.45 0.97 -18.6 0 0 471.57 209.79
  L 471.88 209.69
  A 0.65 0.65 0.0 0 0 472.29 208.86
  Z
  M 118.4799 228.2337
  A 1.33 1.33 0.0 0 0 117.1476 226.9060
  L 101.1476 226.9340
  A 1.33 1.33 0.0 0 0 99.8199 228.2663
  L 99.8201 228.3463
  A 1.33 1.33 0.0 0 0 101.1524 229.6740
  L 117.1524 229.6460
  A 1.33 1.33 0.0 0 0 118.4801 228.3137
  L 118.4799 228.2337
  Z"
/>
<path fill="#ffffff" d="
  M 227.07 93.33
  A 0.22 0.22 0.0 0 1 226.64 93.41
  Q 224.72 88.32 222.16 83.80
  Q 218.71 77.71 217.46 74.34
  C 215.07 67.88 213.26 62.79 212.69 56.36
  C 211.31 40.68 213.63 24.99 218.93 10.26
  A 0.77 0.77 0.0 0 1 219.66 9.74
  L 270.59 9.74
  A 1.75 1.74 87.9 0 1 272.33 11.36
  C 272.56 14.35 272.02 17.60 270.80 20.84
  Q 264.80 36.76 260.76 45.02
  C 255.10 56.58 244.34 66.25 234.19 75.68
  Q 231.16 78.49 227.64 83.33
  A 1.54 1.52 64.2 0 0 227.34 84.21
  L 227.07 93.33
  Z"
/>
<path fill="#ffffff" d="
  M 100.67 186.74
  Q 97.43 185.93 97.06 185.89
  Q 84.04 184.25 66.88 181.13
  Q 58.40 179.59 46.56 175.97
  Q 43.23 174.95 29.03 167.53
  C 25.24 165.55 22.27 162.43 18.74 159.62
  Q 13.88 155.75 8.20 147.58
  Q 3.76 141.20 3.69 133.50
  C 3.51 114.76 3.52 89.98 3.68 48.91
  Q 3.69 46.47 3.82 43.67
  A 0.62 0.62 0.0 0 1 4.81 43.20
  C 13.45 49.81 21.67 57.48 29.65 65.66
  C 36.70 72.90 44.14 81.55 49.28 86.99
  Q 51.31 89.13 58.88 99.10
  Q 63.15 104.71 67.40 111.98
  C 72.34 120.43 79.46 130.26 83.96 140.24
  C 89.51 152.55 93.90 161.55 97.02 173.17
  Q 98.85 180.01 101.37 185.91
  A 0.61 0.61 0.0 0 1 100.67 186.74
  Z
  M 82.06 167.95
  L 83.79 165.98
  A 0.28 0.28 0.0 0 0 83.76 165.59
  L 74.88 157.78
  A 6.03 1.40 41.3 0 0 69.42 154.85
  L 69.17 155.14
  A 6.03 1.40 41.3 0 0 72.78 160.17
  L 81.66 167.98
  A 0.28 0.28 0.0 0 0 82.06 167.95
  Z"
/>
<path fill="#ffffff" d="
  M 445.73 136.83
  A 0.27 0.27 0.0 0 1 445.75 136.32
  Q 453.76 134.05 457.83 126.56
  C 461.17 120.39 463.75 114.92 467.20 110.15
  Q 479.27 93.47 494.13 80.74
  C 503.03 73.12 515.27 65.60 524.83 59.63
  A 0.68 0.68 0.0 0 1 525.87 60.21
  L 525.87 119.78
  A 2.93 2.92 -7.3 0 1 523.68 122.61
  L 520.42 123.46
  A 7.38 7.36 -70.2 0 0 517.94 124.63
  L 514.08 127.41
  A 8.26 8.21 -74.2 0 1 512.48 128.31
  L 501.30 132.93
  A 1.59 1.58 -55.5 0 1 500.72 133.04
  Q 498.68 133.06 491.89 135.09
  Q 485.02 137.16 476.51 137.32
  Q 464.22 137.57 448.75 137.35
  Q 446.97 137.33 445.73 136.83
  Z"
/>
<path fill="#ffffff" d="
  M 1429.26 274.55
  C 1425.37 274.44 1422.97 273.70 1419.24 273.17
  C 1408.91 271.68 1398.09 268.04 1388.26 263.76
  Q 1383.05 261.49 1377.89 257.85
  Q 1362.50 247.00 1350.81 232.20
  C 1346.24 226.41 1342.64 218.53 1340.10 212.87
  C 1336.67 205.21 1334.94 196.29 1334.48 189.27
  Q 1333.63 176.30 1334.39 163.01
  Q 1334.98 152.76 1337.49 144.76
  Q 1338.53 141.46 1343.27 131.34
  C 1349.24 118.59 1358.22 107.99 1369.12 99.11
  Q 1370.59 97.92 1376.14 93.93
  C 1382.72 89.20 1390.73 85.85 1397.97 82.22
  Q 1403.55 79.43 1408.50 78.57
  C 1418.78 76.79 1424.54 75.33 1432.58 75.42
  Q 1438.50 75.48 1451.52 75.40
  Q 1469.87 75.29 1487.75 82.02
  Q 1493.10 84.03 1495.89 85.97
  A 6.77 6.16 -12.7 0 0 1496.98 86.59
  Q 1518.16 96.21 1530.50 111.46
  Q 1537.33 119.90 1543.97 133.42
  Q 1550.71 147.13 1552.07 164.23
  Q 1553.47 181.97 1549.96 199.27
  Q 1548.69 205.51 1546.10 211.30
  C 1541.62 221.32 1538.10 228.13 1532.09 236.13
  C 1523.38 247.71 1512.41 256.06 1499.75 263.21
  C 1493.39 266.81 1486.22 268.47 1478.52 270.81
  Q 1473.38 272.38 1469.56 272.93
  C 1465.50 273.51 1462.16 274.55 1457.45 274.61
  Q 1439.56 274.85 1429.26 274.55
  Z
  M 1375.30 192.28
  Q 1375.24 196.50 1375.54 197.48
  Q 1376.07 199.26 1380.25 209.04
  Q 1382.74 214.86 1386.68 219.46
  C 1396.90 231.38 1409.21 239.93 1424.48 243.31
  Q 1445.99 248.08 1466.82 242.82
  Q 1471.12 241.74 1474.04 240.27
  C 1482.24 236.16 1490.06 231.85 1496.00 225.62
  Q 1505.05 216.11 1508.80 203.43
  Q 1511.35 194.84 1511.98 179.96
  Q 1512.50 167.56 1510.89 156.28
  Q 1509.48 146.40 1506.06 139.89
  Q 1504.18 136.31 1494.99 123.91
  A 10.27 10.20 1.0 0 0 1493.14 122.01
  Q 1488.44 118.30 1486.13 116.64
  Q 1482.17 113.80 1475.87 111.35
  Q 1462.08 106.00 1449.29 104.90
  Q 1439.40 104.06 1432.29 105.81
  C 1429.65 106.46 1426.31 106.43 1423.84 106.83
  A 8.46 7.84 -57.8 0 0 1422.27 107.25
  Q 1419.01 108.48 1410.12 111.85
  Q 1400.45 115.51 1391.70 124.43
  Q 1375.61 140.82 1374.02 163.72
  Q 1372.95 179.06 1373.41 186.42
  A 1.20 1.10 34.4 0 0 1373.50 186.81
  L 1374.94 190.41
  A 4.81 4.77 34.3 0 1 1375.30 192.28
  Z"
/>
<path fill="#ffffff" d="
  M 1951.95 79.37
  Q 1951.34 80.33 1946.31 84.64
  Q 1943.42 87.12 1940.62 89.82
  Q 1928.30 101.72 1918.89 111.98
  Q 1912.07 119.42 1907.38 123.78
  C 1901.77 128.99 1897.30 134.34 1891.93 139.48
  Q 1887.89 143.34 1870.41 161.15
  C 1867.82 163.79 1865.58 165.47 1862.87 167.85
  A 2.28 2.27 46.8 0 0 1862.77 171.17
  L 1961.46 269.86
  A 0.83 0.83 0.0 0 1 1960.89 271.28
  Q 1941.43 271.74 1916.81 271.34
  Q 1914.60 271.31 1912.42 269.07
  Q 1873.73 229.31 1832.00 188.50
  Q 1828.91 185.48 1824.62 184.61
  A 1.02 1.02 0.0 0 0 1823.41 185.71
  Q 1823.92 190.69 1822.46 194.96
  A 5.90 5.76 -35.2 0 0 1822.15 196.64
  Q 1821.68 208.94 1821.68 211.00
  Q 1821.68 256.97 1821.64 270.33
  A 1.09 1.09 0.0 0 1 1820.55 271.42
  L 1784.44 271.42
  A 0.45 0.45 0.0 0 1 1783.99 270.97
  L 1783.99 79.19
  A 1.08 1.08 0.0 0 1 1785.07 78.11
  L 1820.40 78.11
  A 1.21 1.21 0.0 0 1 1821.61 79.31
  Q 1821.74 95.31 1821.66 145.50
  C 1821.66 148.97 1821.56 152.74 1822.94 155.83
  Q 1823.48 157.03 1823.19 159.26
  Q 1823.09 159.99 1823.58 160.44
  A 1.62 1.50 43.1 0 0 1825.77 160.45
  C 1830.28 155.69 1836.22 151.25 1840.86 146.62
  Q 1881.02 106.53 1892.34 95.03
  Q 1895.31 92.02 1899.96 86.80
  Q 1903.67 82.64 1907.65 78.59
  A 1.30 1.29 -69.5 0 1 1908.50 78.20
  C 1916.47 77.61 1928.11 77.89 1946.00 78.01
  Q 1948.87 78.02 1951.72 78.79
  A 0.39 0.38 24.0 0 1 1951.95 79.37
  Z"
/>
<path fill="#ffffff" d="
  M 637.92 78.78
  A 0.72 0.71 0.0 0 1 638.64 78.07
  L 672.94 78.07
  A 2.36 2.36 0.0 0 1 675.30 80.43
  L 675.30 240.60
  A 2.26 2.24 12.2 0 0 676.63 242.65
  Q 678.52 243.49 680.50 243.48
  Q 733.26 243.32 769.68 243.58
  A 1.39 1.39 0.0 0 1 771.06 244.93
  Q 771.31 255.07 771.30 266.25
  Q 771.30 268.87 770.53 270.63
  A 1.32 1.31 11.5 0 1 769.32 271.42
  L 639.48 271.42
  A 1.56 1.56 0.0 0 1 637.92 269.86
  L 637.92 78.78
  Z"
/>
<path fill="#ffffff" d="
  M 798.46 271.44
  A 1.05 1.05 0.0 0 1 797.41 270.39
  L 797.41 81.17
  A 3.11 1.35 90.0 0 1 798.76 78.06
  L 833.52 78.06
  A 3.11 1.35 90.0 0 1 834.87 81.17
  L 834.87 270.39
  A 1.05 1.05 0.0 0 1 833.82 271.44
  L 798.46 271.44
  Z"
/>
<path fill="#ffffff" d="
  M 859.81 78.08
  L 897.12 78.08
  A 1.63 1.62 68.0 0 1 898.29 78.58
  C 899.97 80.33 900.10 82.74 901.06 85.16
  Q 905.35 95.85 909.57 104.75
  Q 913.50 113.05 918.00 124.37
  Q 929.37 153.04 935.01 165.74
  Q 945.04 188.29 948.37 196.13
  Q 954.39 210.30 959.35 221.25
  C 960.52 223.83 963.64 223.85 964.82 220.99
  Q 966.94 215.84 970.14 209.55
  Q 972.07 205.76 975.25 198.03
  Q 981.20 183.52 987.10 168.85
  Q 989.62 162.58 990.64 159.57
  C 992.58 153.82 995.23 149.97 997.06 144.56
  C 998.86 139.26 1003.01 132.21 1004.82 126.79
  Q 1004.91 126.53 1010.32 113.72
  C 1015.54 101.34 1019.53 90.62 1024.58 79.33
  A 2.16 2.12 11.8 0 1 1026.54 78.07
  L 1061.61 78.07
  A 1.04 1.01 69.9 0 1 1062.40 78.45
  Q 1063.40 79.71 1062.64 81.66
  Q 1059.32 90.25 1053.66 100.92
  C 1052.65 102.82 1052.18 105.40 1051.24 107.51
  Q 1044.84 121.86 1035.49 143.26
  Q 1033.99 146.69 1031.72 152.39
  C 1030.19 156.22 1028.00 160.39 1026.44 164.45
  Q 1021.19 178.13 1012.57 195.66
  Q 1009.97 200.95 1006.30 209.52
  C 1003.70 215.59 1000.58 221.86 998.56 228.50
  C 997.22 232.93 994.80 237.21 993.28 241.06
  Q 992.01 244.29 989.89 248.74
  Q 983.64 261.83 981.10 268.33
  Q 979.91 271.37 976.59 271.40
  Q 959.25 271.51 946.28 271.34
  Q 944.22 271.31 942.19 270.25
  A 1.36 1.35 -87.6 0 1 941.55 269.55
  Q 933.94 250.78 925.38 233.14
  Q 924.21 230.72 921.58 223.76
  Q 920.42 220.67 917.75 214.25
  Q 911.45 199.06 908.25 192.76
  C 905.92 188.17 903.73 180.62 900.89 175.63
  C 898.35 171.18 897.15 166.55 894.71 161.73
  Q 890.34 153.09 885.59 142.10
  Q 880.45 130.18 874.23 116.05
  C 873.12 113.53 871.82 109.37 870.19 106.25
  C 867.37 100.89 865.35 97.15 863.34 91.39
  Q 861.17 85.16 858.69 79.82
  A 1.23 1.23 0.0 0 1 859.81 78.08
  Z"
/>
<path fill="#ffffff" d="
  M 1086.45 78.67
  A 0.55 0.54 -0.0 0 1 1087.00 78.13
  Q 1146.34 78.03 1224.47 78.12
  Q 1226.49 78.12 1227.14 80.49
  A 0.81 0.69 40.3 0 1 1227.18 80.73
  L 1227.20 105.73
  A 1.26 1.25 -90.0 0 1 1225.95 106.99
  L 1125.87 106.97
  A 2.24 2.23 -0.1 0 0 1123.63 109.21
  Q 1123.63 109.35 1123.58 155.90
  Q 1123.58 156.71 1123.48 157.58
  Q 1123.25 159.55 1125.24 159.54
  Q 1178.88 159.29 1214.81 159.58
  A 1.27 1.26 83.1 0 1 1216.02 160.54
  Q 1216.41 162.12 1216.53 165.75
  Q 1216.82 173.82 1216.38 186.42
  A 1.49 1.47 84.4 0 1 1215.25 187.81
  Q 1212.02 188.57 1208.50 188.57
  Q 1136.98 188.57 1124.97 188.58
  A 1.39 1.39 0.0 0 0 1123.58 189.97
  L 1123.58 242.36
  A 1.04 1.04 0.0 0 0 1124.40 243.38
  Q 1124.73 243.45 1125.26 243.45
  Q 1155.48 243.44 1208.00 243.43
  Q 1216.53 243.42 1226.25 243.74
  C 1229.17 243.84 1229.85 244.97 1229.90 247.79
  Q 1230.15 262.31 1229.85 268.01
  Q 1229.67 271.47 1226.01 271.46
  Q 1201.68 271.36 1090.27 271.46
  Q 1088.28 271.46 1086.91 270.95
  A 0.70 0.69 10.4 0 1 1086.45 270.30
  L 1086.45 78.67
  Z"
/>
<path fill="#ffffff" d="
  M 1552.50 270.50
  C 1558.71 259.01 1562.32 248.43 1568.20 236.12
  Q 1578.33 214.93 1590.32 187.06
  C 1594.88 176.46 1602.79 161.02 1607.72 149.26
  C 1612.08 138.85 1616.57 130.39 1621.03 119.64
  Q 1627.15 104.90 1638.34 81.36
  C 1639.52 78.86 1640.81 77.91 1643.69 77.91
  Q 1647.57 77.92 1677.18 78.11
  A 0.94 0.93 -11.3 0 1 1678.02 78.66
  Q 1682.64 89.02 1686.03 97.21
  Q 1687.73 101.31 1694.21 113.86
  C 1700.92 126.87 1707.64 144.52 1712.56 154.45
  Q 1716.67 162.75 1718.07 166.27
  Q 1721.27 174.26 1722.44 176.38
  C 1724.88 180.81 1726.13 184.70 1728.94 189.57
  C 1732.35 195.52 1734.25 201.72 1737.27 207.95
  Q 1747.55 229.21 1751.32 238.11
  C 1753.58 243.43 1756.24 248.21 1757.72 251.21
  C 1760.91 257.67 1762.97 264.15 1766.42 270.55
  A 0.52 0.52 0.0 0 1 1765.97 271.32
  Q 1751.62 271.53 1731.76 271.43
  C 1726.45 271.40 1726.01 269.10 1723.83 264.68
  C 1719.31 255.50 1715.31 245.84 1711.72 237.78
  C 1710.03 233.99 1707.39 230.41 1706.56 226.44
  A 1.01 1.00 -2.7 0 0 1705.68 225.65
  Q 1700.36 225.06 1700.25 225.06
  C 1665.30 225.07 1643.39 224.66 1625.27 225.40
  Q 1620.08 225.61 1613.26 225.39
  Q 1611.62 225.33 1610.14 226.38
  A 2.25 2.19 85.3 0 0 1609.41 227.26
  C 1607.67 231.07 1606.29 235.64 1604.88 239.04
  Q 1599.33 252.39 1591.24 269.99
  A 2.58 2.58 0.0 0 1 1588.90 271.49
  L 1553.09 271.49
  A 0.67 0.67 0.0 0 1 1552.50 270.50
  Z
  M 1625.96 197.29
  Q 1634.11 198.23 1635.50 198.23
  Q 1680.94 198.32 1684.00 198.32
  Q 1689.80 198.31 1692.26 197.48
  Q 1694.54 196.71 1693.71 194.27
  Q 1689.40 181.51 1682.83 169.79
  C 1680.63 165.85 1680.09 162.30 1678.05 158.40
  Q 1667.95 139.05 1660.85 120.92
  C 1660.22 119.31 1658.53 118.24 1657.13 118.60
  A 1.41 1.37 4.3 0 0 1656.21 119.37
  Q 1654.22 123.80 1653.55 126.78
  A 7.07 6.71 66.3 0 1 1652.98 128.36
  Q 1650.42 133.45 1646.79 142.07
  Q 1645.03 146.26 1640.52 155.41
  C 1634.54 167.56 1629.74 180.46 1625.05 193.02
  Q 1624.19 195.30 1625.14 196.78
  A 1.13 1.12 76.7 0 0 1625.96 197.29
  Z"
/>
<path fill="#ffffff" d="
  M 92.93 107.17
  Q 94.74 107.45 97.55 108.46
  C 103.07 110.45 107.66 111.90 114.25 112.67
  Q 118.68 113.19 123.50 113.96
  Q 141.56 116.88 153.49 128.97
  C 158.35 133.91 162.34 139.95 164.11 147.10
  Q 165.46 152.53 166.04 156.45
  C 167.19 164.09 161.59 164.39 155.63 163.08
  Q 144.41 160.60 142.94 160.09
  Q 130.77 155.86 122.14 148.36
  Q 115.55 142.64 107.79 132.47
  Q 104.80 128.54 94.66 114.60
  Q 92.39 111.47 92.12 107.92
  A 0.70 0.70 0.0 0 1 92.93 107.17
  Z"
/>
<path fill="#ffffff" d="
  M 341.57 318.43
  Q 342.80 315.81 344.45 313.44
  Q 350.79 304.32 359.31 294.54
  Q 367.21 285.48 379.27 277.28
  Q 386.57 272.32 392.59 270.14
  Q 408.10 264.51 415.52 262.79
  Q 427.01 260.12 434.52 259.98
  Q 442.65 259.83 443.84 259.70
  Q 449.84 259.08 453.17 259.13
  C 460.77 259.26 464.14 259.02 471.60 259.58
  Q 479.42 260.17 494.01 259.56
  C 503.52 259.15 510.62 258.29 517.52 256.28
  Q 520.68 255.35 523.75 255.58
  A 0.38 0.38 0.0 0 1 524.01 256.21
  Q 519.54 261.30 515.08 265.87
  C 510.21 270.85 505.84 275.95 501.49 281.20
  Q 499.26 283.88 495.74 287.04
  Q 481.91 299.47 479.89 301.36
  C 476.12 304.88 472.14 307.45 468.39 310.73
  Q 466.89 312.04 463.44 314.00
  Q 446.72 323.45 428.93 329.11
  C 425.99 330.05 422.94 330.45 419.63 331.17
  Q 418.42 331.44 415.84 331.65
  C 396.44 333.27 377.72 330.05 360.13 322.04
  Q 355.09 319.75 349.03 317.66
  A 3.53 3.51 -50.4 0 0 346.13 317.94
  Q 344.69 318.78 342.12 319.17
  A 0.52 0.52 0.0 0 1 341.57 318.43
  Z"
/>
<path fill="#ffffff" d="
  M 526.11 307.40
  Q 525.58 312.17 526.66 317.13
  A 9.55 9.00 40.8 0 1 526.87 319.18
  C 526.78 326.52 527.03 332.34 526.29 339.91
  Q 525.88 344.11 525.87 349.75
  Q 525.83 440.18 525.85 497.50
  Q 525.85 504.38 525.62 510.83
  A 0.99 0.99 0.0 0 1 524.71 511.78
  Q 513.99 512.56 510.57 512.52
  Q 505.88 512.48 496.47 513.39
  Q 488.36 514.18 478.76 514.24
  Q 438.21 514.47 430.75 514.26
  Q 402.54 513.47 386.72 511.73
  Q 367.55 509.63 346.39 503.80
  Q 331.29 499.64 318.11 492.32
  Q 316.68 491.53 315.78 490.03
  A 2.83 2.78 27.4 0 1 315.40 488.87
  Q 313.97 475.09 318.82 463.60
  Q 325.55 447.64 336.72 434.21
  C 348.39 420.19 360.43 406.68 374.76 396.02
  C 382.33 390.38 389.73 384.04 396.94 379.27
  Q 409.66 370.85 416.73 367.00
  Q 433.19 358.02 435.73 356.33
  C 439.50 353.82 443.84 352.08 447.82 349.22
  A 10.02 9.76 14.1 0 1 449.32 348.35
  C 453.92 346.26 458.96 343.69 463.69 341.79
  Q 472.78 338.13 474.80 336.97
  Q 484.52 331.40 493.13 327.26
  C 498.26 324.79 501.95 322.18 507.73 319.07
  C 514.22 315.57 519.95 311.68 525.71 307.18
  A 0.25 0.25 0.0 0 1 526.11 307.40
  Z"
/>
<path fill="#ffffff" d="
  M 213.30 373.24
  Q 213.34 376.00 212.29 378.06
  Q 205.17 391.90 199.99 402.72
  Q 196.33 410.37 191.33 417.59
  Q 178.48 436.13 163.07 452.20
  Q 156.74 458.80 152.66 461.99
  C 148.20 465.48 143.18 470.29 137.91 474.09
  C 128.53 480.87 117.84 486.72 107.19 491.90
  Q 99.12 495.83 87.78 499.29
  Q 68.86 505.06 53.95 507.61
  Q 44.18 509.28 42.27 509.89
  A 9.28 8.96 33.5 0 1 40.07 510.30
  Q 26.91 511.07 8.75 509.88
  Q 3.84 509.56 3.75 504.76
  Q 3.59 496.70 3.59 486.50
  Q 3.60 439.66 3.60 391.84
  C 3.60 380.91 3.26 371.61 3.53 361.50
  Q 3.87 349.02 4.32 346.58
  Q 5.08 342.44 10.01 342.75
  Q 35.62 344.40 63.76 346.41
  Q 65.78 346.55 67.74 346.72
  Q 93.20 348.87 114.98 351.98
  Q 120.84 352.82 126.42 353.86
  C 134.15 355.30 139.60 355.75 146.26 357.27
  C 150.66 358.27 155.59 358.43 160.30 359.78
  A 6.32 5.74 -31.8 0 0 161.60 360.02
  Q 165.25 360.28 168.01 361.49
  A 7.61 7.58 -31.1 0 0 170.54 362.11
  C 173.19 362.29 175.20 362.19 177.07 363.03
  Q 180.13 364.41 182.63 364.36
  Q 184.80 364.33 187.12 365.32
  Q 189.39 366.28 192.71 366.52
  A 3.63 3.59 -34.0 0 1 193.55 366.68
  L 212.57 372.28
  A 1.01 1.01 0.0 0 1 213.30 373.24
  Z"
/>
<path fill="#ffffff" d="
  M 756.50 375.38
  A 0.77 0.76 -6.0 0 0 755.78 374.81
  Q 748.41 374.58 742.86 374.22
  C 738.73 373.95 735.70 372.49 735.64 368.09
  A 2.29 2.29 0.0 0 1 737.14 365.91
  Q 740.21 364.78 743.50 364.69
  C 752.26 364.44 760.49 363.98 769.83 364.42
  Q 775.65 364.69 783.50 364.52
  Q 785.41 364.48 787.79 364.90
  A 1.98 1.94 -12.5 0 1 789.03 365.67
  Q 790.88 368.16 789.78 371.68
  A 3.30 3.29 -86.7 0 1 787.26 373.93
  Q 781.96 374.97 776.00 375.19
  Q 770.79 375.39 770.56 375.43
  A 1.97 1.96 1.9 0 0 768.90 376.98
  Q 768.22 380.19 768.21 384.00
  Q 768.10 409.52 768.05 417.25
  Q 768.04 418.05 767.69 421.08
  A 1.38 1.37 72.7 0 1 767.23 421.96
  Q 765.85 423.17 764.23 423.02
  C 762.88 422.90 759.94 422.05 758.64 421.14
  A 3.16 3.15 -71.7 0 1 757.31 418.49
  Q 757.74 403.09 757.85 386.84
  Q 757.89 380.84 756.50 375.38
  Z"
/>
<path fill="#ffffff" d="
  M 1150.98 375.65
  C 1144.92 374.66 1138.95 375.42 1133.08 374.51
  A 2.99 2.99 0.0 0 1 1130.65 372.28
  Q 1130.20 370.47 1130.72 366.79
  A 1.49 1.48 -1.1 0 1 1131.93 365.54
  C 1138.58 364.36 1145.12 364.70 1152.62 364.26
  C 1159.63 363.85 1166.27 364.74 1173.33 364.56
  Q 1177.52 364.45 1180.48 364.78
  C 1187.12 365.51 1186.54 373.99 1180.52 374.58
  Q 1172.58 375.36 1166.75 375.17
  Q 1165.90 375.14 1163.47 375.62
  A 1.37 1.37 0.0 0 0 1162.37 376.96
  L 1162.37 421.41
  A 1.65 1.64 86.2 0 1 1160.95 423.04
  Q 1157.20 423.56 1153.63 422.30
  A 1.88 1.87 -80.9 0 1 1152.38 420.56
  L 1151.60 376.37
  A 0.74 0.74 0.0 0 0 1150.98 375.65
  Z"
/>
<path fill="#ffffff" d="
  M 1468.09 422.48
  A 0.56 0.56 0.0 0 1 1467.51 423.09
  C 1460.89 422.79 1457.47 423.57 1454.77 420.50
  Q 1447.94 412.73 1442.43 405.75
  A 3.20 3.18 -2.5 0 0 1441.65 405.04
  Q 1439.02 403.33 1435.73 403.41
  Q 1430.16 403.56 1425.05 403.75
  A 0.36 0.36 0.0 0 0 1424.70 404.08
  Q 1424.08 411.39 1424.09 418.50
  Q 1424.09 419.62 1423.43 421.81
  A 1.97 1.96 -86.7 0 1 1421.92 423.16
  Q 1419.03 423.69 1415.69 422.86
  A 2.38 2.37 -83.2 0 1 1413.88 420.55
  L 1413.88 366.88
  A 2.09 2.09 0.0 0 1 1415.40 364.87
  Q 1417.22 364.35 1420.75 364.36
  Q 1434.91 364.42 1440.44 364.85
  Q 1442.29 365.00 1447.80 366.18
  C 1456.60 368.05 1462.75 372.10 1465.09 381.35
  Q 1465.78 384.06 1465.16 386.15
  Q 1463.10 393.05 1459.07 398.42
  A 1.60 1.20 -10.4 0 1 1458.83 398.68
  L 1453.08 403.36
  A 0.63 0.63 0.0 0 0 1453.03 404.29
  Q 1459.15 410.54 1467.47 421.35
  Q 1468.06 422.11 1468.09 422.48
  Z
  M 1424.11 376.92
  L 1424.29 393.32
  A 1.74 1.74 0.0 0 0 1426.04 395.04
  L 1444.23 394.85
  A 10.57 9.16 -0.6 0 0 1454.71 385.58
  L 1454.69 384.02
  A 10.57 9.16 -0.6 0 0 1444.03 374.97
  L 1425.84 375.16
  A 1.74 1.74 0.0 0 0 1424.11 376.92
  Z"
/>
<path fill="#ffffff" d="
  M 1521.11 375.40
  A 0.75 0.75 0.0 0 0 1520.40 376.15
  L 1520.40 421.66
  A 1.45 1.44 -85.7 0 1 1518.74 423.09
  L 1510.47 421.87
  A 0.67 0.67 0.0 0 1 1509.90 421.15
  Q 1510.70 410.47 1510.04 397.77
  C 1509.69 390.92 1510.41 383.33 1509.60 375.67
  A 0.60 0.60 0.0 0 0 1509.01 375.13
  L 1490.59 374.60
  A 2.42 2.41 -10.1 0 1 1488.43 373.10
  Q 1487.26 370.24 1487.33 368.54
  A 2.79 2.79 0.0 0 1 1488.98 366.09
  Q 1492.08 364.69 1495.75 364.55
  C 1501.99 364.30 1511.84 364.06 1519.42 364.36
  Q 1529.18 364.75 1535.49 364.59
  Q 1538.76 364.50 1540.68 365.58
  A 1.05 1.03 15.0 0 1 1541.21 366.48
  L 1541.21 372.90
  A 0.85 0.84 77.1 0 1 1540.74 373.66
  Q 1538.72 374.69 1537.02 374.76
  Q 1526.21 375.16 1521.11 375.40
  Z"
/>
<path fill="#ffffff" d="
  M 1869.27 372.28
  L 1863.28 378.53
  A 0.24 0.23 28.2 0 1 1863.06 378.59
  Q 1862.95 378.57 1861.24 377.06
  Q 1861.04 376.88 1859.30 376.00
  Q 1849.86 371.27 1839.63 373.83
  Q 1834.05 375.22 1833.41 380.97
  C 1832.87 385.76 1835.52 386.15 1839.54 387.34
  C 1843.50 388.51 1848.09 388.87 1851.50 389.95
  Q 1859.74 392.57 1865.40 395.66
  Q 1868.83 397.54 1870.43 401.94
  A 3.21 3.19 -55.6 0 1 1870.64 403.08
  L 1870.64 409.80
  A 4.73 4.72 -33.3 0 1 1870.25 411.68
  Q 1866.90 419.43 1858.53 421.77
  Q 1857.36 422.09 1852.36 422.87
  C 1841.00 424.65 1830.08 422.14 1820.94 415.46
  A 1.47 1.47 0.0 0 1 1820.77 413.24
  L 1824.81 409.19
  A 1.97 1.97 0.0 0 1 1827.34 408.98
  Q 1834.08 413.76 1842.27 414.39
  C 1846.50 414.71 1851.11 414.78 1855.17 413.71
  Q 1860.45 412.32 1860.17 407.11
  C 1859.79 400.38 1853.60 399.90 1848.70 398.58
  Q 1846.94 398.11 1842.89 397.55
  Q 1835.39 396.50 1831.69 394.60
  Q 1824.82 391.07 1822.00 382.56
  A 3.02 3.01 38.0 0 1 1821.85 381.35
  Q 1822.19 377.37 1823.77 375.31
  Q 1827.46 370.49 1831.20 367.64
  C 1832.99 366.27 1835.75 366.48 1837.46 365.59
  Q 1838.35 365.12 1839.33 364.76
  A 6.19 6.13 -56.2 0 1 1841.25 364.37
  Q 1847.47 364.13 1852.23 364.49
  C 1858.11 364.93 1862.85 367.74 1869.21 371.79
  A 0.32 0.32 0.0 0 1 1869.27 372.28
  Z"
/>
<path fill="#ffffff" d="
  M 970.43 422.01
  A 0.66 0.66 0.0 0 1 969.81 421.35
  L 969.81 366.32
  A 0.64 0.64 0.0 0 1 970.30 365.70
  Q 973.97 364.78 976.25 364.88
  C 982.85 365.17 992.57 364.48 999.70 364.63
  Q 1007.19 364.78 1010.64 364.61
  Q 1013.81 364.45 1015.09 366.15
  A 0.85 0.84 26.2 0 1 1015.27 366.67
  L 1015.27 372.88
  A 0.79 0.77 73.4 0 1 1014.93 373.53
  Q 1013.22 374.74 1011.74 374.78
  Q 999.64 375.18 987.51 375.36
  Q 984.29 375.41 981.80 375.80
  A 2.61 2.60 -4.5 0 0 979.60 378.37
  L 979.60 386.47
  A 2.01 2.00 7.0 0 0 981.12 388.41
  Q 983.46 388.98 989.76 389.05
  Q 993.22 389.09 1003.99 388.78
  Q 1007.39 388.68 1010.73 389.79
  A 0.90 0.89 -81.0 0 1 1011.34 390.64
  L 1011.34 396.45
  A 0.86 0.86 0.0 0 1 1010.49 397.31
  L 981.07 397.83
  A 1.02 1.02 0.0 0 0 980.09 398.62
  C 979.34 401.76 977.68 413.42 982.80 413.95
  C 989.27 414.61 994.62 414.05 1001.48 414.27
  C 1007.50 414.46 1012.52 414.02 1015.48 415.08
  A 1.39 1.38 4.8 0 1 1016.38 416.14
  Q 1016.90 419.06 1016.16 422.12
  A 1.39 1.36 86.4 0 1 1015.33 423.08
  Q 1015.15 423.15 1012.52 423.16
  Q 989.22 423.21 970.43 422.01
  Z"
/>
<path fill="#ffffff" d="
  M 1672.14 398.08
  C 1671.61 402.43 1670.82 409.12 1672.09 413.00
  A 2.17 2.16 -9.1 0 0 1674.15 414.48
  L 1706.89 414.48
  A 2.02 2.02 0.0 0 1 1708.91 416.50
  L 1708.91 420.56
  A 1.61 1.60 87.5 0 1 1707.45 422.16
  Q 1687.57 423.90 1666.26 423.24
  Q 1664.55 423.19 1663.11 422.90
  A 0.91 0.91 0.0 0 1 1662.37 422.01
  L 1662.37 367.02
  A 1.38 1.37 -4.1 0 1 1663.55 365.66
  Q 1670.72 364.67 1677.01 364.79
  C 1684.37 364.93 1687.94 364.60 1696.00 364.55
  Q 1702.38 364.52 1706.99 365.78
  A 0.99 0.99 0.0 0 1 1707.70 366.50
  L 1708.64 370.22
  A 0.84 0.82 -44.3 0 1 1708.63 370.64
  Q 1707.45 374.77 1702.04 375.01
  Q 1692.76 375.42 1686.51 375.20
  Q 1679.23 374.95 1673.19 375.84
  A 1.85 1.84 2.1 0 0 1671.67 377.25
  Q 1670.83 380.88 1671.44 385.04
  Q 1671.80 387.52 1672.07 387.87
  A 1.37 1.36 76.2 0 0 1672.94 388.40
  Q 1676.48 388.96 1681.01 388.93
  Q 1694.34 388.85 1702.25 388.96
  A 2.90 2.90 0.0 0 1 1705.11 391.86
  L 1705.11 394.62
  A 2.93 2.92 -90.0 0 1 1702.19 397.55
  L 1672.73 397.55
  A 0.60 0.59 -86.7 0 0 1672.14 398.08
  Z"
/>
<path fill="#ffffff" d="
  M 1794.27 420.00
  A 1.41 1.41 0.0 0 1 1793.25 422.39
  L 1787.37 422.39
  A 6.35 6.33 68.3 0 1 1782.75 420.39
  Q 1775.31 412.46 1769.33 405.22
  Q 1768.12 403.76 1765.26 403.68
  Q 1760.36 403.53 1752.90 403.76
  A 0.86 0.86 0.0 0 0 1752.07 404.58
  C 1751.66 412.67 1751.76 417.03 1750.52 421.29
  A 2.32 2.32 0.0 0 1 1748.79 422.92
  Q 1745.39 423.67 1743.06 422.77
  A 2.77 2.76 -79.5 0 1 1741.29 420.19
  L 1741.29 367.21
  A 2.64 2.64 0.0 0 1 1743.85 364.57
  Q 1754.73 364.26 1767.56 364.96
  Q 1775.00 365.36 1780.90 367.10
  Q 1787.06 368.92 1790.77 374.75
  C 1796.70 384.07 1790.58 395.97 1782.49 401.89
  A 2.03 2.02 60.4 0 0 1781.82 404.33
  Q 1782.14 405.08 1783.17 406.48
  Q 1789.72 415.25 1794.27 420.00
  Z
  M 1751.70 376.57
  L 1751.85 393.71
  A 1.38 1.38 0.0 0 0 1753.24 395.08
  L 1771.56 394.92
  A 10.80 9.03 -0.5 0 0 1782.28 385.80
  L 1782.26 383.96
  A 10.80 9.03 -0.5 0 0 1771.38 375.02
  L 1753.06 375.18
  A 1.38 1.38 0.0 0 0 1751.70 376.57
  Z"
/>
<path fill="#ffffff" d="
  M 1254.64 423.26
  A 1.24 1.23 0.5 0 1 1253.42 422.03
  L 1253.42 366.43
  A 0.99 0.98 -2.5 0 1 1254.32 365.45
  C 1262.51 364.73 1270.94 364.88 1278.25 364.82
  Q 1279.53 364.81 1285.50 365.47
  Q 1298.12 366.86 1304.75 377.53
  C 1306.00 379.54 1306.31 382.51 1305.95 384.91
  Q 1303.82 399.06 1289.98 403.72
  Q 1288.88 404.10 1282.67 404.79
  C 1276.76 405.45 1270.10 404.86 1265.02 405.06
  A 0.88 0.88 0.0 0 0 1264.17 405.91
  Q 1264.11 407.91 1264.01 419.94
  Q 1263.99 422.21 1261.63 423.30
  A 0.94 0.76 27.7 0 1 1261.28 423.37
  L 1254.64 423.26
  Z
  M 1263.71 375.62
  L 1263.85 395.50
  A 0.37 0.37 0.0 0 0 1264.22 395.87
  L 1283.38 395.73
  A 12.03 8.87 -0.4 0 0 1295.35 386.78
  L 1295.33 383.90
  A 12.03 8.87 -0.4 0 0 1283.24 375.11
  L 1264.08 375.25
  A 0.37 0.37 0.0 0 0 1263.71 375.62
  Z"
/>
<path fill="#ffffff" d="
  M 807.25 423.44
  A 2.06 2.06 0.0 0 1 804.97 420.60
  Q 809.47 410.05 811.65 405.91
  Q 822.34 385.62 829.35 370.58
  Q 830.37 368.41 830.48 366.14
  A 1.02 1.01 1.2 0 1 831.50 365.17
  L 839.47 365.17
  A 4.38 4.37 -13.0 0 1 843.40 367.62
  C 847.96 376.90 851.96 386.99 857.72 397.99
  Q 862.72 407.55 869.65 421.62
  A 0.66 0.65 -12.3 0 1 869.04 422.56
  L 860.73 422.32
  A 2.76 2.75 77.5 0 1 858.33 420.79
  L 854.08 412.26
  A 3.08 3.06 78.8 0 0 851.56 410.56
  Q 838.38 409.55 823.27 410.05
  C 819.44 410.18 817.33 415.76 816.25 418.81
  A 5.82 5.81 4.4 0 1 811.85 422.57
  L 807.25 423.44
  Z
  M 836.68 401.44
  Q 841.33 401.45 846.21 401.13
  A 0.67 0.66 86.2 0 0 846.83 400.41
  Q 846.62 397.41 845.05 393.72
  Q 844.23 391.80 837.55 378.97
  Q 837.23 378.36 836.77 378.36
  Q 836.30 378.36 835.97 378.97
  Q 829.20 391.75 828.37 393.66
  Q 826.77 397.34 826.54 400.34
  A 0.67 0.66 -85.8 0 0 827.16 401.06
  Q 832.03 401.42 836.68 401.44
  Z"
/>
<path fill="#ffffff" d="
  M 898.23 366.65
  A 1.35 1.35 0.0 0 1 899.58 365.30
  L 905.98 365.30
  A 1.57 1.56 89.6 0 1 907.54 366.85
  Q 907.76 383.89 907.66 409.48
  C 907.65 413.93 909.52 414.21 913.41 414.32
  Q 929.49 414.74 938.53 414.74
  A 2.98 2.97 -89.3 0 1 941.51 417.80
  L 941.43 420.36
  A 2.96 2.96 0.0 0 1 938.39 423.24
  L 898.83 422.11
  A 0.63 0.62 -89.1 0 1 898.23 421.48
  L 898.23 366.65
  Z"
/>
<path fill="#ffffff" d="
  M 1094.66 366.56
  A 1.29 1.28 0.5 0 1 1095.95 365.30
  L 1102.66 365.30
  A 1.49 1.48 -3.2 0 1 1104.14 366.61
  Q 1104.44 369.17 1104.53 374.25
  Q 1104.91 395.24 1104.29 417.00
  Q 1104.18 420.55 1102.60 422.85
  A 1.23 1.22 -76.0 0 1 1101.76 423.36
  Q 1098.05 423.85 1095.15 422.40
  C 1092.95 421.30 1090.87 417.81 1089.23 416.21
  Q 1081.87 409.07 1069.98 395.00
  Q 1065.35 389.52 1060.47 385.38
  A 1.53 1.53 0.0 0 0 1057.96 386.63
  Q 1058.78 401.05 1057.64 417.21
  Q 1057.46 419.74 1055.95 421.91
  A 0.96 0.95 17.9 0 1 1055.15 422.31
  L 1048.16 422.11
  A 0.93 0.93 0.0 0 1 1047.26 421.18
  L 1047.26 367.86
  A 1.41 1.40 82.8 0 1 1048.31 366.50
  C 1051.84 365.58 1056.89 365.70 1059.61 368.89
  Q 1075.33 387.29 1085.61 397.77
  Q 1087.99 400.19 1091.38 401.97
  A 1.52 1.52 0.0 0 0 1093.46 401.28
  Q 1094.46 399.19 1094.42 396.75
  Q 1094.37 392.36 1094.66 366.56
  Z"
/>
<path fill="#ffffff" d="
  M 1321.36 421.68
  A 0.53 0.52 -65.5 0 1 1321.07 420.90
  C 1324.08 416.08 1327.54 410.19 1329.97 404.55
  Q 1334.39 394.24 1340.02 384.18
  C 1343.76 377.49 1345.63 373.19 1347.94 366.14
  A 1.25 1.24 -80.9 0 1 1349.12 365.28
  L 1358.23 365.28
  A 2.21 2.20 84.4 0 1 1360.39 367.06
  L 1361.06 370.47
  A 11.39 11.30 -64.4 0 0 1362.10 373.46
  Q 1363.07 375.45 1369.16 386.32
  Q 1371.12 389.83 1375.06 398.47
  Q 1379.56 408.34 1385.50 419.68
  A 1.82 1.82 0.0 0 1 1383.89 422.34
  L 1377.66 422.34
  A 2.84 2.82 -14.6 0 1 1375.19 420.90
  C 1372.88 416.77 1371.32 410.02 1365.50 409.97
  Q 1351.25 409.83 1341.75 410.10
  C 1337.30 410.22 1335.56 414.13 1333.04 418.27
  Q 1332.05 419.89 1329.61 421.87
  A 2.13 2.06 21.5 0 1 1328.53 422.32
  Q 1324.67 422.76 1321.36 421.68
  Z
  M 1342.87 398.71
  A 1.94 1.94 0.0 0 0 1344.63 401.51
  L 1362.74 401.32
  A 1.94 1.94 0.0 0 0 1364.43 398.48
  L 1355.20 380.88
  A 1.94 1.94 0.0 0 0 1351.74 380.91
  L 1342.87 398.71
  Z"
/>
<path fill="#ffffff" d="
  M 1581.70 383.11
  A 1.27 1.27 0.0 0 0 1580.08 383.99
  Q 1579.60 385.76 1579.74 388.25
  C 1579.99 392.39 1580.31 395.38 1580.15 399.58
  Q 1579.74 410.01 1580.07 420.90
  A 1.25 1.25 0.0 0 1 1578.82 422.19
  L 1571.31 422.19
  A 1.19 1.19 0.0 0 1 1570.14 421.23
  L 1569.56 418.15
  A 2.27 2.09 42.6 0 1 1569.53 417.79
  L 1570.11 366.75
  A 1.10 1.09 -8.5 0 1 1570.88 365.72
  Q 1574.32 364.67 1577.03 365.54
  Q 1578.72 366.09 1581.93 369.21
  Q 1589.87 376.94 1597.27 386.00
  Q 1600.65 390.13 1604.71 394.44
  Q 1612.01 402.18 1612.29 402.37
  Q 1615.21 404.45 1616.22 402.93
  A 0.09 0.04 -47.4 0 0 1616.24 402.88
  L 1616.50 368.30
  A 2.94 2.94 0.0 0 1 1619.39 365.38
  L 1624.21 365.29
  A 2.52 2.52 0.0 0 1 1626.77 367.78
  Q 1627.08 398.88 1626.87 418.89
  Q 1626.85 420.60 1625.59 422.62
  A 1.29 1.27 -80.1 0 1 1624.81 423.18
  Q 1619.70 424.43 1616.44 421.35
  Q 1612.45 417.57 1609.68 414.33
  Q 1600.69 403.84 1592.13 394.88
  C 1588.85 391.44 1585.25 386.71 1582.36 383.73
  Q 1581.80 383.14 1581.70 383.11
  Z"
/>
<path fill="#ffffff" d="
  M 613.25 392.84
  Q 614.18 389.08 618.47 389.05
  Q 645.64 388.84 683.00 388.97
  Q 693.03 389.01 706.06 389.91
  A 2.49 2.49 0.0 0 1 708.37 392.46
  L 708.35 392.96
  A 1.67 1.66 89.3 0 1 706.78 394.58
  Q 693.47 395.33 681.00 395.42
  Q 646.95 395.65 617.26 395.51
  Q 614.69 395.49 613.43 393.77
  A 1.11 1.10 -56.3 0 1 613.25 392.84
  Z"
/>
<path fill="#ffffff" d="
  M 1903.84 395.11
  A 1.49 1.49 0.0 0 1 1902.78 392.62
  L 1903.72 391.58
  A 5.21 5.19 -69.5 0 1 1907.38 389.90
  C 1917.23 389.60 1926.25 388.89 1935.95 388.89
  Q 1969.15 388.90 1995.28 389.08
  A 3.94 3.94 0.0 0 1 1999.08 392.07
  L 1999.16 392.36
  A 2.42 2.41 -7.1 0 1 1996.82 395.36
  C 1951.60 395.47 1929.40 395.82 1903.84 395.11
  Z"
/>
<path fill="#ffffff" d="
  M 352.78 529.87
  A 0.51 0.51 0.0 0 1 352.47 530.79
  Q 342.81 530.80 334.25 531.07
  Q 328.50 531.25 325.75 531.48
  Q 319.06 532.04 317.25 531.80
  C 310.59 530.90 302.75 531.24 297.24 530.56
  Q 277.66 528.16 263.00 518.51
  C 257.52 514.91 252.39 507.75 251.16 500.86
  C 250.56 497.44 249.03 493.98 249.14 490.32
  Q 249.35 483.36 252.38 476.90
  Q 254.27 472.87 259.73 467.49
  Q 263.88 463.41 268.32 458.08
  Q 278.60 445.74 284.34 438.80
  C 290.73 431.08 295.88 423.70 299.91 415.18
  Q 303.41 407.76 307.23 399.53
  Q 307.68 398.57 308.96 398.20
  A 0.34 0.34 0.0 0 1 309.38 398.59
  Q 304.97 419.11 303.84 422.32
  Q 296.93 441.96 293.24 457.41
  Q 291.36 465.27 290.90 466.79
  A 6.38 6.26 -35.5 0 0 290.63 468.32
  Q 290.25 474.95 290.23 481.92
  Q 290.21 488.62 292.43 494.58
  Q 298.88 511.91 316.41 519.56
  Q 329.66 525.34 343.37 526.98
  C 346.08 527.31 350.99 528.50 352.78 529.87
  Z"
/>
<path fill="#ffffff" d="
  M 187.48 525.57
  L 192.43 524.04
  A 15.73 14.78 -32.6 0 0 194.50 523.24
  C 196.57 522.27 199.98 520.21 203.41 518.90
  Q 216.15 514.01 226.79 507.27
  A 0.18 0.18 0.0 0 1 227.02 507.31
  L 233.51 515.27
  A 3.20 2.67 3.0 0 0 234.07 515.79
  Q 240.94 520.66 244.95 524.51
  Q 245.90 525.42 245.88 526.49
  A 0.61 0.61 0.0 0 1 245.21 527.09
  Q 238.68 526.48 233.33 527.22
  Q 227.81 527.99 223.20 527.97
  Q 200.91 527.87 193.74 528.02
  C 192.03 528.06 190.46 528.30 188.91 528.71
  A 1.11 1.11 0.0 0 1 187.61 528.06
  L 187.00 526.59
  A 0.77 0.77 0.0 0 1 187.48 525.57
  Z"
/>
</svg>
