<?xml version="1.0" encoding="UTF-8" standalone="no"?>
<!DOCTYPE svg PUBLIC "-//W3C//DTD SVG 1.1//EN" "http://www.w3.org/Graphics/SVG/1.1/DTD/svg11.dtd">
<svg xmlns="http://www.w3.org/2000/svg" version="1.1" viewBox="0.00 0.00 2000.00 1475.00">
<path fill="#ffffff" d="
  M 1166.17 13.65
  Q 1166.61 15.43 1166.33 16.78
  Q 1165.19 22.14 1165.10 26.01
  A 3.03 3.03 0.0 0 1 1164.92 26.98
  Q 1161.73 35.58 1160.92 36.91
  A 4.33 4.30 65.8 0 0 1160.38 38.35
  Q 1159.53 43.19 1156.58 49.48
  C 1155.17 52.49 1154.30 55.95 1152.58 58.84
  Q 1147.79 66.93 1147.10 67.92
  A 8.87 8.63 86.5 0 1 1146.05 69.14
  C 1142.97 72.14 1140.87 75.56 1138.26 78.55
  C 1126.58 91.92 1115.92 103.22 1101.69 111.93
  C 1093.04 117.23 1085.37 122.41 1076.53 125.42
  Q 1073.04 126.60 1068.24 128.61
  Q 1047.66 137.22 1026.72 140.15
  Q 1017.08 141.51 999.51 142.48
  A 2.73 2.49 30.6 0 0 998.69 142.65
  L 994.99 144.09
  A 0.69 0.69 0.0 0 1 994.15 143.10
  L 997.52 137.43
  A 0.63 0.15 -76.7 0 0 997.58 137.31
  Q 1005.49 118.88 1005.74 118.27
  Q 1012.41 102.19 1017.94 91.16
  Q 1027.47 72.13 1041.21 54.71
  Q 1046.83 47.60 1054.18 40.69
  Q 1067.57 28.11 1075.45 21.71
  Q 1082.84 15.71 1086.51 14.24
  Q 1089.46 13.05 1097.54 13.12
  Q 1139.50 13.46 1165.63 13.24
  A 0.56 0.55 -7.4 0 1 1166.17 13.65
  Z"
/>
<path fill="#ffffff" d="
  M 652.56 13.34
  Q 718.11 13.35 729.00 13.24
  Q 733.29 13.20 747.52 13.49
  C 752.64 13.59 754.94 17.05 757.88 20.63
  Q 766.29 30.83 776.41 46.77
  Q 783.39 57.76 788.02 68.79
  Q 791.49 77.04 797.96 93.00
  C 798.36 93.99 798.48 95.16 798.69 96.30
  A 4.94 4.83 -65.7 0 0 799.22 97.75
  C 801.24 101.39 802.40 106.54 803.80 109.49
  Q 805.47 113.02 808.57 117.43
  Q 809.67 118.99 809.63 120.66
  A 1.20 1.19 14.9 0 1 807.86 121.68
  L 797.95 116.29
  A 4.38 4.31 -25.5 0 0 796.61 115.83
  Q 793.08 115.22 792.12 114.87
  Q 787.65 113.26 781.88 112.36
  C 775.32 111.34 769.47 108.07 762.93 105.34
  C 759.08 103.74 751.80 101.13 746.87 98.14
  Q 735.71 91.37 732.61 89.70
  C 725.63 85.96 721.13 82.02 714.27 77.44
  C 705.66 71.69 696.60 63.59 690.54 57.58
  C 676.50 43.70 664.05 31.17 654.94 19.06
  Q 653.69 17.40 652.10 14.05
  A 0.50 0.50 0.0 0 1 652.56 13.34
  Z"
/>
<path fill="#ffffff" d="
  M 869.63 187.37
  Q 880.06 195.51 884.92 204.33
  Q 888.07 210.08 892.24 219.64
  C 893.87 223.40 894.82 224.68 897.02 228.29
  A 5.65 5.29 -71.7 0 1 897.51 229.35
  L 900.85 239.54
  A 1.65 1.59 22.0 0 0 901.02 239.92
  C 903.76 244.55 906.66 252.28 911.38 257.11
  C 916.27 262.12 923.10 267.79 930.12 270.90
  Q 932.47 271.94 935.42 271.81
  A 1.69 1.69 0.0 0 0 937.03 270.21
  Q 938.67 239.75 930.41 211.10
  Q 927.66 201.53 921.96 191.05
  Q 918.00 183.75 910.15 173.60
  Q 907.74 170.48 897.36 156.75
  C 891.03 148.37 885.66 137.47 876.89 131.36
  C 871.76 127.79 866.55 125.19 861.84 121.67
  C 855.66 117.04 848.19 112.43 843.66 104.84
  Q 839.56 97.97 836.46 92.06
  Q 834.57 88.45 832.15 79.85
  Q 830.47 73.90 830.26 67.01
  Q 829.87 53.99 830.60 47.27
  Q 832.29 31.73 837.94 18.48
  Q 840.03 13.59 845.22 13.42
  Q 862.41 12.84 880.44 13.56
  A 1.18 1.17 -12.1 0 1 881.44 14.20
  Q 882.76 16.80 883.46 20.01
  Q 886.87 35.59 890.34 50.15
  C 892.37 58.66 892.42 67.41 892.17 77.06
  C 891.93 86.57 890.07 95.83 887.24 104.99
  Q 883.92 115.73 881.49 123.59
  A 2.64 2.60 45.9 0 0 881.48 125.06
  Q 882.20 127.64 884.24 129.66
  Q 902.48 147.78 915.60 160.51
  C 918.46 163.29 922.22 167.52 925.16 171.21
  Q 940.30 190.23 945.43 197.25
  Q 947.54 200.14 948.00 201.10
  A 1.66 1.66 0.0 0 0 950.78 201.44
  C 956.02 195.05 958.49 187.78 960.38 179.71
  Q 961.60 174.48 962.01 171.36
  C 962.76 165.64 963.70 161.51 964.17 155.51
  Q 965.08 143.94 967.17 133.14
  C 969.71 119.95 973.25 108.92 980.73 98.58
  A 1.59 1.42 -47.6 0 1 983.10 98.34
  C 984.54 100.08 982.62 104.66 981.66 108.20
  C 980.20 113.59 980.21 120.19 979.48 124.95
  Q 978.76 129.66 978.41 135.07
  Q 977.16 154.39 977.26 159.50
  Q 977.44 168.07 976.71 172.69
  Q 975.47 180.67 975.28 183.73
  Q 974.95 189.17 973.50 194.63
  Q 973.28 195.45 970.02 209.68
  Q 968.08 218.13 967.57 224.88
  Q 965.95 246.11 968.42 263.80
  Q 969.07 268.49 970.62 273.23
  C 972.28 278.34 973.19 283.58 975.59 288.70
  Q 986.78 312.51 999.28 331.86
  Q 1001.73 335.66 1003.11 339.03
  Q 1005.91 345.90 1010.23 350.84
  A 2.76 2.67 13.8 0 1 1010.69 351.57
  L 1012.06 354.65
  A 1.14 1.12 -3.2 0 0 1012.79 355.29
  Q 1015.38 356.01 1017.17 353.64
  C 1021.89 347.37 1025.57 339.05 1029.25 331.77
  Q 1039.34 311.79 1046.15 288.73
  C 1049.13 278.63 1050.52 269.77 1052.35 259.14
  C 1053.18 254.24 1051.91 250.04 1047.11 247.87
  C 1042.09 245.61 1039.20 246.05 1032.29 245.75
  C 1024.27 245.40 1015.47 242.21 1008.98 238.33
  Q 1002.16 234.26 998.51 225.74
  Q 993.88 214.90 992.75 203.72
  C 992.37 199.94 991.46 198.16 989.90 194.44
  A 0.66 0.66 0.0 0 1 990.34 193.54
  Q 990.49 193.50 991.08 193.67
  C 994.52 194.68 998.64 198.60 1001.83 199.88
  Q 1002.66 200.21 1009.44 204.06
  Q 1011.08 204.99 1015.29 205.73
  Q 1017.97 206.20 1024.28 210.79
  Q 1033.51 217.51 1039.58 227.46
  C 1044.03 234.76 1047.40 239.51 1052.63 243.72
  A 1.59 1.59 0.0 0 0 1054.91 243.42
  Q 1056.39 241.41 1056.82 239.34
  C 1058.05 233.48 1061.07 222.10 1063.33 212.01
  C 1066.62 197.35 1074.13 183.82 1084.02 172.25
  C 1086.78 169.02 1090.33 170.68 1093.28 168.31
  A 1.44 1.44 0.0 0 1 1094.62 168.05
  L 1095.09 168.19
  A 0.50 0.49 -53.6 0 1 1095.22 169.07
  L 1092.74 170.79
  A 4.40 4.35 -88.0 0 0 1091.84 171.64
  Q 1085.50 179.67 1083.77 184.26
  C 1080.73 192.31 1078.20 198.20 1076.72 205.76
  Q 1074.95 214.79 1074.09 223.10
  C 1073.66 227.26 1074.32 233.66 1073.09 237.89
  C 1071.64 242.84 1070.26 246.03 1071.61 249.88
  A 1.56 1.56 0.0 0 0 1073.75 250.78
  Q 1075.55 249.93 1076.90 247.89
  Q 1080.79 242.03 1084.07 238.82
  C 1096.28 226.87 1103.91 218.14 1117.46 202.35
  Q 1122.72 196.22 1125.90 191.62
  C 1132.35 182.28 1137.96 173.53 1142.46 163.21
  C 1144.72 158.04 1147.13 150.58 1150.12 144.42
  C 1153.13 138.23 1156.47 131.89 1158.71 125.62
  C 1160.84 119.64 1163.63 114.50 1166.03 108.43
  C 1168.55 102.06 1170.53 97.13 1173.35 92.62
  Q 1174.38 90.97 1175.86 90.19
  A 0.41 0.41 0.0 0 1 1176.46 90.57
  L 1175.98 100.96
  A 2.52 2.38 56.0 0 1 1175.87 101.62
  Q 1172.58 112.36 1170.78 117.70
  Q 1167.65 126.95 1166.39 132.59
  C 1164.51 140.97 1163.44 145.32 1161.06 152.61
  Q 1158.53 160.35 1155.15 169.83
  C 1154.58 171.43 1154.35 172.81 1153.94 174.67
  C 1153.56 176.43 1152.42 178.02 1152.53 180.21
  A 1.68 1.47 -5.4 0 0 1154.41 181.57
  C 1156.81 181.27 1159.59 177.97 1161.81 175.83
  A 12.29 12.15 6.3 0 1 1163.82 174.24
  Q 1169.88 170.41 1174.08 163.73
  A 4.89 4.57 -6.8 0 1 1174.93 162.72
  L 1178.47 159.52
  A 1.00 1.00 0.0 0 1 1180.09 159.95
  C 1180.90 162.45 1179.01 167.76 1178.31 170.36
  C 1176.13 178.50 1169.26 185.49 1163.89 192.07
  C 1161.22 195.35 1158.34 198.30 1154.67 200.71
  C 1147.03 205.72 1143.10 208.18 1138.05 213.55
  Q 1118.98 233.84 1104.98 258.90
  A 9.62 9.55 67.4 0 0 1104.14 260.96
  Q 1103.56 263.06 1102.30 267.07
  Q 1102.01 267.99 1102.17 268.73
  A 1.40 1.40 0.0 0 0 1103.93 269.77
  Q 1109.88 268.02 1113.11 266.94
  Q 1115.77 266.06 1121.76 262.66
  Q 1149.38 247.01 1169.45 222.48
  C 1172.48 218.79 1175.46 214.69 1177.73 209.59
  C 1179.66 205.28 1185.34 194.37 1187.75 186.26
  Q 1191.87 172.43 1195.10 164.57
  Q 1195.47 163.65 1198.34 157.85
  Q 1200.82 152.80 1201.91 151.30
  Q 1211.93 137.49 1219.59 130.56
  Q 1226.03 124.74 1246.51 107.27
  Q 1251.73 102.82 1256.62 100.29
  C 1259.49 98.81 1260.78 97.50 1263.26 96.01
  Q 1264.58 95.22 1264.96 95.18
  A 1.82 1.82 0.0 0 1 1266.55 98.17
  Q 1264.78 100.21 1263.24 101.49
  Q 1254.81 108.49 1246.88 117.13
  C 1235.69 129.32 1221.31 141.73 1214.26 155.50
  Q 1210.14 163.55 1209.11 164.78
  A 2.83 2.69 73.6 0 0 1208.53 165.91
  C 1208.03 167.98 1207.97 169.98 1207.06 171.78
  Q 1205.11 175.60 1205.33 179.40
  A 4.75 4.65 54.7 0 1 1205.01 181.40
  L 1202.90 186.65
  A 1.96 1.91 55.6 0 0 1202.77 187.40
  Q 1202.92 192.19 1201.94 198.26
  Q 1201.75 199.40 1200.17 203.10
  A 2.98 2.95 -33.4 0 0 1199.92 204.29
  L 1199.92 209.16
  A 1.37 1.37 0.0 0 0 1201.74 210.45
  C 1207.55 208.37 1213.05 204.69 1220.49 205.24
  Q 1221.29 205.30 1225.06 203.44
  A 9.49 9.46 -64.3 0 1 1227.08 202.73
  Q 1229.77 202.14 1232.33 200.96
  C 1234.78 199.84 1235.94 199.89 1238.52 199.74
  A 8.45 8.24 -53.8 0 0 1240.37 199.43
  Q 1246.73 197.66 1250.02 197.47
  Q 1255.07 197.18 1256.64 196.83
  C 1262.29 195.58 1267.56 195.15 1273.25 194.85
  Q 1287.92 194.08 1288.52 193.99
  Q 1291.76 193.51 1294.50 195.53
  A 0.47 0.47 0.0 0 1 1294.35 196.36
  L 1245.19 210.84
  A 2.14 1.89 30.1 0 1 1244.84 210.91
  Q 1240.16 211.37 1237.12 212.87
  Q 1224.46 219.14 1216.03 222.38
  C 1213.16 223.48 1210.77 225.16 1208.42 226.69
  Q 1203.42 229.95 1175.22 250.72
  Q 1174.10 251.55 1170.98 254.74
  C 1168.38 257.40 1165.72 259.65 1168.44 262.88
  C 1171.63 266.66 1175.45 265.77 1179.34 267.50
  C 1182.13 268.73 1186.14 269.42 1189.77 270.71
  Q 1198.52 273.81 1206.81 274.90
  C 1211.94 275.57 1214.72 276.47 1217.95 273.46
  Q 1227.65 264.42 1237.39 252.66
  C 1242.38 246.63 1249.29 243.10 1255.40 238.57
  Q 1258.60 236.20 1262.58 234.03
  Q 1274.12 227.73 1286.22 224.02
  Q 1291.96 222.26 1292.43 221.93
  A 2.08 1.98 21.3 0 1 1293.18 221.62
  Q 1297.15 220.88 1302.10 219.48
  C 1304.99 218.67 1308.28 218.53 1310.68 217.67
  C 1314.64 216.24 1319.13 215.68 1323.06 214.59
  Q 1327.26 213.43 1331.18 213.29
  A 2.09 2.08 -2.5 0 1 1333.34 215.26
  Q 1333.91 225.77 1333.96 238.76
  Q 1334.02 255.51 1333.91 296.21
  A 2.98 2.97 -9.9 0 1 1331.94 299.01
  Q 1324.21 301.81 1314.16 304.56
  Q 1305.95 306.81 1297.14 307.05
  Q 1277.54 307.59 1262.16 304.82
  Q 1257.06 303.90 1254.97 303.23
  C 1251.67 302.19 1249.19 301.83 1245.54 300.54
  Q 1234.41 296.61 1221.78 289.78
  Q 1216.60 286.98 1208.10 283.88
  A 10.64 10.49 -32.9 0 0 1205.06 283.25
  Q 1191.91 282.49 1175.79 279.24
  Q 1168.18 277.70 1162.98 275.59
  A 4.09 4.05 57.2 0 0 1161.76 275.32
  C 1155.76 274.94 1152.83 274.50 1148.48 275.61
  A 3.31 3.25 -71.3 0 0 1147.20 276.26
  L 1124.58 294.89
  A 2.91 2.42 5.2 0 1 1124.26 295.11
  Q 1120.65 297.26 1118.18 299.40
  C 1112.35 304.44 1105.79 309.01 1100.68 313.93
  Q 1092.54 321.77 1087.41 326.91
  Q 1075.93 338.42 1070.03 353.01
  Q 1066.41 361.98 1064.44 364.65
  A 3.46 3.41 -22.2 0 0 1063.82 366.09
  L 1063.25 369.26
  A 5.77 5.72 63.2 0 1 1062.76 370.77
  C 1060.98 374.38 1060.81 377.78 1059.27 381.36
  Q 1058.12 384.07 1057.99 388.01
  A 3.89 3.77 56.6 0 1 1057.77 389.17
  L 1056.53 392.72
  A 3.55 3.53 58.9 0 0 1056.35 393.46
  L 1054.85 403.96
  A 3.55 3.09 -34.7 0 1 1054.66 404.71
  C 1053.05 409.17 1052.99 413.27 1052.55 418.51
  Q 1052.21 422.49 1051.49 426.63
  Q 1050.48 432.41 1049.22 442.94
  Q 1049.01 444.74 1045.37 454.15
  Q 1044.95 455.23 1044.75 458.34
  A 11.18 10.94 58.2 0 1 1044.00 461.71
  C 1042.50 465.49 1042.01 469.31 1040.09 472.86
  C 1039.45 474.06 1039.30 476.89 1038.74 478.59
  Q 1036.45 485.51 1034.79 492.00
  Q 1033.40 497.41 1031.56 501.24
  C 1029.40 505.73 1027.57 509.22 1026.18 513.17
  Q 1023.66 520.27 1019.60 527.05
  C 1015.20 534.39 1012.50 542.44 1007.92 549.60
  Q 1004.31 555.24 1003.82 556.10
  C 995.69 570.14 986.43 581.80 974.70 596.70
  Q 963.10 611.42 948.82 624.85
  C 942.49 630.79 936.90 634.66 929.18 640.92
  Q 927.18 642.55 918.81 647.58
  C 910.72 652.44 903.84 657.81 896.05 662.11
  C 887.76 666.69 876.20 670.89 868.93 673.91
  Q 868.66 674.03 866.39 674.61
  A 13.19 12.80 -63.2 0 0 864.42 675.29
  Q 856.88 678.60 851.34 679.57
  Q 844.59 680.76 842.04 681.87
  A 6.72 6.71 -59.1 0 1 839.89 682.41
  Q 835.24 682.77 831.71 684.47
  A 4.80 4.74 -62.1 0 1 830.37 684.89
  Q 827.46 685.36 821.49 687.14
  C 818.59 688.00 816.65 687.90 813.91 687.95
  A 24.72 23.44 -43.1 0 0 810.50 688.27
  Q 798.93 690.19 792.75 690.30
  Q 765.72 690.81 740.75 690.54
  Q 729.12 690.41 725.94 690.54
  C 718.88 690.82 713.83 690.45 705.19 690.07
  Q 701.92 689.93 697.41 688.68
  Q 696.47 688.42 696.26 687.81
  A 0.65 0.60 -4.7 0 1 696.97 687.03
  Q 700.24 687.42 703.72 687.07
  Q 718.49 685.58 743.68 680.90
  Q 750.57 679.61 755.34 677.94
  C 759.37 676.53 763.72 676.74 767.40 674.92
  Q 768.69 674.28 772.18 673.89
  Q 774.38 673.64 776.84 672.42
  C 778.59 671.56 780.02 671.35 782.10 670.88
  A 2.29 1.17 -4.6 0 0 782.39 670.79
  L 797.33 664.98
  A 2.08 1.75 16.3 0 0 797.67 664.83
  L 809.99 658.55
  A 7.80 7.57 22.6 0 1 811.41 657.99
  Q 815.88 656.73 816.61 656.13
  Q 821.73 651.95 822.70 651.45
  Q 837.00 644.10 843.15 639.88
  Q 849.43 635.58 860.58 626.33
  C 864.63 622.97 869.02 619.99 872.22 616.97
  C 886.83 603.16 898.14 591.62 908.34 577.10
  Q 916.32 565.73 922.13 557.14
  Q 939.92 530.85 950.75 504.00
  Q 955.19 492.98 965.59 463.67
  A 14.99 14.93 57.5 0 0 966.42 459.90
  Q 966.93 454.39 968.98 447.76
  Q 969.43 446.32 968.98 439.94
  A 4.55 4.45 -61.2 0 0 968.51 438.26
  Q 967.16 435.58 966.46 431.49
  A 9.75 9.26 31.0 0 0 965.96 429.69
  C 961.63 418.46 955.22 407.13 947.28 397.82
  Q 945.43 395.65 940.79 389.99
  Q 935.99 384.12 926.96 375.78
  Q 921.96 371.16 912.28 365.18
  Q 908.66 362.95 905.04 363.89
  Q 901.42 364.83 901.38 364.83
  C 894.24 365.68 886.98 365.24 880.30 368.00
  A 1.40 1.27 -54.8 0 1 879.85 368.10
  L 867.10 368.71
  A 1.67 1.42 -49.7 0 0 866.80 368.76
  L 861.16 370.33
  A 2.89 2.80 34.5 0 1 860.63 370.42
  L 842.95 371.40
  A 2.65 2.62 14.5 0 0 840.89 372.60
  Q 836.55 379.35 832.01 384.02
  Q 821.93 394.37 813.33 402.80
  A 7.06 6.81 -81.6 0 1 812.11 403.74
  Q 804.39 408.47 801.99 409.51
  C 794.18 412.91 789.15 415.54 782.58 417.40
  Q 770.63 420.79 762.50 421.25
  Q 753.27 421.77 721.88 421.33
  Q 720.15 421.30 718.29 420.86
  Q 711.62 419.27 706.16 418.79
  A 11.55 11.30 56.3 0 1 703.50 418.23
  Q 698.05 416.37 692.65 416.39
  A 12.04 11.95 -35.9 0 1 688.87 415.80
  Q 678.39 412.38 659.55 406.97
  Q 655.24 405.73 651.09 404.91
  A 0.74 0.74 0.0 0 1 650.49 404.16
  Q 650.76 396.87 650.46 387.59
  C 650.14 377.52 650.84 369.88 650.93 360.25
  Q 650.95 358.51 652.31 354.23
  A 0.54 0.53 -71.1 0 1 653.01 353.88
  Q 671.06 360.66 689.83 363.83
  Q 696.04 364.88 701.23 364.95
  Q 709.17 365.06 712.73 365.39
  C 716.23 365.71 720.05 364.71 723.74 365.11
  C 731.17 365.93 739.67 364.97 747.17 364.88
  Q 754.83 364.78 756.98 364.22
  C 760.87 363.20 765.41 363.61 769.82 362.62
  A 11.45 11.00 -49.2 0 1 772.68 362.35
  Q 780.94 362.63 786.33 361.54
  A 5.57 5.40 44.7 0 1 788.60 361.56
  C 793.91 362.76 800.84 362.11 805.16 362.56
  Q 808.50 362.90 820.25 363.27
  C 828.76 363.53 835.34 363.32 843.88 361.90
  Q 859.71 359.28 871.38 356.24
  Q 879.24 354.18 879.32 354.17
  Q 881.87 353.87 884.69 352.51
  C 887.29 351.27 890.59 352.02 892.97 348.95
  C 894.22 347.34 892.59 345.38 891.41 344.38
  Q 884.22 338.34 879.18 333.58
  Q 877.30 331.79 873.15 329.35
  C 866.19 325.24 859.94 321.98 854.12 318.30
  Q 848.57 314.79 841.42 311.07
  Q 836.06 308.28 830.73 310.70
  Q 826.52 312.60 812.63 321.05
  C 808.16 323.77 804.68 324.64 799.36 326.31
  C 793.65 328.10 787.74 331.66 782.83 333.05
  Q 777.37 334.58 774.28 335.84
  A 6.94 6.89 32.6 0 1 771.97 336.34
  Q 765.97 336.59 759.16 338.47
  A 12.85 12.43 36.5 0 1 755.70 338.93
  Q 742.27 338.82 731.50 339.24
  Q 726.79 339.42 721.00 339.08
  C 716.35 338.81 711.76 339.08 707.04 338.24
  Q 699.33 336.86 689.54 336.05
  A 2.52 2.30 -31.7 0 1 688.96 335.94
  L 652.74 324.82
  A 3.03 3.02 -81.8 0 1 650.61 321.97
  Q 650.14 283.58 650.81 244.03
  Q 650.84 241.85 651.66 240.72
  A 1.95 1.95 0.0 0 1 653.76 239.98
  C 660.94 241.95 667.34 244.41 674.90 246.07
  Q 679.50 247.08 683.06 249.17
  A 3.65 3.62 67.9 0 0 683.95 249.55
  L 695.73 252.88
  A 2.81 2.35 50.1 0 0 696.23 252.97
  Q 700.78 253.38 705.64 255.04
  A 10.97 10.83 56.3 0 0 708.20 255.57
  C 718.01 256.36 727.42 258.38 737.29 259.26
  Q 745.02 259.95 761.92 262.45
  C 770.35 263.70 778.56 266.58 786.71 268.58
  Q 790.69 269.55 794.10 270.89
  Q 800.36 273.34 808.83 277.12
  Q 810.79 277.99 813.23 277.26
  A 0.62 0.62 0.0 0 0 813.65 276.47
  Q 813.13 274.86 811.83 273.64
  A 0.66 0.66 0.0 0 1 811.97 272.57
  C 814.80 271.05 817.00 272.58 819.07 274.96
  Q 821.83 278.14 825.42 280.72
  Q 832.12 285.54 837.06 288.65
  C 842.08 291.82 847.44 293.22 852.41 296.48
  C 860.10 301.51 870.13 307.72 880.19 312.77
  C 892.69 319.06 904.48 326.28 913.68 332.47
  Q 920.19 336.85 939.47 351.31
  Q 945.38 355.75 952.71 362.13
  Q 961.50 369.78 966.19 372.62
  Q 968.55 374.05 970.54 372.98
  C 972.59 371.88 971.33 368.48 970.40 366.97
  A 3.69 3.60 -63.1 0 1 969.86 365.24
  Q 969.69 361.85 968.86 358.15
  Q 962.70 330.68 942.70 311.18
  C 927.68 296.53 920.93 289.68 907.29 279.05
  Q 893.06 267.97 886.49 263.29
  C 876.44 256.12 864.55 251.55 853.15 245.40
  Q 842.14 239.46 830.99 233.49
  Q 824.55 230.05 811.26 222.05
  Q 807.28 219.66 805.69 219.40
  A 0.49 0.49 0.0 0 1 805.67 218.43
  C 808.02 217.97 812.47 218.58 815.23 219.51
  Q 828.09 223.82 839.09 226.83
  Q 849.31 229.61 857.19 232.84
  Q 871.44 238.68 874.83 240.18
  C 877.08 241.17 881.48 243.03 883.84 241.93
  A 1.95 1.95 0.0 0 0 884.96 239.91
  Q 882.23 218.19 872.62 197.88
  Q 870.26 192.89 869.21 187.63
  A 0.26 0.26 0.0 0 1 869.63 187.37
  Z
  M 1249.28 277.36
  L 1263.38 272.86
  A 0.86 0.86 0.0 0 0 1263.93 271.78
  L 1263.61 270.77
  A 2.75 2.00 -17.7 0 0 1260.38 269.70
  L 1249.88 273.05
  A 2.75 2.00 -17.7 0 0 1247.87 275.79
  L 1248.20 276.80
  A 0.86 0.86 0.0 0 0 1249.28 277.36
  Z
  M 800.49 298.11
  L 800.47 296.43
  A 0.66 0.66 0.0 0 0 799.80 295.78
  L 783.38 296.01
  A 6.08 1.34 -0.8 0 0 777.32 297.43
  L 777.32 297.75
  A 6.08 1.34 -0.8 0 0 783.42 299.01
  L 799.84 298.78
  A 0.66 0.66 0.0 0 0 800.49 298.11
  Z"
/>
<path fill="#ffffff" d="
  M 942.43 122.15
  L 936.29 108.64
  A 7.25 6.87 16.9 0 0 935.67 107.55
  L 932.35 102.74
  A 3.09 3.07 25.6 0 1 931.80 101.19
  Q 931.71 100.04 929.50 94.85
  C 924.10 82.18 923.17 68.72 923.85 54.02
  C 924.45 40.91 927.88 27.59 931.90 14.91
  A 2.29 2.29 0.0 0 1 934.09 13.30
  L 1000.46 13.30
  A 1.87 1.86 -88.4 0 1 1002.32 15.27
  L 1001.89 22.99
  A 5.12 4.91 59.2 0 1 1001.50 24.67
  Q 998.29 32.30 997.74 34.00
  Q 996.25 38.62 994.46 42.38
  Q 992.73 46.01 987.49 58.47
  C 985.34 63.60 982.63 66.56 978.89 71.85
  Q 976.98 74.54 974.05 77.63
  Q 964.17 88.05 953.21 98.10
  C 949.70 101.32 946.53 105.42 943.98 108.27
  A 2.61 2.58 66.1 0 0 943.31 110.04
  Q 943.41 116.04 942.76 122.10
  A 0.17 0.17 0.0 0 1 942.43 122.15
  Z"
/>
<path fill="#ffffff" d="
  M 1332.14 14.18
  Q 1331.71 15.07 1330.83 15.84
  Q 1327.03 19.15 1320.66 27.66
  C 1318.57 30.46 1314.49 33.80 1311.55 37.20
  Q 1306.74 42.77 1298.13 51.15
  C 1294.08 55.08 1288.46 58.55 1284.37 62.21
  Q 1281.26 64.99 1279.17 66.27
  C 1276.51 67.91 1274.36 69.74 1271.78 71.02
  Q 1268.24 72.78 1259.54 77.51
  C 1254.85 80.07 1245.88 82.79 1239.21 85.46
  Q 1231.86 88.41 1230.57 88.64
  Q 1210.32 92.40 1206.93 93.20
  Q 1204.04 93.89 1201.56 94.09
  Q 1198.00 94.39 1192.58 97.04
  Q 1192.08 97.29 1191.24 97.24
  A 0.76 0.76 0.0 0 1 1190.73 95.97
  Q 1192.66 93.91 1194.83 89.15
  Q 1196.36 85.81 1197.48 81.53
  Q 1202.39 62.87 1209.37 47.91
  Q 1211.83 42.62 1217.22 35.44
  Q 1224.27 26.05 1232.28 17.52
  Q 1234.24 15.44 1235.84 14.08
  A 1.78 1.75 20.6 0 1 1236.74 13.68
  Q 1240.86 13.13 1242.02 13.14
  Q 1293.39 13.44 1325.75 13.30
  Q 1329.41 13.29 1331.80 13.56
  A 0.44 0.43 -74.0 0 1 1332.14 14.18
  Z"
/>
<path fill="#ffffff" d="
  M 650.88 56.74
  A 0.45 0.44 -70.4 0 1 651.60 56.39
  Q 671.47 71.78 687.85 89.27
  Q 696.49 98.49 708.22 111.50
  C 716.36 120.52 724.70 130.97 732.00 142.90
  Q 742.67 160.34 748.71 169.54
  Q 752.14 174.78 755.03 181.44
  Q 758.68 189.83 762.23 197.76
  Q 769.74 214.50 770.39 217.13
  Q 771.80 222.72 774.74 232.37
  Q 775.66 235.39 776.63 237.41
  Q 778.27 240.81 778.52 242.64
  A 0.80 0.80 0.0 0 1 777.42 243.49
  Q 775.40 242.69 771.47 242.12
  C 761.61 240.69 756.35 240.12 749.94 238.97
  Q 746.84 238.41 743.99 237.99
  Q 729.28 235.81 713.22 231.33
  Q 704.16 228.80 697.46 225.39
  Q 684.34 218.69 681.08 216.96
  A 9.86 9.83 79.8 0 1 679.04 215.54
  Q 675.23 212.09 669.16 206.86
  Q 659.27 198.33 653.57 187.45
  C 650.61 181.80 650.49 175.75 650.48 167.75
  C 650.42 113.26 650.17 78.79 650.88 56.74
  Z
  M 753.68 218.78
  L 755.26 216.97
  A 0.90 0.90 0.0 0 0 755.17 215.70
  L 744.05 205.99
  A 8.44 1.60 41.1 0 0 736.64 201.65
  L 735.98 202.41
  A 8.44 1.60 41.1 0 0 741.29 209.16
  L 752.41 218.86
  A 0.90 0.90 0.0 0 0 753.68 218.78
  Z"
/>
<path fill="#ffffff" d="
  M 1333.61 78.00
  A 0.45 0.44 -4.8 0 1 1334.16 78.46
  Q 1333.87 83.74 1333.89 87.76
  Q 1333.98 120.26 1333.95 155.30
  Q 1333.95 157.58 1333.32 158.54
  Q 1332.23 160.20 1330.45 160.30
  Q 1325.38 160.58 1321.75 163.78
  C 1318.68 166.48 1316.96 167.44 1313.78 168.45
  C 1308.70 170.06 1303.23 173.96 1297.24 174.11
  C 1294.42 174.18 1291.59 175.99 1288.57 176.56
  Q 1281.87 177.81 1275.88 179.22
  A 1.90 1.82 36.6 0 1 1275.41 179.28
  L 1229.92 179.28
  A 0.83 0.83 0.0 0 1 1229.61 177.68
  L 1235.11 175.45
  A 13.28 9.34 -31.7 0 0 1236.80 174.66
  Q 1237.58 174.24 1239.10 172.59
  Q 1246.59 164.47 1250.98 153.51
  Q 1251.94 151.10 1256.87 144.12
  Q 1260.33 139.21 1263.60 135.28
  C 1271.36 125.93 1279.31 116.91 1287.02 110.27
  Q 1287.08 110.22 1300.18 99.18
  Q 1302.54 97.19 1309.92 92.71
  C 1317.41 88.16 1323.99 83.33 1331.23 78.99
  Q 1332.42 78.28 1333.61 78.00
  Z"
/>
<path fill="#ffffff" d="
  M 767.08 140.01
  C 772.88 140.90 780.02 144.08 787.10 145.93
  Q 788.87 146.39 795.10 147.05
  Q 801.95 147.77 809.91 149.15
  Q 816.01 150.21 819.99 151.90
  C 824.69 153.91 828.73 155.11 832.79 157.48
  C 844.56 164.35 855.96 176.50 860.06 189.51
  Q 863.04 198.99 862.88 208.10
  C 862.79 213.16 856.90 214.16 853.04 213.27
  Q 847.35 211.96 839.57 210.40
  Q 832.93 209.08 823.76 205.28
  Q 822.03 204.56 813.45 199.30
  Q 808.22 196.09 804.01 191.91
  Q 792.78 180.73 789.48 176.30
  Q 771.95 152.75 768.12 147.68
  Q 766.58 145.63 766.34 140.68
  A 0.64 0.64 0.0 0 1 767.08 140.01
  Z"
/>
<path fill="#ffffff" d="
  M 1331.73 333.19
  A 0.32 0.32 0.0 0 1 1331.86 333.75
  Q 1328.48 336.59 1326.29 339.24
  C 1322.29 344.11 1319.17 346.72 1314.93 351.17
  Q 1306.67 359.83 1300.43 368.16
  Q 1299.04 370.01 1295.85 372.60
  C 1289.14 378.03 1285.04 382.72 1279.03 387.52
  C 1275.67 390.20 1272.45 393.86 1268.76 396.70
  C 1265.39 399.29 1263.16 400.71 1259.81 403.50
  C 1252.60 409.48 1243.25 413.66 1231.62 419.12
  Q 1225.39 422.05 1220.46 423.64
  Q 1218.44 424.29 1213.28 426.28
  Q 1208.92 427.97 1206.06 428.80
  Q 1205.57 428.95 1195.26 430.99
  Q 1189.69 432.09 1184.33 432.12
  Q 1171.22 432.19 1167.75 431.95
  Q 1154.12 431.03 1146.05 428.84
  Q 1137.85 426.61 1136.96 426.66
  A 2.94 2.93 -31.0 0 1 1135.34 426.26
  Q 1132.78 424.76 1128.74 424.13
  A 10.05 9.98 62.9 0 1 1125.77 423.16
  Q 1115.89 418.11 1106.95 415.21
  C 1104.05 414.27 1102.28 411.54 1098.74 413.85
  C 1096.65 415.22 1095.03 415.73 1092.88 415.11
  A 0.49 0.49 0.0 0 1 1092.59 414.39
  C 1099.05 403.59 1107.13 393.87 1115.46 383.95
  Q 1122.70 375.32 1134.40 366.66
  C 1141.34 361.51 1143.99 359.14 1150.35 356.03
  Q 1156.12 353.20 1158.81 351.95
  C 1162.79 350.09 1167.46 349.17 1171.52 347.53
  Q 1174.03 346.52 1176.97 346.04
  C 1178.99 345.72 1180.00 345.03 1181.98 343.93
  A 2.27 2.21 -59.8 0 1 1182.98 343.65
  Q 1186.15 343.56 1187.29 343.04
  C 1188.91 342.29 1190.58 341.10 1192.73 341.11
  Q 1195.56 341.13 1198.70 340.33
  C 1202.45 339.37 1206.14 339.48 1210.13 338.63
  A 9.29 8.79 -49.8 0 1 1211.92 338.43
  Q 1218.42 338.37 1222.57 338.37
  C 1226.65 338.37 1230.46 337.54 1233.87 337.48
  C 1251.19 337.17 1269.18 338.37 1288.50 338.33
  Q 1297.63 338.31 1317.88 335.26
  Q 1318.71 335.14 1323.79 333.64
  Q 1328.26 332.33 1331.73 333.19
  Z"
/>
<path fill="#ffffff" d="
  M 1334.20 400.61
  Q 1333.57 406.85 1334.86 411.66
  A 9.50 9.44 37.7 0 1 1335.18 414.10
  C 1335.19 424.67 1335.45 430.01 1334.82 438.52
  Q 1333.92 450.70 1333.93 468.02
  Q 1334.00 602.59 1333.88 663.03
  Q 1333.87 666.33 1330.28 666.07
  Q 1327.25 665.86 1319.78 666.49
  C 1313.80 666.99 1308.21 666.62 1303.46 666.86
  A 14.35 13.94 -51.8 0 0 1301.16 667.17
  C 1293.96 668.76 1286.60 668.41 1278.91 668.74
  Q 1272.40 669.02 1263.08 669.07
  Q 1235.10 669.24 1207.77 668.98
  Q 1198.08 668.88 1193.61 668.58
  C 1182.53 667.82 1173.05 667.91 1163.60 666.62
  C 1157.21 665.75 1150.05 665.61 1142.50 664.49
  Q 1124.59 661.82 1120.39 660.59
  Q 1112.17 658.19 1110.75 658.21
  A 4.53 4.51 56.4 0 1 1108.89 657.83
  Q 1105.10 656.18 1100.37 655.76
  A 7.53 7.30 -33.8 0 1 1098.94 655.50
  Q 1081.59 650.58 1063.37 641.29
  Q 1059.71 639.43 1058.65 636.55
  Q 1058.15 635.18 1057.98 629.89
  Q 1057.47 613.10 1065.77 597.03
  Q 1069.54 589.72 1072.46 584.43
  Q 1076.48 577.14 1086.03 565.52
  Q 1098.44 550.44 1115.93 532.68
  Q 1124.40 524.08 1132.30 518.31
  Q 1143.10 510.42 1149.90 504.94
  Q 1159.70 497.04 1167.70 491.87
  Q 1186.25 479.86 1202.16 471.60
  Q 1209.06 468.02 1214.68 464.54
  Q 1221.87 460.09 1227.46 457.55
  A 5.28 4.87 11.3 0 0 1228.46 456.94
  L 1232.39 453.83
  A 0.90 0.85 -73.5 0 1 1232.56 453.73
  Q 1242.25 449.73 1244.86 448.21
  Q 1249.43 445.56 1253.80 444.35
  Q 1257.37 443.37 1266.39 439.11
  C 1269.38 437.70 1272.28 435.41 1275.36 433.86
  C 1286.24 428.38 1293.82 425.20 1302.07 419.75
  Q 1304.12 418.39 1310.20 415.23
  C 1318.35 411.00 1326.31 405.61 1333.33 400.14
  A 0.54 0.54 0.0 0 1 1334.20 400.61
  Z"
/>
<path fill="#ffffff" d="
  M 924.33 484.91
  A 1.42 1.41 -74.0 0 1 925.19 486.47
  C 924.90 488.11 924.34 490.53 923.41 492.50
  C 920.81 497.97 917.84 502.90 915.18 508.41
  C 908.84 521.59 904.51 531.14 898.92 539.42
  Q 889.12 553.93 875.76 570.04
  Q 870.52 576.37 865.17 581.92
  C 859.33 587.99 855.78 592.36 850.30 597.06
  Q 844.12 602.34 829.66 614.37
  Q 824.37 618.78 810.30 627.01
  Q 796.07 635.34 786.95 639.68
  Q 784.51 640.84 770.98 646.29
  C 767.23 647.80 762.80 648.27 759.32 650.19
  A 2.75 2.67 -59.4 0 1 758.11 650.52
  C 754.60 650.68 750.98 652.82 747.64 653.45
  Q 746.41 653.68 739.81 655.49
  A 8.93 8.76 34.9 0 1 738.14 655.77
  Q 734.45 656.04 731.91 656.90
  C 727.35 658.45 724.76 658.36 720.23 659.50
  Q 714.09 661.06 707.74 661.77
  A 20.83 20.74 -56.8 0 0 704.03 662.55
  Q 700.22 663.73 698.76 663.79
  Q 676.62 664.65 658.50 663.31
  Q 656.25 663.15 653.30 662.16
  A 1.71 1.64 -5.2 0 1 652.41 661.45
  Q 651.32 659.67 651.14 657.76
  C 650.51 650.99 650.41 641.23 650.43 634.07
  Q 650.59 551.21 650.43 472.50
  Q 650.40 457.69 650.86 452.71
  Q 651.06 450.58 653.04 448.19
  A 2.16 2.14 -78.9 0 1 654.00 447.54
  Q 657.54 446.40 659.00 446.44
  Q 671.97 446.79 694.87 448.50
  C 696.54 448.63 698.59 449.21 700.44 449.36
  C 706.29 449.82 714.04 449.53 720.59 450.35
  C 727.35 451.19 733.34 450.80 740.28 451.76
  Q 748.07 452.83 756.43 453.44
  Q 766.21 454.15 769.72 454.71
  C 775.94 455.72 781.51 455.84 787.43 456.89
  C 795.36 458.30 801.55 458.74 808.92 460.11
  Q 819.59 462.08 829.69 463.67
  C 835.77 464.63 842.44 466.55 848.75 466.52
  A 6.65 6.60 -35.3 0 1 851.02 466.90
  Q 856.73 468.91 861.35 469.00
  A 3.73 3.61 54.5 0 1 862.54 469.22
  L 867.56 471.04
  A 2.18 2.16 55.6 0 0 868.24 471.17
  Q 874.24 471.34 878.71 472.94
  Q 882.05 474.14 884.45 474.19
  Q 888.25 474.26 892.91 476.25
  A 6.27 6.19 56.9 0 0 895.20 476.75
  Q 899.65 476.84 904.56 479.08
  A 0.51 0.50 -27.6 0 0 904.73 479.13
  L 909.26 479.86
  A 5.65 5.43 62.8 0 1 911.01 480.46
  Q 913.77 481.95 916.83 482.23
  A 7.21 7.13 58.5 0 1 918.86 482.73
  L 924.33 484.91
  Z"
/>
<path fill="#ffffff" d="
  M 1050.92 518.40
  Q 1050.76 519.66 1050.44 520.21
  Q 1050.23 520.56 1049.98 521.78
  Q 1045.42 543.66 1042.81 551.32
  Q 1042.45 552.38 1037.64 566.23
  Q 1035.50 572.40 1033.37 580.91
  Q 1031.40 588.76 1029.06 595.60
  Q 1028.79 596.38 1028.54 601.07
  A 4.86 4.80 -32.1 0 1 1028.17 602.65
  L 1026.67 606.18
  A 7.02 7.01 60.6 0 0 1026.16 608.01
  C 1025.85 610.12 1026.15 613.02 1025.86 615.65
  Q 1025.29 620.91 1025.80 629.57
  Q 1026.23 636.95 1028.48 643.15
  Q 1036.88 666.25 1060.73 676.24
  Q 1077.00 683.05 1091.78 685.24
  C 1096.62 685.96 1101.32 686.29 1105.56 688.19
  Q 1106.55 688.63 1106.81 689.05
  A 0.75 0.75 0.0 0 1 1106.21 690.20
  C 1101.13 690.41 1096.54 690.14 1090.95 690.52
  Q 1083.38 691.04 1076.04 691.07
  Q 1073.64 691.08 1070.48 691.60
  Q 1065.91 692.34 1064.91 692.22
  Q 1053.13 690.87 1036.51 690.29
  Q 1032.33 690.14 1027.57 688.94
  C 1024.53 688.18 1023.31 688.19 1020.40 687.93
  A 9.05 9.00 -32.0 0 1 1018.11 687.41
  Q 1006.87 683.35 996.73 678.54
  Q 981.25 671.21 975.46 655.55
  Q 974.88 653.96 972.02 640.99
  A 10.57 10.53 40.5 0 1 971.79 638.14
  Q 972.30 628.79 975.66 621.13
  C 977.08 617.88 979.76 614.66 982.29 612.03
  Q 995.04 598.73 1003.82 587.83
  Q 1011.25 578.62 1019.35 569.11
  Q 1031.62 554.71 1038.95 538.72
  Q 1043.42 528.96 1045.64 524.67
  Q 1047.36 521.35 1047.54 520.32
  A 0.81 0.80 -12.2 0 1 1047.88 519.80
  L 1050.43 518.10
  A 0.32 0.32 0.0 0 1 1050.92 518.40
  Z"
/>
<path fill="#ffffff" d="
  M 891.07 683.69
  L 898.74 681.44
  A 5.57 5.48 20.4 0 0 899.97 680.89
  Q 906.06 677.12 913.50 674.41
  Q 918.68 672.53 921.60 671.00
  C 925.29 669.08 928.95 668.01 932.20 665.94
  Q 934.30 664.61 942.29 660.17
  A 1.03 1.03 0.0 0 1 943.66 660.52
  C 946.92 665.69 951.11 670.45 956.70 674.40
  Q 960.80 677.30 965.47 681.33
  Q 967.46 683.03 967.41 684.78
  A 0.56 0.56 0.0 0 1 966.86 685.32
  Q 953.06 685.47 949.88 685.93
  Q 943.03 686.93 938.01 686.86
  Q 929.46 686.75 899.47 686.84
  Q 895.38 686.85 892.48 688.13
  A 0.78 0.78 0.0 0 1 891.42 687.64
  L 890.54 684.66
  A 0.78 0.78 0.0 0 1 891.07 683.69
  Z"
/>
<path fill="#ffffff" d="
  M 1066.34 1011.04
  Q 1062.38 996.98 1061.38 985.67
  Q 1058.97 958.35 1063.19 931.88
  Q 1064.14 925.91 1066.21 920.69
  C 1071.69 906.90 1078.26 892.55 1088.13 880.68
  Q 1095.88 871.37 1105.30 862.95
  Q 1109.65 859.06 1112.94 856.86
  C 1116.02 854.80 1120.97 850.43 1125.55 848.04
  Q 1143.08 838.91 1153.22 834.21
  Q 1156.96 832.49 1164.33 830.61
  Q 1166.66 830.01 1179.58 827.97
  Q 1186.09 826.94 1194.98 826.51
  Q 1210.99 825.74 1230.01 826.38
  Q 1243.89 826.85 1252.86 828.71
  Q 1263.53 830.92 1275.00 835.01
  Q 1280.62 837.02 1284.49 839.23
  Q 1289.55 842.13 1292.93 843.67
  Q 1300.82 847.28 1302.94 848.63
  Q 1308.94 852.48 1317.06 858.54
  Q 1329.02 867.46 1336.66 877.37
  Q 1341.33 883.42 1348.38 895.13
  Q 1361.44 916.82 1364.98 940.25
  Q 1365.86 946.10 1366.10 954.85
  C 1366.44 967.84 1366.56 979.94 1364.07 992.12
  Q 1362.39 1000.35 1362.28 1001.15
  C 1361.05 1010.05 1355.74 1017.70 1352.76 1025.60
  Q 1351.99 1027.62 1349.80 1031.57
  Q 1342.99 1043.77 1333.26 1055.51
  Q 1324.86 1065.64 1315.01 1072.28
  C 1313.08 1073.58 1311.98 1074.70 1310.49 1076.09
  A 18.80 18.56 -81.4 0 1 1307.37 1078.42
  Q 1297.24 1084.46 1294.25 1086.48
  C 1290.94 1088.72 1288.26 1089.26 1284.94 1091.01
  Q 1283.91 1091.55 1281.04 1092.41
  Q 1259.54 1098.89 1257.05 1099.53
  C 1250.04 1101.33 1242.49 1102.42 1233.90 1102.91
  Q 1214.04 1104.03 1191.62 1102.83
  Q 1186.69 1102.57 1182.94 1101.68
  C 1178.88 1100.72 1175.47 1100.60 1171.49 1099.46
  Q 1166.83 1098.12 1162.54 1097.31
  C 1161.02 1097.02 1158.80 1095.90 1157.63 1095.63
  C 1149.82 1093.78 1145.40 1091.63 1135.55 1087.60
  Q 1129.94 1085.31 1125.97 1082.55
  Q 1119.10 1077.76 1112.30 1072.54
  C 1105.97 1067.69 1100.51 1062.05 1094.92 1056.48
  Q 1087.65 1049.22 1081.33 1040.35
  Q 1077.72 1035.30 1075.66 1030.89
  Q 1072.16 1023.44 1070.73 1020.99
  C 1069.18 1018.35 1068.63 1015.03 1066.74 1011.96
  A 3.35 3.33 21.7 0 1 1066.34 1011.04
  Z
  M 1118.37 987.26
  L 1118.55 994.58
  A 8.93 8.80 32.6 0 0 1119.31 997.92
  L 1128.24 1018.06
  A 11.32 11.32 0.0 0 0 1129.50 1020.22
  C 1140.82 1035.37 1154.95 1047.25 1171.94 1055.04
  Q 1174.54 1056.23 1177.82 1056.98
  C 1180.68 1057.62 1185.51 1059.46 1189.79 1060.00
  Q 1193.04 1060.40 1196.16 1061.39
  A 11.31 11.10 55.0 0 0 1198.96 1061.91
  C 1203.55 1062.17 1213.41 1062.96 1219.92 1062.68
  Q 1234.24 1062.07 1246.66 1058.87
  C 1256.17 1056.43 1264.50 1051.64 1272.97 1046.46
  Q 1291.39 1035.20 1300.86 1015.85
  Q 1303.16 1011.16 1305.30 1004.15
  C 1308.98 992.15 1309.29 981.30 1309.90 967.21
  Q 1310.23 959.37 1309.69 952.81
  Q 1308.71 940.73 1308.33 938.45
  Q 1306.50 927.46 1303.46 919.68
  Q 1302.62 917.55 1301.30 915.41
  Q 1295.49 906.07 1286.03 893.75
  A 15.23 14.82 89.8 0 0 1283.56 891.23
  C 1274.75 884.18 1269.74 880.54 1260.55 876.76
  Q 1240.15 868.39 1219.75 867.01
  Q 1210.45 866.38 1206.75 867.00
  C 1197.99 868.49 1190.33 869.21 1182.46 871.46
  C 1162.23 877.25 1146.08 886.24 1133.65 903.51
  C 1127.74 911.74 1122.70 919.64 1120.00 929.36
  Q 1118.50 934.74 1116.89 947.59
  Q 1114.89 963.48 1115.77 979.56
  A 7.22 7.06 32.8 0 0 1116.33 982.01
  L 1118.21 986.52
  A 2.07 1.94 -59.1 0 1 1118.37 987.26
  Z"
/>
<path fill="#ffffff" d="
  M 86.97 1098.17
  A 0.89 0.89 0.0 0 1 86.18 1097.29
  Q 85.94 999.88 86.17 894.19
  Q 86.19 887.28 85.68 880.10
  C 85.24 874.02 86.03 868.45 86.10 861.32
  Q 86.26 844.34 85.93 831.26
  A 0.97 0.97 0.0 0 1 86.87 830.26
  Q 109.03 829.49 130.00 829.91
  Q 133.66 829.99 135.84 830.26
  A 2.80 2.79 -88.0 0 1 138.28 832.88
  Q 138.50 836.90 138.50 852.00
  Q 138.46 954.60 138.50 1041.25
  Q 138.51 1050.42 138.31 1054.49
  C 138.05 1059.91 144.18 1059.87 147.86 1059.86
  Q 238.84 1059.70 265.00 1060.00
  Q 268.04 1060.03 270.44 1060.39
  A 1.88 1.88 0.0 0 1 272.05 1062.14
  Q 272.99 1076.65 273.10 1091.25
  Q 273.11 1093.36 271.87 1097.40
  A 1.18 1.17 89.6 0 1 271.12 1098.17
  Q 269.40 1098.77 267.69 1098.76
  Q 227.95 1098.56 99.50 1098.73
  Q 91.66 1098.74 86.97 1098.17
  Z"
/>
<path fill="#ffffff" d="
  M 310.14 1098.68
  A 0.77 0.77 0.0 0 1 309.37 1097.91
  L 309.37 833.98
  A 4.10 2.64 -90.0 0 1 312.01 829.88
  L 359.35 829.88
  A 4.10 2.64 -90.0 0 1 361.99 833.98
  L 361.99 1097.91
  A 0.77 0.77 0.0 0 1 361.22 1098.68
  L 310.14 1098.68
  Z"
/>
<path fill="#ffffff" d="
  M 396.07 830.18
  Q 396.60 829.97 399.00 829.95
  Q 426.65 829.78 446.00 829.87
  C 449.05 829.88 450.69 829.46 452.16 832.84
  C 453.22 835.29 453.60 837.82 454.70 840.39
  Q 459.37 851.25 460.77 854.65
  Q 464.01 862.53 467.17 868.74
  Q 473.92 881.98 480.96 901.37
  Q 483.37 908.01 485.20 911.81
  Q 488.53 918.72 489.60 922.10
  Q 491.46 927.94 494.05 932.79
  C 496.23 936.86 497.51 941.92 499.89 947.23
  Q 507.00 963.07 514.44 979.31
  C 516.43 983.65 517.97 988.69 520.38 993.17
  Q 522.39 996.91 524.12 1001.73
  C 526.51 1008.44 529.30 1013.75 532.53 1020.70
  C 534.26 1024.43 534.94 1027.76 537.73 1030.92
  A 1.57 1.56 73.8 0 0 538.65 1031.43
  Q 542.12 1031.97 543.51 1028.92
  Q 544.78 1026.15 552.44 1009.74
  Q 562.64 987.87 573.86 958.43
  C 575.62 953.80 578.05 948.96 579.80 943.28
  C 581.84 936.62 586.20 930.05 588.43 923.43
  Q 589.50 920.26 592.86 913.12
  Q 598.66 900.82 602.06 892.26
  C 607.05 879.73 613.29 866.18 618.67 852.12
  Q 622.38 842.42 626.88 832.88
  C 628.04 830.42 629.72 829.96 632.46 829.91
  Q 653.95 829.52 677.00 830.01
  Q 678.36 830.04 679.77 830.37
  A 1.79 1.79 0.0 0 1 681.15 832.33
  Q 680.86 834.84 679.71 837.71
  C 676.20 846.39 670.19 856.93 667.45 863.70
  C 663.86 872.58 661.99 877.53 658.98 883.99
  Q 651.71 899.57 649.41 905.32
  C 646.12 913.52 642.02 920.99 639.03 929.39
  Q 638.40 931.17 633.28 942.55
  Q 630.41 948.93 627.76 955.80
  Q 623.58 966.63 609.68 995.38
  Q 605.58 1003.88 604.19 1007.34
  Q 601.31 1014.51 598.88 1019.41
  C 596.22 1024.77 594.05 1031.15 591.87 1035.91
  A 7.68 7.25 64.2 0 0 591.32 1037.65
  C 590.24 1043.20 585.29 1052.18 582.34 1059.62
  Q 581.08 1062.79 578.67 1067.39
  Q 574.55 1075.25 567.20 1092.97
  C 565.78 1096.39 564.71 1098.58 560.50 1098.63
  Q 550.20 1098.74 524.99 1098.70
  Q 516.31 1098.69 512.66 1097.64
  A 2.48 2.35 70.5 0 1 511.80 1097.20
  C 510.49 1096.18 510.34 1094.14 509.67 1092.53
  Q 499.28 1067.67 491.12 1050.90
  Q 486.20 1040.81 482.31 1030.55
  Q 478.82 1021.32 473.42 1008.59
  Q 470.92 1002.69 461.97 983.80
  Q 460.64 980.99 458.73 974.74
  A 16.09 15.95 21.4 0 0 457.15 971.17
  C 455.04 967.63 451.41 961.01 449.60 955.55
  Q 448.13 951.10 447.11 949.16
  Q 438.91 933.44 434.34 922.44
  Q 431.95 916.69 428.35 908.69
  Q 420.82 891.95 413.26 873.75
  C 410.54 867.22 406.04 860.18 403.69 853.91
  Q 398.48 840.00 395.24 832.14
  A 1.49 1.49 0.0 0 1 396.07 830.18
  Z"
/>
<path fill="#ffffff" d="
  M 767.19 943.14
  L 892.80 943.20
  A 3.16 3.08 -27.9 0 1 894.50 943.70
  Q 895.74 944.51 895.86 947.01
  Q 896.54 961.34 896.02 978.51
  Q 895.93 981.24 895.39 981.98
  A 1.52 1.50 12.7 0 1 894.46 982.56
  Q 889.70 983.42 887.25 983.43
  Q 824.43 983.65 768.24 983.47
  A 2.08 2.08 0.0 0 0 766.15 985.55
  L 766.15 1058.85
  A 0.95 0.95 0.0 0 0 767.09 1059.80
  Q 852.42 1059.90 883.52 1059.76
  Q 897.77 1059.70 911.27 1060.46
  C 914.25 1060.63 914.69 1062.59 914.74 1065.33
  Q 915.10 1084.75 915.01 1092.50
  Q 914.97 1096.18 912.87 1097.78
  Q 911.65 1098.71 907.15 1098.71
  Q 796.45 1098.71 715.36 1098.66
  A 1.55 1.54 -0.0 0 1 713.81 1097.12
  L 713.81 831.94
  A 1.55 1.55 0.0 0 1 715.30 830.39
  Q 728.18 829.85 731.50 829.85
  Q 758.90 829.83 887.50 829.85
  Q 897.88 829.85 907.23 830.29
  C 911.43 830.49 911.05 833.34 911.07 837.00
  Q 911.16 850.44 911.11 868.88
  A 1.18 1.17 -90.0 0 1 909.94 870.06
  L 768.10 870.06
  A 0.89 0.88 -74.0 0 0 767.35 870.48
  Q 766.11 872.53 766.11 874.82
  Q 766.16 909.64 766.12 942.07
  A 1.07 1.07 0.0 0 0 767.19 943.14
  Z"
/>
<path fill="#ffffff" d="
  M 1366.85 1098.18
  A 0.48 0.48 0.0 0 1 1366.53 1097.48
  Q 1373.33 1085.49 1378.81 1071.41
  Q 1381.75 1063.87 1386.40 1054.05
  Q 1405.98 1012.72 1412.20 998.25
  Q 1416.62 987.95 1422.09 975.54
  C 1426.83 964.80 1430.83 957.25 1436.21 946.13
  Q 1439.17 940.02 1441.53 934.20
  Q 1447.22 920.17 1456.34 901.83
  Q 1457.22 900.06 1465.10 881.57
  C 1472.25 864.77 1480.45 847.66 1486.19 835.45
  Q 1487.47 832.71 1488.86 831.34
  A 4.86 4.82 21.9 0 1 1492.17 829.94
  Q 1516.81 829.42 1538.50 829.93
  Q 1540.15 829.97 1541.58 830.50
  A 1.39 1.36 -2.6 0 1 1542.33 831.17
  Q 1547.32 841.28 1550.37 849.12
  Q 1552.50 854.57 1553.21 855.92
  C 1555.72 860.69 1557.40 865.39 1559.74 869.46
  C 1561.47 872.46 1562.33 875.53 1564.16 878.56
  Q 1569.47 887.38 1574.20 899.00
  Q 1578.66 909.98 1580.52 913.54
  Q 1581.56 915.54 1584.79 923.22
  C 1589.06 933.38 1594.94 944.29 1598.51 952.95
  C 1603.53 965.13 1609.80 977.81 1614.94 987.55
  Q 1617.68 992.73 1620.96 1000.78
  Q 1623.50 1007.00 1626.93 1014.02
  Q 1641.19 1043.24 1645.11 1052.64
  Q 1645.76 1054.20 1646.44 1055.70
  Q 1648.47 1060.16 1654.43 1071.63
  Q 1657.20 1076.96 1660.78 1086.37
  Q 1662.49 1090.84 1666.01 1097.23
  Q 1666.24 1097.65 1666.20 1098.09
  A 0.58 0.58 0.0 0 1 1665.62 1098.62
  Q 1645.65 1098.75 1620.26 1098.69
  C 1614.88 1098.67 1611.80 1099.06 1609.12 1094.48
  C 1601.11 1080.82 1595.55 1064.96 1588.66 1050.26
  C 1586.43 1045.51 1583.24 1041.27 1582.05 1035.97
  A 1.19 1.18 86.0 0 0 1580.99 1035.04
  C 1577.22 1034.73 1573.88 1034.22 1569.63 1034.22
  Q 1507.37 1034.20 1485.45 1034.22
  Q 1481.34 1034.22 1468.55 1034.69
  Q 1459.43 1035.02 1451.26 1034.74
  C 1448.07 1034.63 1446.10 1036.94 1445.00 1039.91
  C 1440.56 1051.95 1436.73 1062.06 1431.56 1072.88
  Q 1426.38 1083.71 1420.80 1097.01
  A 2.74 2.73 11.2 0 1 1418.29 1098.68
  Q 1396.04 1098.72 1372.50 1098.66
  Q 1369.18 1098.65 1366.85 1098.18
  Z
  M 1511.80 886.97
  C 1509.60 891.89 1508.29 897.04 1506.14 901.87
  Q 1496.29 924.07 1493.90 928.92
  Q 1479.54 958.08 1471.80 980.29
  C 1469.89 985.77 1466.21 989.71 1468.23 995.67
  A 0.96 0.96 0.0 0 0 1469.22 996.32
  Q 1473.60 995.94 1479.02 996.60
  Q 1482.66 997.04 1488.99 997.04
  Q 1511.44 997.04 1543.84 996.91
  C 1550.12 996.89 1556.07 997.25 1562.05 996.11
  C 1564.75 995.60 1564.68 992.61 1563.99 990.53
  Q 1561.65 983.50 1555.50 969.93
  Q 1553.64 965.83 1549.88 959.11
  Q 1546.28 952.68 1544.31 945.94
  A 10.60 10.23 -67.6 0 0 1543.61 944.17
  Q 1527.78 913.10 1524.80 905.49
  C 1522.39 899.36 1519.81 894.05 1517.68 888.39
  A 1.91 1.90 -79.8 0 0 1517.14 887.61
  Q 1515.09 885.85 1512.60 886.34
  A 1.11 1.08 -82.4 0 0 1511.80 886.97
  Z"
/>
<path fill="#ffffff" d="
  M 1743.24 1098.40
  A 0.39 0.38 8.0 0 1 1742.87 1098.67
  L 1691.55 1098.67
  A 1.10 1.10 0.0 0 1 1690.45 1097.57
  L 1690.45 832.21
  A 1.74 1.73 -1.6 0 1 1692.09 830.48
  Q 1715.66 829.18 1741.74 830.28
  A 1.63 1.63 0.0 0 1 1743.30 831.89
  C 1743.38 840.45 1743.65 847.76 1743.57 856.36
  Q 1743.25 893.81 1743.69 929.50
  Q 1743.75 934.02 1745.02 937.88
  A 8.33 8.29 -58.9 0 1 1745.36 939.27
  C 1745.66 941.19 1744.77 945.88 1748.48 944.93
  A 1.58 1.55 -77.3 0 0 1749.28 944.41
  Q 1750.96 942.30 1752.64 940.89
  C 1760.25 934.50 1770.03 925.54 1777.84 917.74
  Q 1808.12 887.51 1833.28 862.63
  C 1843.38 852.64 1851.10 843.94 1860.15 834.15
  Q 1862.00 832.15 1863.47 831.04
  A 3.17 3.07 -69.4 0 1 1864.59 830.51
  Q 1867.65 829.74 1871.50 829.71
  Q 1875.01 829.68 1916.92 829.89
  C 1919.97 829.91 1922.73 830.30 1925.18 831.06
  A 0.87 0.87 0.0 0 1 1925.54 832.50
  Q 1923.84 834.21 1921.71 835.96
  C 1914.54 841.81 1907.52 847.59 1900.48 855.42
  Q 1894.12 862.50 1886.48 869.38
  C 1881.91 873.51 1877.42 879.74 1873.91 883.16
  Q 1859.20 897.47 1835.51 921.26
  Q 1817.02 939.82 1810.68 946.32
  Q 1807.89 949.18 1807.00 949.83
  C 1804.48 951.65 1802.34 953.13 1800.49 955.96
  A 2.54 2.54 0.0 0 0 1800.83 959.15
  Q 1861.80 1019.55 1926.64 1084.36
  Q 1928.46 1086.17 1931.71 1090.23
  A 3.72 3.45 88.3 0 0 1932.32 1090.85
  L 1938.66 1095.99
  A 1.58 1.58 0.0 0 1 1938.30 1098.66
  Q 1938.28 1098.67 1936.50 1098.67
  Q 1882.42 1098.73 1877.42 1098.66
  C 1874.64 1098.61 1872.93 1097.85 1870.85 1095.81
  Q 1855.25 1080.48 1840.31 1064.85
  Q 1832.70 1056.88 1808.95 1033.62
  C 1793.47 1018.46 1776.82 1001.48 1758.81 984.44
  C 1755.04 980.88 1751.82 978.91 1747.31 977.96
  A 1.44 1.44 0.0 0 0 1745.58 979.61
  Q 1746.68 986.11 1744.62 992.10
  A 5.95 5.73 57.4 0 0 1744.31 993.65
  Q 1743.46 1008.98 1743.46 1015.25
  Q 1743.49 1086.96 1743.40 1097.42
  Q 1743.40 1097.88 1743.24 1098.40
  Z"
/>
<path fill="#ffffff" d="
  M 270.66 1242.91
  A 0.68 0.67 10.0 0 0 269.88 1243.45
  Q 268.35 1251.37 268.33 1260.26
  Q 268.26 1298.05 268.23 1301.00
  C 268.21 1302.81 268.23 1307.22 266.66 1308.41
  C 264.36 1310.16 262.33 1309.57 259.28 1308.83
  C 256.76 1308.22 254.74 1307.27 253.60 1305.12
  A 2.10 2.05 -59.9 0 1 253.35 1304.13
  Q 253.24 1287.48 253.97 1269.61
  C 254.35 1260.41 253.79 1252.08 252.56 1244.21
  A 2.38 2.37 -4.5 0 0 250.20 1242.20
  C 242.43 1242.25 234.63 1242.45 227.44 1240.59
  C 223.93 1239.68 223.24 1235.93 222.93 1232.93
  A 2.72 2.70 -18.4 0 1 224.25 1230.32
  Q 226.21 1229.16 228.01 1229.00
  C 241.06 1227.88 252.09 1227.69 267.02 1228.04
  Q 279.12 1228.31 291.50 1227.95
  Q 293.07 1227.91 295.51 1228.43
  A 4.09 4.07 83.8 0 1 298.38 1230.75
  C 300.26 1234.96 299.44 1240.54 294.16 1241.47
  Q 286.36 1242.84 274.99 1243.26
  Q 273.12 1243.33 270.66 1242.91
  Z"
/>
<path fill="#ffffff" d="
  M 1322.87 1243.33
  A 1.62 1.60 -5.8 0 0 1321.55 1244.93
  Q 1321.88 1273.88 1321.59 1300.75
  Q 1321.55 1304.68 1321.11 1307.70
  A 1.92 1.92 0.0 0 1 1319.49 1309.32
  C 1315.93 1309.83 1310.90 1308.41 1307.85 1308.07
  A 1.04 1.04 0.0 0 1 1306.93 1307.04
  L 1306.93 1244.29
  A 1.36 1.36 0.0 0 0 1305.56 1242.93
  Q 1297.18 1242.96 1291.73 1242.38
  C 1287.67 1241.94 1285.16 1242.28 1280.78 1242.72
  A 3.41 3.41 0.0 0 1 1277.51 1241.05
  Q 1275.73 1237.97 1275.31 1233.62
  A 1.87 1.87 0.0 0 1 1275.51 1232.56
  C 1277.10 1229.48 1282.11 1228.39 1285.26 1228.22
  Q 1299.05 1227.47 1328.87 1228.20
  Q 1334.24 1228.33 1338.16 1228.21
  C 1341.80 1228.11 1347.44 1227.82 1350.29 1229.72
  A 1.01 1.01 0.0 0 1 1350.74 1230.56
  L 1350.74 1240.15
  A 1.27 1.27 0.0 0 1 1349.85 1241.36
  Q 1347.36 1242.14 1345.06 1242.32
  Q 1336.33 1242.96 1326.78 1243.11
  Q 1323.81 1243.15 1322.87 1243.33
  Z"
/>
<path fill="#ffffff" d="
  M 1810.48 1238.59
  L 1801.69 1247.37
  A 0.37 0.36 -48.7 0 1 1801.21 1247.41
  Q 1796.06 1243.42 1787.76 1240.97
  Q 1784.66 1240.06 1780.17 1240.07
  C 1774.08 1240.10 1771.42 1239.80 1766.20 1241.96
  C 1760.53 1244.29 1759.46 1248.92 1759.85 1254.25
  Q 1760.08 1257.32 1764.24 1258.59
  Q 1771.95 1260.95 1776.78 1261.85
  C 1786.40 1263.65 1794.28 1266.29 1802.67 1270.34
  Q 1809.59 1273.68 1811.94 1280.82
  A 1.01 0.86 40.3 0 1 1811.99 1281.12
  L 1811.93 1292.48
  A 2.26 2.19 -33.3 0 1 1811.72 1293.42
  Q 1808.55 1300.09 1802.83 1304.45
  A 5.01 4.86 14.2 0 1 1801.77 1305.06
  C 1796.36 1307.40 1794.83 1308.46 1790.46 1308.62
  A 14.54 14.31 37.3 0 0 1788.01 1308.93
  Q 1778.62 1310.96 1769.22 1309.49
  Q 1765.02 1308.83 1761.68 1308.31
  A 13.13 12.38 57.5 0 1 1759.42 1307.74
  Q 1750.60 1304.60 1741.81 1298.53
  A 0.70 0.69 32.2 0 1 1741.60 1297.63
  Q 1744.27 1292.82 1747.93 1289.96
  A 2.86 2.85 44.4 0 1 1751.42 1289.93
  C 1761.63 1297.59 1772.09 1297.75 1784.58 1297.49
  C 1788.39 1297.40 1796.64 1295.79 1796.89 1290.65
  C 1797.23 1283.52 1796.46 1279.84 1788.81 1277.65
  Q 1778.28 1274.63 1772.27 1274.12
  C 1768.88 1273.84 1765.18 1272.61 1762.30 1271.98
  C 1756.15 1270.64 1750.92 1265.81 1747.07 1260.68
  C 1744.90 1257.78 1742.62 1251.45 1744.22 1247.63
  C 1745.85 1243.75 1746.35 1242.39 1749.37 1239.43
  C 1751.95 1236.90 1754.74 1233.46 1758.21 1231.46
  A 3.57 3.55 -60.6 0 1 1759.84 1231.00
  Q 1763.78 1230.86 1767.07 1228.77
  A 5.64 5.64 0.0 0 1 1770.11 1227.88
  Q 1778.33 1227.88 1779.82 1227.83
  C 1787.31 1227.58 1795.47 1229.41 1800.78 1232.73
  Q 1805.76 1235.84 1810.46 1238.45
  A 0.09 0.09 0.0 0 1 1810.48 1238.59
  Z"
/>
<path fill="#ffffff" d="
  M 820.27 1306.60
  C 820.31 1311.86 810.50 1309.41 807.26 1308.38
  A 1.14 1.13 -82.4 0 1 806.47 1307.34
  Q 806.12 1297.21 805.93 1294.58
  C 805.40 1287.27 805.84 1280.04 805.57 1272.62
  C 805.25 1263.95 805.64 1254.15 805.90 1246.45
  Q 805.99 1243.50 803.39 1243.33
  Q 795.89 1242.83 787.51 1242.96
  Q 782.32 1243.04 777.53 1241.58
  A 1.87 1.87 0.0 0 1 776.26 1240.21
  Q 775.29 1235.90 776.28 1230.90
  A 1.79 1.78 -89.0 0 1 777.74 1229.48
  Q 782.96 1228.63 786.75 1228.48
  Q 809.78 1227.55 823.01 1228.01
  Q 833.51 1228.38 840.75 1227.97
  C 846.20 1227.66 851.31 1229.06 852.20 1235.33
  C 852.92 1240.39 846.21 1242.86 841.99 1242.99
  Q 836.74 1243.15 827.50 1243.25
  Q 824.63 1243.28 821.69 1243.69
  A 1.73 1.73 0.0 0 0 820.20 1245.40
  Q 820.11 1283.40 820.27 1306.60
  Z"
/>
<path fill="#ffffff" d="
  M 1247.01 1309.33
  Q 1241.03 1309.82 1235.24 1309.20
  Q 1231.61 1308.82 1229.45 1306.14
  Q 1223.69 1298.98 1211.04 1284.12
  A 1.40 1.36 74.7 0 0 1210.24 1283.65
  Q 1203.29 1282.35 1202.04 1282.37
  Q 1193.07 1282.46 1189.45 1282.25
  A 1.65 1.64 5.3 0 0 1187.73 1283.67
  Q 1186.57 1292.22 1186.78 1302.98
  Q 1186.84 1305.89 1185.32 1308.96
  A 1.29 1.29 0.0 0 1 1184.37 1309.67
  Q 1178.29 1310.71 1173.64 1309.04
  A 1.90 1.90 0.0 0 1 1172.38 1307.25
  L 1172.38 1231.44
  A 2.61 2.60 -12.0 0 1 1173.93 1229.06
  Q 1175.88 1228.20 1178.73 1228.14
  Q 1192.92 1227.83 1201.81 1227.93
  Q 1208.66 1228.00 1212.99 1229.09
  Q 1216.82 1230.05 1224.02 1231.50
  Q 1229.84 1232.67 1235.55 1237.30
  Q 1243.87 1244.05 1244.61 1255.49
  A 4.51 4.38 51.3 0 1 1244.47 1256.94
  Q 1242.68 1263.72 1239.17 1270.24
  C 1236.19 1275.77 1232.14 1279.30 1226.82 1281.87
  A 0.90 0.90 0.0 0 0 1226.67 1283.40
  C 1228.46 1284.73 1229.53 1285.48 1230.60 1286.75
  C 1234.69 1291.60 1239.09 1296.20 1242.80 1301.35
  Q 1244.57 1303.81 1247.83 1307.14
  A 1.29 1.29 0.0 0 1 1247.01 1309.33
  Z
  M 1187.59 1243.95
  Q 1187.08 1245.29 1186.96 1248.78
  C 1186.68 1257.23 1186.37 1264.62 1187.63 1269.77
  A 1.37 1.36 -6.1 0 0 1188.92 1270.80
  Q 1199.97 1271.04 1211.42 1270.57
  C 1217.05 1270.35 1222.85 1269.09 1226.28 1265.04
  Q 1231.62 1258.76 1228.72 1249.63
  C 1227.52 1245.82 1220.96 1243.04 1217.51 1243.07
  Q 1205.30 1243.16 1193.00 1243.06
  Q 1189.85 1243.04 1188.28 1243.37
  A 0.95 0.94 -84.6 0 0 1187.59 1243.95
  Z"
/>
<path fill="#ffffff" d="
  M 1534.20 1296.21
  A 1.89 1.89 0.0 0 0 1535.93 1297.37
  Q 1563.29 1297.49 1581.00 1297.48
  Q 1583.28 1297.48 1584.86 1298.39
  A 1.23 1.21 -75.2 0 1 1585.47 1299.45
  L 1585.47 1307.19
  A 0.54 0.54 0.0 0 1 1585.01 1307.72
  Q 1571.92 1309.58 1562.75 1309.85
  Q 1542.66 1310.46 1524.82 1309.84
  Q 1522.52 1309.76 1521.17 1309.34
  A 1.42 1.41 -81.9 0 1 1520.17 1308.00
  Q 1519.65 1268.21 1520.24 1234.75
  Q 1520.27 1233.17 1520.70 1230.80
  A 1.47 1.47 0.0 0 1 1522.03 1229.59
  Q 1546.11 1227.53 1570.29 1227.96
  C 1574.51 1228.04 1577.87 1229.07 1581.84 1229.28
  A 1.95 1.94 -5.9 0 1 1583.63 1230.73
  L 1585.22 1236.74
  A 0.71 0.71 0.0 0 1 1585.17 1237.24
  Q 1584.47 1238.59 1582.38 1240.63
  C 1580.48 1242.49 1579.04 1242.97 1576.34 1242.89
  C 1569.96 1242.69 1563.66 1243.24 1557.90 1243.05
  Q 1545.83 1242.63 1534.94 1243.45
  A 1.00 0.98 3.9 0 0 1534.05 1244.21
  Q 1532.96 1249.02 1533.50 1254.46
  C 1533.98 1259.28 1533.73 1262.21 1539.27 1262.31
  Q 1545.61 1262.43 1548.92 1262.21
  C 1556.87 1261.69 1563.35 1262.40 1572.00 1262.53
  Q 1574.30 1262.56 1577.67 1263.10
  A 2.57 2.55 87.9 0 1 1579.76 1265.06
  Q 1580.56 1268.52 1579.39 1271.57
  A 1.95 1.91 -12.9 0 1 1578.98 1272.21
  Q 1577.89 1273.34 1574.93 1273.58
  Q 1558.87 1274.87 1545.14 1273.94
  C 1541.57 1273.70 1538.13 1274.44 1534.66 1274.27
  A 0.57 0.56 3.6 0 0 1534.06 1274.79
  Q 1533.26 1285.28 1533.90 1295.31
  Q 1533.92 1295.53 1534.20 1296.21
  Z"
/>
<path fill="#ffffff" d="
  M 1705.98 1306.88
  A 0.73 0.73 0.0 0 1 1705.55 1308.05
  C 1700.57 1309.08 1695.00 1309.56 1690.33 1307.16
  A 4.45 4.41 82.5 0 1 1689.13 1306.23
  L 1668.97 1283.94
  A 2.35 2.31 -16.1 0 0 1667.60 1283.20
  Q 1658.60 1281.83 1647.24 1282.72
  A 0.95 0.93 2.8 0 0 1646.39 1283.48
  C 1646.13 1284.89 1645.60 1288.06 1645.59 1289.85
  Q 1645.53 1297.30 1644.81 1302.82
  Q 1644.52 1304.96 1643.77 1307.21
  A 2.84 2.84 0.0 0 1 1641.98 1309.00
  Q 1637.06 1310.65 1632.57 1309.18
  A 2.49 2.48 9.1 0 1 1630.85 1306.82
  L 1630.85 1231.04
  A 2.37 2.36 -10.1 0 1 1632.40 1228.82
  Q 1634.08 1228.20 1637.27 1228.13
  Q 1652.25 1227.80 1665.82 1228.41
  Q 1670.60 1228.63 1677.99 1230.07
  Q 1686.10 1231.65 1687.01 1232.00
  C 1691.26 1233.64 1695.79 1236.05 1698.32 1239.89
  Q 1700.36 1243.00 1700.89 1243.92
  C 1706.30 1253.47 1702.07 1263.88 1696.64 1272.43
  A 5.04 4.81 -8.2 0 1 1695.84 1273.45
  L 1688.06 1280.90
  A 2.09 2.09 0.0 0 0 1687.62 1283.32
  Q 1688.60 1285.34 1689.73 1286.76
  Q 1699.70 1299.24 1703.00 1303.69
  C 1703.87 1304.87 1705.08 1305.74 1705.98 1306.88
  Z
  M 1647.08 1270.12
  Q 1648.60 1270.88 1651.75 1270.90
  Q 1663.01 1270.97 1671.77 1270.73
  Q 1678.49 1270.54 1683.73 1266.21
  C 1687.79 1262.86 1688.46 1258.23 1688.06 1253.01
  Q 1687.81 1249.70 1686.56 1248.41
  Q 1683.10 1244.85 1678.06 1243.19
  A 3.82 3.74 53.4 0 0 1676.79 1242.99
  L 1647.17 1243.19
  A 1.37 1.37 0.0 0 0 1645.81 1244.50
  Q 1645.25 1255.45 1645.72 1266.25
  Q 1645.74 1266.69 1646.49 1269.39
  A 1.19 1.15 -85.0 0 0 1647.08 1270.12
  Z"
/>
<path fill="#ffffff" d="
  M 565.95 1274.47
  A 0.67 0.66 2.6 0 0 565.41 1274.95
  Q 563.14 1283.59 564.72 1293.13
  Q 565.29 1296.55 568.74 1296.78
  Q 576.47 1297.30 580.59 1296.98
  Q 586.16 1296.54 592.39 1296.98
  Q 598.19 1297.39 610.50 1297.53
  Q 612.30 1297.55 614.50 1298.06
  A 2.07 2.06 6.5 0 1 616.10 1300.07
  L 616.10 1307.99
  A 1.28 1.28 0.0 0 1 615.08 1309.24
  Q 612.41 1309.79 612.00 1309.80
  Q 597.34 1310.36 584.55 1309.47
  C 580.43 1309.18 576.76 1309.67 572.68 1309.26
  Q 564.32 1308.42 552.10 1307.80
  A 1.70 1.70 0.0 0 1 550.48 1306.10
  L 550.48 1231.17
  A 1.70 1.70 0.0 0 1 551.85 1229.50
  Q 557.11 1228.46 562.23 1228.65
  C 571.78 1229.01 581.17 1227.96 590.75 1228.34
  Q 597.98 1228.62 606.74 1228.31
  Q 610.06 1228.20 612.75 1229.07
  A 2.31 2.30 9.1 0 1 614.34 1231.26
  L 614.34 1239.51
  A 1.91 1.89 74.8 0 1 613.41 1241.15
  Q 611.94 1242.03 609.53 1242.34
  Q 605.35 1242.87 599.75 1242.87
  Q 583.61 1242.89 566.61 1243.43
  A 1.25 1.24 3.9 0 0 565.42 1244.46
  Q 564.14 1251.96 564.75 1259.45
  A 2.36 2.36 0.0 0 0 566.69 1261.58
  C 571.66 1262.47 575.72 1262.28 582.41 1262.14
  C 589.79 1261.97 594.72 1262.32 605.00 1262.64
  Q 606.00 1262.67 607.91 1263.89
  A 1.28 1.24 -79.3 0 1 608.45 1264.71
  Q 609.20 1268.84 607.85 1272.51
  A 0.99 0.97 -84.2 0 1 607.09 1273.14
  Q 603.91 1273.69 602.25 1273.77
  Q 590.10 1274.34 572.77 1274.04
  Q 569.09 1273.98 565.95 1274.47
  Z"
/>
<path fill="#ffffff" d="
  M 949.75 1309.74
  A 1.94 1.94 0.0 0 1 948.18 1307.87
  Q 947.45 1268.58 948.16 1233.25
  Q 948.16 1233.15 948.54 1230.23
  A 1.07 1.07 0.0 0 1 949.53 1229.30
  C 964.22 1228.30 978.38 1227.61 992.91 1229.55
  C 1004.69 1231.12 1013.78 1236.55 1019.82 1246.48
  C 1022.90 1251.54 1021.34 1258.09 1019.49 1263.76
  C 1016.56 1272.71 1009.28 1278.55 1000.81 1282.12
  A 5.94 5.90 29.9 0 1 999.23 1282.54
  C 994.65 1283.11 990.05 1284.27 985.24 1284.40
  Q 977.87 1284.60 965.36 1284.60
  A 2.44 2.42 13.3 0 0 963.19 1285.93
  Q 962.51 1287.28 962.51 1289.76
  Q 962.50 1298.81 962.50 1303.99
  Q 962.50 1306.68 961.23 1308.79
  A 1.50 1.49 10.4 0 1 960.21 1309.49
  Q 954.22 1310.61 949.75 1309.74
  Z
  M 962.34 1245.38
  L 962.14 1269.02
  A 2.51 2.51 0.0 0 0 964.63 1271.55
  L 989.55 1271.77
  A 16.98 12.78 0.5 0 0 1006.65 1259.13
  L 1006.67 1256.03
  A 16.98 12.78 0.5 0 0 989.80 1243.11
  L 964.88 1242.89
  A 2.51 2.51 0.0 0 0 962.34 1245.38
  Z"
/>
<path fill="#ffffff" d="
  M 410.60 1308.52
  Q 409.49 1309.43 407.31 1309.12
  Q 402.48 1308.42 397.94 1308.38
  A 3.62 3.60 76.2 0 1 394.79 1306.46
  Q 392.04 1301.27 388.55 1294.52
  Q 387.45 1292.39 384.78 1292.23
  Q 360.70 1290.85 345.13 1291.61
  Q 341.68 1291.78 339.95 1294.96
  Q 337.60 1299.28 334.47 1305.95
  A 4.30 4.30 0.0 0 1 331.57 1308.31
  C 327.33 1309.30 324.25 1310.57 319.83 1309.35
  A 0.53 0.53 0.0 0 1 319.46 1308.69
  Q 320.93 1303.58 321.20 1302.96
  Q 326.58 1290.47 333.90 1276.88
  Q 344.83 1256.56 352.86 1239.12
  Q 354.86 1234.76 355.79 1230.52
  A 1.52 1.52 0.0 0 1 357.02 1229.35
  Q 361.90 1228.51 366.88 1228.87
  C 373.11 1229.32 373.85 1232.48 376.68 1238.38
  C 379.96 1245.19 382.46 1251.52 387.25 1262.14
  C 390.26 1268.82 393.96 1274.66 397.20 1281.05
  Q 409.36 1305.12 409.84 1305.94
  Q 410.80 1307.56 410.81 1307.58
  A 0.78 0.77 -32.7 0 1 410.60 1308.52
  Z
  M 364.37 1279.40
  Q 371.05 1279.40 377.53 1279.03
  A 0.94 0.93 -89.5 0 0 378.41 1278.16
  C 378.64 1274.67 376.65 1269.88 375.27 1267.24
  Q 374.63 1266.02 365.11 1247.64
  Q 364.73 1246.91 364.38 1246.91
  Q 364.02 1246.91 363.65 1247.63
  Q 354.12 1266.02 353.48 1267.24
  C 352.10 1269.88 350.11 1274.67 350.34 1278.16
  A 0.94 0.93 89.5 0 0 351.21 1279.02
  Q 357.70 1279.40 364.37 1279.40
  Z"
/>
<path fill="#ffffff" d="
  M 1042.57 1306.78
  C 1046.81 1300.46 1051.58 1291.53 1055.59 1282.36
  Q 1061.72 1268.33 1070.93 1252.02
  C 1072.94 1248.45 1074.13 1245.83 1075.96 1241.92
  C 1077.78 1238.05 1078.79 1233.91 1080.50 1230.08
  A 1.47 1.45 -81.2 0 1 1081.65 1229.23
  Q 1088.38 1228.37 1094.87 1229.34
  Q 1097.50 1229.74 1097.93 1233.07
  Q 1098.61 1238.29 1100.87 1242.37
  C 1104.82 1249.48 1110.62 1259.22 1114.25 1267.18
  Q 1122.46 1285.22 1130.71 1301.04
  Q 1132.10 1303.70 1132.67 1306.77
  A 1.47 1.47 0.0 0 1 1131.38 1308.50
  Q 1125.93 1309.10 1120.97 1308.28
  A 2.46 2.45 -22.9 0 1 1119.98 1307.88
  Q 1118.72 1307.01 1117.90 1305.41
  Q 1114.55 1298.85 1111.75 1294.77
  C 1110.12 1292.40 1107.62 1291.58 1104.39 1291.52
  Q 1090.48 1291.25 1072.55 1291.53
  C 1067.21 1291.61 1064.87 1293.71 1062.09 1298.39
  Q 1059.34 1303.02 1056.83 1305.82
  C 1053.23 1309.85 1047.90 1308.99 1042.98 1307.84
  A 0.69 0.69 0.0 0 1 1042.57 1306.78
  Z
  M 1088.28 1249.87
  A 2.48 2.39 -69.6 0 0 1085.62 1251.15
  C 1081.23 1259.37 1078.72 1263.30 1076.75 1268.67
  C 1075.62 1271.72 1072.87 1274.97 1073.06 1278.75
  A 0.68 0.67 88.2 0 0 1073.74 1279.40
  Q 1085.92 1279.22 1091.98 1279.51
  C 1095.82 1279.70 1098.18 1279.34 1102.02 1279.09
  A 1.15 1.14 81.4 0 0 1103.06 1277.67
  Q 1101.80 1272.45 1099.56 1268.24
  Q 1098.50 1266.25 1090.86 1252.47
  Q 1089.57 1250.15 1088.28 1249.87
  Z"
/>
<path fill="#ffffff" d="
  M 1468.53 1309.35
  C 1464.70 1310.39 1459.62 1310.82 1456.75 1308.01
  Q 1449.96 1301.38 1448.19 1299.35
  C 1443.40 1293.89 1438.08 1287.17 1431.89 1280.67
  Q 1418.83 1266.94 1417.17 1265.08
  C 1413.10 1260.50 1409.91 1257.32 1408.63 1254.55
  A 1.74 1.65 -35.1 0 0 1405.90 1254.15
  Q 1404.92 1255.11 1404.94 1256.25
  Q 1405.30 1275.37 1405.03 1293.50
  Q 1404.92 1300.35 1404.51 1306.87
  A 1.14 1.12 86.0 0 1 1403.63 1307.90
  Q 1398.46 1309.06 1392.91 1308.14
  A 1.39 1.36 -9.9 0 1 1391.96 1307.49
  Q 1390.86 1305.68 1390.82 1304.68
  C 1390.56 1298.62 1390.23 1295.51 1390.51 1290.18
  Q 1390.93 1282.32 1390.91 1275.50
  Q 1390.85 1257.34 1390.99 1239.25
  Q 1391.04 1232.53 1391.72 1230.41
  A 1.09 1.06 89.1 0 1 1392.37 1229.72
  Q 1399.44 1227.14 1404.33 1231.63
  C 1411.83 1238.50 1418.95 1245.99 1425.72 1254.23
  C 1433.55 1263.74 1441.15 1271.04 1449.42 1280.06
  Q 1450.83 1281.59 1452.99 1282.36
  A 2.19 2.19 0.0 0 0 1455.91 1280.27
  Q 1455.62 1257.12 1456.35 1233.45
  Q 1456.46 1230.02 1459.69 1229.44
  Q 1463.96 1228.67 1468.68 1229.10
  A 1.69 1.68 84.4 0 1 1470.15 1230.32
  Q 1470.76 1232.45 1470.72 1235.00
  Q 1470.55 1246.16 1470.89 1302.50
  Q 1470.91 1305.22 1469.45 1308.55
  A 1.42 1.41 -85.9 0 1 1468.53 1309.35
  Z"
/>
<path fill="#ffffff" d="
  M 451.00 1229.11
  L 461.69 1229.11
  A 1.88 1.88 0.0 0 1 463.57 1230.95
  Q 464.19 1260.05 463.70 1289.75
  C 463.63 1294.29 463.65 1296.91 469.26 1297.08
  Q 485.39 1297.59 505.53 1297.60
  Q 508.08 1297.61 510.32 1299.35
  A 1.63 1.63 0.0 0 1 510.94 1300.63
  L 510.94 1306.95
  A 1.89 1.88 69.1 0 1 510.32 1308.35
  C 507.89 1310.55 500.61 1310.10 497.00 1309.88
  Q 483.82 1309.09 477.86 1309.19
  C 473.55 1309.26 467.93 1307.97 464.25 1308.07
  Q 457.73 1308.25 451.42 1307.86
  A 1.08 1.08 0.0 0 1 450.40 1306.78
  L 450.40 1229.71
  A 0.60 0.60 0.0 0 1 451.00 1229.11
  Z"
/>
<path fill="#ffffff" d="
  M 725.41 1229.46
  A 0.33 0.33 0.0 0 1 725.71 1229.18
  Q 730.74 1228.89 735.68 1229.11
  C 738.53 1229.24 738.94 1230.44 739.10 1232.99
  Q 739.32 1236.56 739.31 1240.50
  Q 739.23 1276.24 739.30 1290.25
  C 739.33 1295.66 739.55 1302.71 737.49 1307.88
  A 3.81 3.79 -81.8 0 1 734.32 1310.27
  C 729.64 1310.73 725.34 1308.94 722.17 1305.16
  C 714.49 1295.98 704.77 1286.87 699.05 1279.95
  Q 688.11 1266.71 678.12 1257.38
  Q 677.01 1256.34 675.57 1256.77
  A 1.83 1.81 -9.2 0 0 674.26 1258.56
  Q 674.77 1276.45 674.03 1295.75
  Q 673.83 1301.02 673.24 1304.21
  Q 672.49 1308.37 668.54 1308.54
  Q 664.37 1308.71 660.69 1308.07
  A 1.41 1.41 0.0 0 1 659.53 1306.84
  Q 659.27 1304.63 659.24 1301.75
  Q 658.86 1273.40 659.15 1238.25
  Q 659.17 1235.72 659.52 1232.45
  A 2.07 2.07 0.0 0 1 661.19 1230.63
  Q 671.47 1228.64 677.95 1235.99
  Q 685.20 1244.23 689.39 1249.11
  Q 697.93 1259.05 710.52 1272.17
  C 714.28 1276.08 716.78 1277.78 721.18 1280.37
  A 2.07 2.07 0.0 0 0 724.17 1279.31
  C 724.82 1277.58 725.17 1274.94 725.18 1272.97
  Q 725.31 1230.10 725.41 1229.46
  Z"
/>
<path fill="#ffffff" d="
  M 184.59 1267.06
  A 3.32 3.32 0.0 0 1 181.42 1270.11
  C 172.19 1270.49 165.02 1271.26 156.43 1271.24
  Q 114.34 1271.14 85.75 1271.27
  Q 74.96 1271.31 69.66 1271.01
  C 64.56 1270.73 58.84 1271.29 54.96 1271.15
  A 1.80 1.77 62.6 0 1 54.04 1270.85
  C 51.99 1269.51 50.51 1267.70 52.39 1265.37
  Q 54.55 1262.67 57.27 1262.69
  C 66.96 1262.74 74.88 1262.06 84.34 1262.12
  Q 107.56 1262.27 150.96 1262.14
  C 161.58 1262.11 171.44 1262.92 181.99 1263.85
  A 2.87 2.87 0.0 0 1 184.60 1266.95
  L 184.59 1267.06
  Z"
/>
<path fill="#ffffff" d="
  M 1858.77 1270.78
  A 2.22 2.22 0.0 0 1 1856.73 1267.69
  L 1856.86 1267.37
  A 5.23 5.22 -81.1 0 1 1861.18 1264.21
  C 1867.37 1263.63 1872.40 1262.53 1877.92 1262.76
  C 1883.02 1262.98 1888.51 1262.17 1894.37 1262.18
  Q 1904.61 1262.19 1961.19 1262.16
  C 1969.62 1262.16 1979.32 1262.72 1987.42 1262.85
  Q 1990.24 1262.89 1992.55 1266.46
  A 1.24 1.23 38.3 0 1 1992.68 1267.54
  Q 1991.47 1271.05 1988.75 1270.76
  Q 1985.71 1270.44 1976.94 1270.84
  Q 1968.74 1271.21 1966.00 1271.20
  Q 1914.52 1271.17 1886.44 1271.28
  C 1877.24 1271.31 1868.95 1270.84 1858.77 1270.78
  Z"
/>
</svg>
